M48
;Layer_Color=9474304
;FILE_FORMAT=4:4
METRIC,LZ
;TYPE=PLATED
T1F00S00C0.3000
T3F00S00C0.8000
%
T01
X00085Y0007
X00097Y00094
Y00101
X00062Y00107
Y00114
X00095Y00156
X0012618Y0016318
X00121Y00192
X00118Y00201
X001Y00225
X00077Y0024
X00074Y00264
X00062
Y00277
X00076
X00091
X00105
X00116Y00276
X00097Y00264
X00086
X00082Y00293
X00081Y00309
X00077Y00321
X0007Y00331
X00086
X00092Y00348
X00071
Y00364
Y00379
Y00395
X00052Y00329
X00039Y00324
X00031Y00329
X00027Y00314
X00026Y00301
X00027Y00289
X00035Y0028
X00048Y00277
X00049Y00264
X00037
X00038Y00253
X00039Y00241
X00021
X00022Y00254
X00008Y00255
Y00268
X00015Y00277
X00009Y00287
X00007Y00298
X00006Y0031
X00005Y00329
X00044Y0031
X00045Y00293
X00063
Y00309
X00115Y00311
X00112Y0034
X00148Y00343
X00158Y00327
X00178
X00203Y00332
Y00311
X002036Y0029831
X00179Y00298
X00161Y00291
X0015Y00288
X001496Y0026131
X0014926Y0024263
X00149Y00223
X00137Y00232
X00136Y00254
X00164
X00163Y00231
X00203Y00229
X0022Y00208
X00246Y00183
X00229Y0016
X00214Y00154
X00193Y00152
X00192Y00139
X0021Y00122
X00215Y00081
X00212Y00071
X00203Y0006
X00197Y00082
X00252858Y00080626
X00254Y00072
X0024Y00056
X00289Y00052
Y00065
X00311Y0007
Y00103
X00275Y00102
X00291Y00135
X00249Y00138
X00171Y00162
X00135Y00133
X00141Y00088
X00146Y00062
X00032Y00172
X00027Y00187
X00032Y00199
X00013Y00192
X00008Y00206
X00009Y00228
X00007Y00241
X00023Y00218
X00036Y00223
X00025Y00268
X00192Y00281
X00227Y00311
X00229Y00342
X00254Y00324
X00265Y00304
X00273Y00338
X00294Y00327
X00297Y00375
X003306Y0034931
X00388Y00331
X00373Y003
X00356Y00294
X003116Y0027231
X00323Y00215
X00339Y0018
X00359Y0016
X00386Y00143
X00395Y00067
X00207Y00378
X00427Y00336
X00447Y00326
X00476Y00338
X0047Y00144
X00485Y00143
X00489Y0013
X00474Y0011
X00442Y00141
X004Y00143
X00399Y00121
X00412Y00122
T03
X0031639Y000205
X0033639
M30
