G04*
G04 #@! TF.GenerationSoftware,Altium Limited,Altium Designer,21.6.4 (81)*
G04*
G04 Layer_Color=16711935*
%FSLAX44Y44*%
%MOMM*%
G71*
G04*
G04 #@! TF.SameCoordinates,ED844FB0-3762-473F-B395-F2E91FE73C6E*
G04*
G04*
G04 #@! TF.FilePolarity,Negative*
G04*
G01*
G75*
%ADD22C,0.1000*%
%ADD57R,0.6000X1.0000*%
%ADD58R,1.0000X0.6000*%
%ADD83C,1.5112*%
%ADD84R,1.5112X1.5112*%
%ADD85O,10.2032X2.4032*%
%ADD86O,1.9000X1.3000*%
%ADD87O,2.1000X1.2000*%
D22*
X0Y0D02*
X500000D01*
X0Y400000D02*
X500000D01*
Y0D02*
Y400000D01*
X0Y0D02*
Y400000D01*
D57*
X304180Y73470D02*
D03*
X290180D02*
D03*
Y103950D02*
D03*
X304180D02*
D03*
D58*
X169000Y297000D02*
D03*
Y311000D02*
D03*
X190000D02*
D03*
Y297000D02*
D03*
D83*
X316390Y20500D02*
D03*
D84*
X336390D02*
D03*
D85*
X130000Y375000D02*
D03*
Y25000D02*
D03*
X417500Y375000D02*
D03*
Y25000D02*
D03*
D86*
X27269Y62160D02*
D03*
Y148660D02*
D03*
D87*
X69271Y62160D02*
D03*
Y148660D02*
D03*
M02*
