G04*
G04 #@! TF.GenerationSoftware,Altium Limited,Altium Designer,21.6.4 (81)*
G04*
G04 Layer_Physical_Order=4*
G04 Layer_Color=16711680*
%FSLAX44Y44*%
%MOMM*%
G71*
G04*
G04 #@! TF.SameCoordinates,ED844FB0-3762-473F-B395-F2E91FE73C6E*
G04*
G04*
G04 #@! TF.FilePolarity,Positive*
G04*
G01*
G75*
%ADD10C,0.2000*%
%ADD12C,0.3000*%
%ADD19C,0.2030*%
%ADD22C,0.1000*%
%ADD28R,0.5000X0.9000*%
%ADD29R,0.9000X0.5000*%
%ADD92C,0.5000*%
%ADD95C,1.3080*%
%ADD96R,1.3080X1.3080*%
%ADD97O,10.5000X2.7000*%
%ADD98O,1.8000X1.2000*%
%ADD99O,2.0000X1.1000*%
%ADD100C,0.4500*%
G36*
X499000Y1000D02*
X1000D01*
Y331685D01*
X65000D01*
X66288Y331941D01*
X67379Y332671D01*
X68109Y333762D01*
X68365Y335050D01*
Y399000D01*
X499000D01*
Y1000D01*
D02*
G37*
%LPC*%
G36*
X456500Y391881D02*
X378500D01*
X375207Y391557D01*
X372040Y390596D01*
X369121Y389036D01*
X366563Y386937D01*
X364464Y384379D01*
X362904Y381460D01*
X361943Y378293D01*
X361619Y375000D01*
X361943Y371707D01*
X362904Y368540D01*
X364464Y365621D01*
X366563Y363063D01*
X369121Y360964D01*
X372040Y359404D01*
X375207Y358443D01*
X378500Y358119D01*
X456500D01*
X459793Y358443D01*
X462960Y359404D01*
X465879Y360964D01*
X468437Y363063D01*
X470536Y365621D01*
X472096Y368540D01*
X473057Y371707D01*
X473381Y375000D01*
X473057Y378293D01*
X472096Y381460D01*
X470536Y384379D01*
X468437Y386937D01*
X465879Y389036D01*
X462960Y390596D01*
X459793Y391557D01*
X456500Y391881D01*
D02*
G37*
G36*
X169000D02*
X91000D01*
X87707Y391557D01*
X84540Y390596D01*
X81621Y389036D01*
X79063Y386937D01*
X76964Y384379D01*
X75404Y381460D01*
X74443Y378293D01*
X74119Y375000D01*
X74443Y371707D01*
X75404Y368540D01*
X76964Y365621D01*
X79063Y363063D01*
X81621Y360964D01*
X84540Y359404D01*
X87707Y358443D01*
X91000Y358119D01*
X169000D01*
X172293Y358443D01*
X175460Y359404D01*
X178379Y360964D01*
X180937Y363063D01*
X183036Y365621D01*
X184596Y368540D01*
X185557Y371707D01*
X185881Y375000D01*
X185557Y378293D01*
X184596Y381460D01*
X183036Y384379D01*
X180937Y386937D01*
X178379Y389036D01*
X175460Y390596D01*
X172293Y391557D01*
X169000Y391881D01*
D02*
G37*
G36*
X331000Y354894D02*
X330827Y354860D01*
X329496D01*
X327456Y354015D01*
X325895Y352453D01*
X325444Y351365D01*
X305973Y331894D01*
X296688D01*
X295104Y332550D01*
X292896D01*
X290856Y331705D01*
X289295Y330144D01*
X288450Y328104D01*
Y325896D01*
X289295Y323856D01*
X290856Y322295D01*
X292896Y321450D01*
X293733D01*
X294259Y320180D01*
X260221Y286142D01*
X247921Y298442D01*
X248407Y299616D01*
X261535D01*
X261856Y299295D01*
X263896Y298450D01*
X266104D01*
X268144Y299295D01*
X269705Y300856D01*
X270550Y302896D01*
Y305104D01*
X269705Y307144D01*
X268144Y308705D01*
X266104Y309550D01*
X263896D01*
X261856Y308705D01*
X261535Y308384D01*
X209067D01*
X208361Y309440D01*
X208550Y309896D01*
Y312104D01*
X207705Y314144D01*
X206144Y315705D01*
X204104Y316550D01*
X201896D01*
X200312Y315894D01*
X197800D01*
Y316800D01*
X190571D01*
X190000Y316914D01*
X168000D01*
X167429Y316800D01*
X161200D01*
Y308384D01*
X156000D01*
X154322Y308050D01*
X152900Y307100D01*
X146900Y301100D01*
X145949Y299678D01*
X145616Y298000D01*
Y291465D01*
X145295Y291144D01*
X144450Y289104D01*
Y286896D01*
X145295Y284856D01*
X146856Y283295D01*
X148896Y282450D01*
X151104D01*
X153144Y283295D01*
X154705Y284856D01*
X155550Y286896D01*
Y289104D01*
X154705Y291144D01*
X154384Y291465D01*
Y296184D01*
X157816Y299616D01*
X161200D01*
Y291200D01*
X176800D01*
Y291620D01*
X177896Y292450D01*
X180104D01*
X180930Y292792D01*
X182200Y291944D01*
Y291200D01*
X187616D01*
Y284465D01*
X187295Y284144D01*
X186450Y282104D01*
Y279896D01*
X187295Y277856D01*
X188856Y276295D01*
X190896Y275450D01*
X193104D01*
X195144Y276295D01*
X196705Y277856D01*
X197550Y279896D01*
Y282104D01*
X196705Y284144D01*
X196384Y284465D01*
Y291200D01*
X197800D01*
Y293940D01*
X198056Y294170D01*
X199723Y293961D01*
X199818Y293818D01*
X201737Y292537D01*
X204000Y292086D01*
X237551D01*
X254818Y274818D01*
X254818Y274818D01*
X273086Y256551D01*
Y198449D01*
X252551Y177914D01*
X250559D01*
X250033Y179184D01*
X250705Y179856D01*
X251550Y181896D01*
Y184104D01*
X250705Y186144D01*
X249144Y187705D01*
X247104Y188550D01*
X244896D01*
X242856Y187705D01*
X242535Y187384D01*
X122816D01*
X104384Y205816D01*
Y221535D01*
X104705Y221856D01*
X105550Y223896D01*
Y226104D01*
X104705Y228144D01*
X103144Y229705D01*
X101104Y230550D01*
X98896D01*
X96856Y229705D01*
X95295Y228144D01*
X94450Y226104D01*
Y223896D01*
X95295Y221856D01*
X95616Y221535D01*
Y204000D01*
X95949Y202322D01*
X96900Y200900D01*
X117900Y179900D01*
X119322Y178950D01*
X121000Y178616D01*
X178349D01*
X178535Y178064D01*
X178561Y177346D01*
X176818Y176182D01*
X176818Y176182D01*
X169550Y168914D01*
X112450D01*
X82914Y198449D01*
Y240000D01*
X82464Y242263D01*
X81182Y244182D01*
X79263Y245464D01*
X77000Y245914D01*
X74737Y245464D01*
X72818Y244182D01*
X71536Y242263D01*
X71086Y240000D01*
Y196000D01*
X71086Y196000D01*
X71536Y193737D01*
X72818Y191818D01*
X105818Y158819D01*
X105818Y158818D01*
X107737Y157536D01*
X110000Y157086D01*
X167914D01*
X168737Y156537D01*
X171000Y156086D01*
X173263Y156537D01*
X175182Y157818D01*
X183449Y166086D01*
X225383D01*
X225769Y164816D01*
X224818Y164182D01*
X223536Y162263D01*
X223086Y160000D01*
X223536Y157737D01*
X224818Y155818D01*
X226737Y154537D01*
X229000Y154086D01*
X268000D01*
X268000Y154086D01*
X270263Y154537D01*
X272182Y155818D01*
X315182Y198818D01*
X316464Y200737D01*
X316914Y203000D01*
Y270635D01*
X317150Y271206D01*
Y273414D01*
X316305Y275453D01*
X314744Y277015D01*
X312704Y277859D01*
X311272D01*
X311000Y277914D01*
X310728Y277859D01*
X310496D01*
X310281Y277771D01*
X308737Y277463D01*
X306818Y276182D01*
X305536Y274263D01*
X305086Y272000D01*
Y205450D01*
X265550Y165914D01*
X258617D01*
X258232Y167184D01*
X259182Y167818D01*
X283182Y191818D01*
X284464Y193737D01*
X284914Y196000D01*
X284914Y196000D01*
Y259000D01*
X284914Y259000D01*
X284464Y261263D01*
X283182Y263182D01*
X283181Y263182D01*
X267142Y279221D01*
X311461Y323539D01*
X331681Y343760D01*
X331704D01*
X333744Y344604D01*
X335305Y346166D01*
X336150Y348206D01*
Y350414D01*
X335305Y352453D01*
X334789Y352970D01*
X334461Y353461D01*
X333970Y353789D01*
X333744Y354015D01*
X333448Y354137D01*
X332873Y354521D01*
X332194Y354656D01*
X331704Y354860D01*
X331173D01*
X331000Y354894D01*
D02*
G37*
G36*
X30269Y158040D02*
X24269D01*
X21842Y157720D01*
X19579Y156783D01*
X17637Y155293D01*
X16146Y153350D01*
X15209Y151088D01*
X14889Y148660D01*
X15209Y146232D01*
X16146Y143970D01*
X17637Y142027D01*
X19579Y140536D01*
X21842Y139599D01*
X24269Y139280D01*
X30269D01*
X32697Y139599D01*
X34959Y140536D01*
X36902Y142027D01*
X38393Y143970D01*
X39330Y146232D01*
X39650Y148660D01*
X39330Y151088D01*
X38393Y153350D01*
X36902Y155293D01*
X34959Y156783D01*
X32697Y157720D01*
X30269Y158040D01*
D02*
G37*
G36*
X401104Y148550D02*
X398896D01*
X396856Y147705D01*
X395295Y146144D01*
X394450Y144104D01*
Y141896D01*
X395295Y139856D01*
X395616Y139535D01*
Y134000D01*
X395950Y132322D01*
X396504Y131492D01*
X395518Y130683D01*
X390384Y135816D01*
Y139535D01*
X390705Y139856D01*
X391550Y141896D01*
Y144104D01*
X390705Y146144D01*
X389144Y147705D01*
X387104Y148550D01*
X384896D01*
X382856Y147705D01*
X381295Y146144D01*
X380450Y144104D01*
Y141896D01*
X381295Y139856D01*
X381616Y139535D01*
Y134000D01*
X381950Y132322D01*
X382900Y130900D01*
X393450Y120350D01*
Y119896D01*
X394295Y117856D01*
X395856Y116295D01*
X397896Y115450D01*
X400104D01*
X402144Y116295D01*
X403705Y117856D01*
X404550Y119896D01*
Y120848D01*
X405820Y121437D01*
X406450Y120950D01*
Y120896D01*
X407295Y118856D01*
X408856Y117295D01*
X410896Y116450D01*
X413104D01*
X415144Y117295D01*
X416705Y118856D01*
X417550Y120896D01*
Y123104D01*
X416705Y125144D01*
X415144Y126705D01*
X413104Y127550D01*
X412650D01*
X404384Y135816D01*
Y139535D01*
X404705Y139856D01*
X405550Y141896D01*
Y144104D01*
X404705Y146144D01*
X403144Y147705D01*
X401104Y148550D01*
D02*
G37*
G36*
X73771Y157536D02*
X64771D01*
X62474Y157233D01*
X60333Y156347D01*
X58495Y154936D01*
X57084Y153098D01*
X56197Y150957D01*
X55895Y148660D01*
X56197Y146363D01*
X57084Y144222D01*
X58495Y142384D01*
X60333Y140973D01*
X61891Y140328D01*
X61900Y138949D01*
X61467Y138763D01*
X61241Y138531D01*
X60943Y138405D01*
X59979Y137423D01*
X59858Y137123D01*
X59630Y136893D01*
X59109Y135619D01*
X59111Y135295D01*
X58987Y134996D01*
X58987Y133620D01*
X59111Y133321D01*
X59109Y132998D01*
X59630Y131724D01*
X59858Y131494D01*
X59979Y131194D01*
X60943Y130212D01*
X61241Y130086D01*
X61467Y129854D01*
X62731Y129310D01*
X63054Y129305D01*
X63351Y129176D01*
X64039Y129164D01*
X64054Y129170D01*
X64069Y129164D01*
X64084Y129170D01*
X64099Y129164D01*
X64787Y129176D01*
X65083Y129305D01*
X65407Y129310D01*
X66671Y129853D01*
X66897Y130085D01*
X67195Y130212D01*
X68159Y131194D01*
X68280Y131494D01*
X68508Y131724D01*
X69029Y132997D01*
X69027Y133321D01*
X69151Y133620D01*
X69151Y134996D01*
X69027Y135295D01*
X69029Y135619D01*
X68508Y136892D01*
X68280Y137122D01*
X68159Y137423D01*
X67195Y138404D01*
X66992Y138490D01*
X67263Y139701D01*
X67315Y139784D01*
X73771D01*
X76068Y140086D01*
X78209Y140973D01*
X80047Y142384D01*
X81458Y144222D01*
X82344Y146363D01*
X82647Y148660D01*
X82344Y150957D01*
X81458Y153098D01*
X80047Y154936D01*
X78209Y156347D01*
X76068Y157233D01*
X73771Y157536D01*
D02*
G37*
G36*
X309980Y111750D02*
X298380D01*
Y96150D01*
X309980D01*
Y97450D01*
X312104D01*
X314144Y98295D01*
X315705Y99856D01*
X316550Y101896D01*
Y104104D01*
X315705Y106144D01*
X314144Y107705D01*
X312104Y108550D01*
X309980D01*
Y111750D01*
D02*
G37*
G36*
X63104Y119550D02*
X60896D01*
X58856Y118705D01*
X57295Y117144D01*
X56450Y115104D01*
Y112896D01*
X57295Y110856D01*
X57651Y110500D01*
X57295Y110144D01*
X56450Y108104D01*
Y105896D01*
X57295Y103856D01*
X58856Y102295D01*
X60896Y101450D01*
X63104D01*
X65144Y102295D01*
X66705Y103856D01*
X66899Y104326D01*
X69403D01*
X81114Y92614D01*
X82541Y91660D01*
X84225Y91326D01*
X92101D01*
X92295Y90856D01*
X93856Y89295D01*
X95896Y88450D01*
X98104D01*
X100144Y89295D01*
X101705Y90856D01*
X102550Y92896D01*
Y95104D01*
X101705Y97144D01*
X101349Y97500D01*
X101705Y97856D01*
X102550Y99896D01*
Y102104D01*
X101705Y104144D01*
X100144Y105705D01*
X98104Y106550D01*
X95896D01*
X93856Y105705D01*
X92295Y104144D01*
X92101Y103674D01*
X87518D01*
X75806Y115386D01*
X74379Y116340D01*
X72695Y116674D01*
X66899D01*
X66705Y117144D01*
X65144Y118705D01*
X63104Y119550D01*
D02*
G37*
G36*
X64099Y81653D02*
X64069Y81641D01*
X64040Y81653D01*
X63352Y81640D01*
X63055Y81511D01*
X62731Y81507D01*
X61467Y80963D01*
X61241Y80731D01*
X60943Y80604D01*
X59979Y79623D01*
X59858Y79322D01*
X59630Y79093D01*
X59109Y77819D01*
X59111Y77495D01*
X58987Y77196D01*
X58987Y75820D01*
X59111Y75521D01*
X59109Y75198D01*
X59630Y73924D01*
X59858Y73694D01*
X59979Y73394D01*
X60943Y72412D01*
X61241Y72285D01*
X61467Y72053D01*
X61896Y71869D01*
X61886Y70490D01*
X60333Y69847D01*
X58495Y68436D01*
X57084Y66598D01*
X56197Y64457D01*
X55895Y62160D01*
X56197Y59863D01*
X57084Y57722D01*
X58495Y55884D01*
X60333Y54473D01*
X62474Y53587D01*
X64771Y53284D01*
X73771D01*
X76068Y53587D01*
X78209Y54473D01*
X80047Y55884D01*
X81458Y57722D01*
X82344Y59863D01*
X82647Y62160D01*
X82344Y64457D01*
X81458Y66598D01*
X80047Y68436D01*
X78209Y69847D01*
X76068Y70734D01*
X73771Y71036D01*
X67318D01*
X67268Y71115D01*
X66939Y72303D01*
X67195Y72412D01*
X68159Y73394D01*
X68280Y73694D01*
X68508Y73924D01*
X69029Y75197D01*
X69027Y75521D01*
X69151Y75820D01*
X69151Y77196D01*
X69027Y77495D01*
X69029Y77819D01*
X68508Y79092D01*
X68280Y79322D01*
X68159Y79622D01*
X67195Y80604D01*
X66897Y80731D01*
X66671Y80963D01*
X65407Y81507D01*
X65084Y81511D01*
X64787Y81640D01*
X64099Y81653D01*
D02*
G37*
G36*
X309980Y81270D02*
X298380D01*
Y65670D01*
X304707D01*
X305180Y65576D01*
X307575D01*
X307856Y65295D01*
X309896Y64450D01*
X312104D01*
X314144Y65295D01*
X315705Y66856D01*
X316550Y68896D01*
Y71104D01*
X315705Y73144D01*
X314144Y74705D01*
X312104Y75550D01*
X309980D01*
Y81270D01*
D02*
G37*
G36*
X295980D02*
X284380D01*
Y68229D01*
X284295Y68144D01*
X283450Y66104D01*
Y63896D01*
X284295Y61856D01*
X285856Y60295D01*
X287896Y59450D01*
X290104D01*
X292144Y60295D01*
X293705Y61856D01*
X294550Y63896D01*
Y65670D01*
X295980D01*
Y81270D01*
D02*
G37*
G36*
X30269Y71540D02*
X24269D01*
X21842Y71221D01*
X19579Y70284D01*
X17637Y68793D01*
X16146Y66850D01*
X15209Y64588D01*
X14889Y62160D01*
X15209Y59732D01*
X16146Y57470D01*
X17637Y55527D01*
X19579Y54037D01*
X21842Y53100D01*
X24269Y52780D01*
X30269D01*
X32697Y53100D01*
X34959Y54037D01*
X36902Y55527D01*
X38393Y57470D01*
X39330Y59732D01*
X39650Y62160D01*
X39330Y64588D01*
X38393Y66850D01*
X36902Y68793D01*
X34959Y70284D01*
X32697Y71221D01*
X30269Y71540D01*
D02*
G37*
G36*
X254605Y25666D02*
X252915D01*
X252612Y25540D01*
X252285D01*
X250723Y24893D01*
X250492Y24662D01*
X250189Y24537D01*
X248994Y23341D01*
X248868Y23039D01*
X248637Y22807D01*
X247990Y21245D01*
Y20918D01*
X247865Y20616D01*
Y18925D01*
X247990Y18623D01*
Y18295D01*
X248637Y16733D01*
X248868Y16502D01*
X248994Y16200D01*
X250189Y15004D01*
X250492Y14879D01*
X250723Y14647D01*
X252285Y14000D01*
X252612D01*
X252915Y13875D01*
X254605D01*
X254908Y14000D01*
X255235D01*
X256797Y14647D01*
X257028Y14879D01*
X257331Y15004D01*
X258526Y16200D01*
X258652Y16502D01*
X258883Y16733D01*
X259530Y18295D01*
Y18623D01*
X259655Y18925D01*
Y20616D01*
X259530Y20918D01*
Y21245D01*
X258883Y22807D01*
X258652Y23039D01*
X258526Y23341D01*
X257331Y24537D01*
X257028Y24662D01*
X256797Y24893D01*
X255235Y25540D01*
X254908D01*
X254605Y25666D01*
D02*
G37*
G36*
X224605D02*
X222915D01*
X222612Y25540D01*
X222285D01*
X220723Y24893D01*
X220492Y24662D01*
X220189Y24537D01*
X218994Y23341D01*
X218869Y23039D01*
X218637Y22807D01*
X217990Y21245D01*
Y20918D01*
X217865Y20616D01*
Y18925D01*
X217990Y18623D01*
Y18295D01*
X218637Y16733D01*
X218869Y16502D01*
X218994Y16200D01*
X220189Y15004D01*
X220492Y14879D01*
X220723Y14647D01*
X222285Y14000D01*
X222612D01*
X222915Y13875D01*
X224605D01*
X224908Y14000D01*
X225235D01*
X226797Y14647D01*
X227029Y14879D01*
X227331Y15004D01*
X228526Y16200D01*
X228652Y16502D01*
X228883Y16733D01*
X229530Y18295D01*
Y18623D01*
X229655Y18925D01*
Y20616D01*
X229530Y20918D01*
Y21245D01*
X228883Y22807D01*
X228652Y23039D01*
X228526Y23341D01*
X227331Y24537D01*
X227028Y24662D01*
X226797Y24893D01*
X225235Y25540D01*
X224908D01*
X224605Y25666D01*
D02*
G37*
G36*
X346230Y30340D02*
X326550D01*
Y10660D01*
X346230D01*
Y30340D01*
D02*
G37*
G36*
X456500Y41881D02*
X378500D01*
X375207Y41557D01*
X372040Y40596D01*
X369121Y39036D01*
X366563Y36937D01*
X364464Y34379D01*
X362904Y31460D01*
X361943Y28293D01*
X361619Y25000D01*
X361943Y21707D01*
X362904Y18540D01*
X364464Y15621D01*
X366563Y13063D01*
X369121Y10964D01*
X372040Y9404D01*
X375207Y8443D01*
X378500Y8119D01*
X456500D01*
X459793Y8443D01*
X462960Y9404D01*
X465879Y10964D01*
X468437Y13063D01*
X470536Y15621D01*
X472096Y18540D01*
X473057Y21707D01*
X473381Y25000D01*
X473057Y28293D01*
X472096Y31460D01*
X470536Y34379D01*
X468437Y36937D01*
X465879Y39036D01*
X462960Y40596D01*
X459793Y41557D01*
X456500Y41881D01*
D02*
G37*
G36*
X169000D02*
X91000D01*
X87707Y41557D01*
X84540Y40596D01*
X81621Y39036D01*
X79063Y36937D01*
X76964Y34379D01*
X75404Y31460D01*
X74443Y28293D01*
X74119Y25000D01*
X74443Y21707D01*
X75404Y18540D01*
X76964Y15621D01*
X79063Y13063D01*
X81621Y10964D01*
X84540Y9404D01*
X87707Y8443D01*
X91000Y8119D01*
X169000D01*
X172293Y8443D01*
X175460Y9404D01*
X178379Y10964D01*
X180937Y13063D01*
X183036Y15621D01*
X184596Y18540D01*
X185557Y21707D01*
X185881Y25000D01*
X185557Y28293D01*
X184596Y31460D01*
X183036Y34379D01*
X180937Y36937D01*
X178379Y39036D01*
X175460Y40596D01*
X172293Y41557D01*
X169000Y41881D01*
D02*
G37*
%LPD*%
G36*
X330372Y347071D02*
X330332Y347065D01*
X330275Y347039D01*
X330204Y346994D01*
X330116Y346930D01*
X329893Y346743D01*
X329442Y346319D01*
X329260Y346138D01*
X327402Y348523D01*
X328357Y349492D01*
X330372Y347071D01*
D02*
G37*
G36*
X295634Y328561D02*
X295687Y328548D01*
X295765Y328537D01*
X295999Y328519D01*
X296770Y328501D01*
X297027Y328500D01*
Y325500D01*
X295607Y325425D01*
Y328575D01*
X295634Y328561D01*
D02*
G37*
G36*
X309061Y325939D02*
X302257Y323379D01*
X302630Y323782D01*
X302901Y324142D01*
X303069Y324461D01*
X303135Y324736D01*
X303098Y324970D01*
X302959Y325161D01*
X302718Y325309D01*
X302374Y325415D01*
X301928Y325479D01*
X301379Y325500D01*
X304379Y328500D01*
X304970Y328521D01*
X305543Y328585D01*
X306100Y328691D01*
X306638Y328839D01*
X307159Y329030D01*
X307662Y329264D01*
X308148Y329539D01*
X308616Y329858D01*
X309067Y330218D01*
X309500Y330621D01*
X309061Y325939D01*
D02*
G37*
G36*
X201393Y309425D02*
X201366Y309439D01*
X201313Y309452D01*
X201234Y309463D01*
X201001Y309481D01*
X200230Y309499D01*
X199973Y309500D01*
Y312500D01*
X201393Y312575D01*
Y309425D01*
D02*
G37*
G36*
X191868Y312718D02*
X192062Y312672D01*
X192351Y312632D01*
X193210Y312567D01*
X197000Y312500D01*
Y309500D01*
X191767Y309231D01*
Y312769D01*
X191868Y312718D01*
D02*
G37*
G36*
X263393Y302425D02*
X263274Y302534D01*
X263143Y302632D01*
X262998Y302718D01*
X262841Y302793D01*
X262672Y302856D01*
X262489Y302908D01*
X262295Y302948D01*
X262087Y302977D01*
X261867Y302994D01*
X261635Y303000D01*
Y305000D01*
X261867Y305006D01*
X262087Y305023D01*
X262295Y305052D01*
X262489Y305092D01*
X262672Y305144D01*
X262841Y305207D01*
X262998Y305282D01*
X263143Y305368D01*
X263274Y305466D01*
X263393Y305575D01*
Y302425D01*
D02*
G37*
G36*
X178215Y295891D02*
X178137Y295912D01*
X178018Y295930D01*
X177662Y295961D01*
X176470Y295996D01*
X175634Y296000D01*
X175400Y298000D01*
X175637Y298007D01*
X175853Y298028D01*
X176050Y298063D01*
X176226Y298111D01*
X176382Y298174D01*
X176518Y298251D01*
X176634Y298341D01*
X176730Y298446D01*
X176805Y298564D01*
X176861Y298697D01*
X178215Y295891D01*
D02*
G37*
G36*
X151006Y291133D02*
X151023Y290913D01*
X151052Y290705D01*
X151092Y290511D01*
X151144Y290328D01*
X151207Y290159D01*
X151282Y290002D01*
X151368Y289858D01*
X151466Y289726D01*
X151575Y289607D01*
X148425D01*
X148534Y289726D01*
X148632Y289858D01*
X148718Y290002D01*
X148793Y290159D01*
X148856Y290328D01*
X148908Y290511D01*
X148948Y290705D01*
X148977Y290913D01*
X148994Y291133D01*
X149000Y291366D01*
X151000D01*
X151006Y291133D01*
D02*
G37*
G36*
X193006Y284133D02*
X193023Y283913D01*
X193052Y283705D01*
X193092Y283510D01*
X193144Y283328D01*
X193207Y283159D01*
X193282Y283002D01*
X193368Y282857D01*
X193466Y282726D01*
X193575Y282607D01*
X190425D01*
X190534Y282726D01*
X190632Y282857D01*
X190718Y283002D01*
X190793Y283159D01*
X190856Y283328D01*
X190908Y283510D01*
X190948Y283705D01*
X190977Y283913D01*
X190994Y284133D01*
X191000Y284366D01*
X193000D01*
X193006Y284133D01*
D02*
G37*
G36*
X101466Y223274D02*
X101368Y223143D01*
X101282Y222998D01*
X101207Y222841D01*
X101144Y222672D01*
X101092Y222489D01*
X101052Y222295D01*
X101023Y222087D01*
X101006Y221867D01*
X101000Y221635D01*
X99000D01*
X98994Y221867D01*
X98977Y222087D01*
X98948Y222295D01*
X98908Y222489D01*
X98856Y222672D01*
X98793Y222841D01*
X98718Y222998D01*
X98632Y223143D01*
X98534Y223274D01*
X98425Y223393D01*
X101575D01*
X101466Y223274D01*
D02*
G37*
G36*
X244393Y181425D02*
X244274Y181534D01*
X244142Y181632D01*
X243998Y181718D01*
X243841Y181793D01*
X243672Y181856D01*
X243489Y181908D01*
X243295Y181948D01*
X243087Y181977D01*
X242867Y181994D01*
X242634Y182000D01*
Y184000D01*
X242867Y184006D01*
X243087Y184023D01*
X243295Y184052D01*
X243489Y184092D01*
X243672Y184144D01*
X243841Y184207D01*
X243998Y184282D01*
X244142Y184368D01*
X244274Y184466D01*
X244393Y184575D01*
Y181425D01*
D02*
G37*
G36*
X401466Y141274D02*
X401368Y141143D01*
X401282Y140998D01*
X401207Y140841D01*
X401144Y140672D01*
X401092Y140490D01*
X401052Y140295D01*
X401023Y140087D01*
X401006Y139867D01*
X401000Y139634D01*
X399000D01*
X398994Y139867D01*
X398977Y140087D01*
X398948Y140295D01*
X398908Y140490D01*
X398856Y140672D01*
X398793Y140841D01*
X398718Y140998D01*
X398632Y141143D01*
X398534Y141274D01*
X398425Y141393D01*
X401575D01*
X401466Y141274D01*
D02*
G37*
G36*
X387466D02*
X387368Y141143D01*
X387282Y140998D01*
X387207Y140841D01*
X387144Y140672D01*
X387092Y140490D01*
X387052Y140295D01*
X387023Y140087D01*
X387006Y139867D01*
X387000Y139634D01*
X385000D01*
X384994Y139867D01*
X384977Y140087D01*
X384948Y140295D01*
X384908Y140490D01*
X384856Y140672D01*
X384793Y140841D01*
X384718Y140998D01*
X384632Y141143D01*
X384534Y141274D01*
X384425Y141393D01*
X387575D01*
X387466Y141274D01*
D02*
G37*
G36*
X410496Y124926D02*
X410664Y124783D01*
X410831Y124657D01*
X410997Y124547D01*
X411162Y124455D01*
X411327Y124380D01*
X411491Y124322D01*
X411654Y124281D01*
X411816Y124257D01*
X411978Y124250D01*
X409750Y122022D01*
X409743Y122184D01*
X409719Y122346D01*
X409678Y122509D01*
X409620Y122673D01*
X409545Y122838D01*
X409453Y123003D01*
X409343Y123169D01*
X409217Y123336D01*
X409074Y123504D01*
X408913Y123673D01*
X410327Y125087D01*
X410496Y124926D01*
D02*
G37*
G36*
X397496Y123926D02*
X397664Y123783D01*
X397831Y123657D01*
X397997Y123547D01*
X398162Y123455D01*
X398327Y123380D01*
X398491Y123322D01*
X398654Y123281D01*
X398816Y123257D01*
X398978Y123250D01*
X396750Y121023D01*
X396743Y121184D01*
X396719Y121346D01*
X396678Y121509D01*
X396620Y121673D01*
X396545Y121838D01*
X396453Y122003D01*
X396343Y122169D01*
X396217Y122336D01*
X396074Y122504D01*
X395913Y122673D01*
X397327Y124087D01*
X397496Y123926D01*
D02*
G37*
G36*
X309393Y101425D02*
X309366Y101439D01*
X309313Y101452D01*
X309235Y101463D01*
X309001Y101481D01*
X308230Y101499D01*
X307973Y101500D01*
Y104500D01*
X309393Y104575D01*
Y101425D01*
D02*
G37*
G36*
X309758Y71876D02*
X309100Y68795D01*
X309065Y68829D01*
X309006Y68858D01*
X308923Y68884D01*
X308815Y68907D01*
X308682Y68926D01*
X308343Y68954D01*
X307650Y68970D01*
X308563Y71970D01*
X309758Y71876D01*
D02*
G37*
G36*
X290787Y67717D02*
X290767Y66393D01*
X287643Y66795D01*
X287670Y66829D01*
X287695Y66887D01*
X287716Y66971D01*
X287735Y67079D01*
X287751Y67212D01*
X287781Y67758D01*
X287787Y68245D01*
X290787Y67717D01*
D02*
G37*
D10*
X100000Y204000D02*
Y225000D01*
X121000Y183000D02*
X246000D01*
X100000Y204000D02*
X121000Y183000D01*
X156000Y304000D02*
X265000D01*
X150000Y298000D02*
X156000Y304000D01*
X150000Y288000D02*
Y298000D01*
X190000Y297000D02*
X190500D01*
X192000Y295500D01*
Y281000D02*
Y295500D01*
X177323Y297000D02*
X178323Y298000D01*
X179000D01*
X168000Y297000D02*
X177323D01*
X400000Y134000D02*
Y143000D01*
Y134000D02*
X412000Y122000D01*
X386000Y134000D02*
Y143000D01*
Y134000D02*
X399000Y121000D01*
D12*
X308000Y327000D02*
X331000Y350000D01*
X260000Y279000D02*
X308000Y327000D01*
X259000Y279000D02*
X260000D01*
X294000Y327000D02*
X308000D01*
X190000Y311000D02*
X203000D01*
X289287Y72577D02*
X290180Y73470D01*
X289287Y65287D02*
Y72577D01*
X289000Y65000D02*
X289287Y65287D01*
X305180Y70470D02*
X310124D01*
X310594Y70000D01*
X304180Y71470D02*
Y73470D01*
Y71470D02*
X305180Y70470D01*
X310594Y70000D02*
X311000D01*
X305130Y103000D02*
X311000D01*
X304180Y103950D02*
X305130Y103000D01*
D19*
X62000Y114000D02*
X62668D01*
X64393Y112275D02*
X72695D01*
X62668Y114000D02*
X64393Y112275D01*
X72695D02*
X85695Y99275D01*
X94607D01*
X62668Y107000D02*
X64393Y108725D01*
X71225D01*
X62000Y107000D02*
X62668D01*
X94607Y99275D02*
X96332Y101000D01*
X97000D01*
X96332Y94000D02*
X97000D01*
X84225Y95725D02*
X94607D01*
X96332Y94000D01*
X71225Y108725D02*
X84225Y95725D01*
D22*
X0Y0D02*
X500000D01*
X0Y400000D02*
X500000D01*
Y0D02*
Y400000D01*
X0Y0D02*
Y400000D01*
D28*
X304180Y73470D02*
D03*
X290180D02*
D03*
Y103950D02*
D03*
X304180D02*
D03*
D29*
X169000Y297000D02*
D03*
Y311000D02*
D03*
X190000D02*
D03*
Y297000D02*
D03*
D92*
X259000Y279000D02*
X279000Y259000D01*
X240000Y298000D02*
X259000Y279000D01*
X204000Y298000D02*
X240000D01*
X311000Y203000D02*
Y272000D01*
X268000Y160000D02*
X311000Y203000D01*
X229000Y160000D02*
X268000D01*
X110000Y163000D02*
X170000D01*
X279000Y196000D02*
Y259000D01*
X255000Y172000D02*
X279000Y196000D01*
X181000Y172000D02*
X255000D01*
X171000Y162000D02*
X181000Y172000D01*
X170000Y163000D02*
X171000Y162000D01*
X77000Y196000D02*
X110000Y163000D01*
X77000Y196000D02*
Y240000D01*
X168000Y311000D02*
X190000D01*
D95*
X316390Y20500D02*
D03*
D96*
X336390D02*
D03*
D97*
X130000Y375000D02*
D03*
Y25000D02*
D03*
X417500Y375000D02*
D03*
Y25000D02*
D03*
D98*
X27269Y62160D02*
D03*
Y148660D02*
D03*
D99*
X69271Y62160D02*
D03*
Y148660D02*
D03*
D100*
X116000Y276000D02*
D03*
X77000Y321000D02*
D03*
X82000Y293000D02*
D03*
X38000Y253000D02*
D03*
X21000Y241000D02*
D03*
X22000Y254000D02*
D03*
X8000Y268000D02*
D03*
X7000Y298000D02*
D03*
X26000Y301000D02*
D03*
X27000Y187000D02*
D03*
X8000Y206000D02*
D03*
X23000Y218000D02*
D03*
X9000Y228000D02*
D03*
X6000Y310000D02*
D03*
X35000Y280000D02*
D03*
X100000Y225000D02*
D03*
X161000Y291000D02*
D03*
X105000Y277000D02*
D03*
X62000D02*
D03*
X91000D02*
D03*
X76000D02*
D03*
X229000Y342000D02*
D03*
X62000Y264000D02*
D03*
X63000Y293000D02*
D03*
X39000Y324000D02*
D03*
X121000Y192000D02*
D03*
X197000Y82000D02*
D03*
X447000Y326000D02*
D03*
X388000Y331000D02*
D03*
X207000Y378000D02*
D03*
X485000Y143000D02*
D03*
X474000Y110000D02*
D03*
X359000Y160000D02*
D03*
X291000Y135000D02*
D03*
X203000Y229000D02*
D03*
X118000Y201000D02*
D03*
X146000Y62000D02*
D03*
X203600Y298310D02*
D03*
X203000Y332000D02*
D03*
X178000Y327000D02*
D03*
X311600Y272310D02*
D03*
X323000Y215000D02*
D03*
X229000Y160000D02*
D03*
X246000Y183000D02*
D03*
X330600Y349310D02*
D03*
X294000Y327000D02*
D03*
X148000Y343000D02*
D03*
X86000Y331000D02*
D03*
X81000Y309000D02*
D03*
X112000Y340000D02*
D03*
X92000Y348000D02*
D03*
X373000Y300000D02*
D03*
X126180Y163180D02*
D03*
X77000Y240000D02*
D03*
X171000Y162000D02*
D03*
X297000Y375000D02*
D03*
X227000Y311000D02*
D03*
X273000Y338000D02*
D03*
X254000Y324000D02*
D03*
X203000Y311000D02*
D03*
X339000Y180000D02*
D03*
X395000Y67000D02*
D03*
X289000Y52000D02*
D03*
X210000Y122000D02*
D03*
X193000Y152000D02*
D03*
X192000Y139000D02*
D03*
X249000Y138000D02*
D03*
X214000Y154000D02*
D03*
X149600Y261310D02*
D03*
X149000Y223000D02*
D03*
X13000Y192000D02*
D03*
X8000Y255000D02*
D03*
X7000Y241000D02*
D03*
X39000D02*
D03*
X36000Y223000D02*
D03*
X32000Y199000D02*
D03*
Y172000D02*
D03*
X45000Y293000D02*
D03*
X63000Y309000D02*
D03*
X442000Y141000D02*
D03*
X489000Y130000D02*
D03*
X470000Y144000D02*
D03*
X356000Y294000D02*
D03*
X427000Y336000D02*
D03*
X476000Y338000D02*
D03*
X275000Y102000D02*
D03*
X240000Y56000D02*
D03*
X254000Y72000D02*
D03*
X252858Y80626D02*
D03*
X215000Y81000D02*
D03*
X203000Y60000D02*
D03*
X212000Y71000D02*
D03*
X85000Y70000D02*
D03*
X141000Y88000D02*
D03*
X135000Y133000D02*
D03*
X97000Y94000D02*
D03*
Y101000D02*
D03*
X62000Y114000D02*
D03*
Y107000D02*
D03*
X289000Y65000D02*
D03*
X311000Y103000D02*
D03*
Y70000D02*
D03*
X95000Y156000D02*
D03*
X220000Y208000D02*
D03*
X115000Y311000D02*
D03*
X158000Y327000D02*
D03*
X265000Y304000D02*
D03*
X150000Y288000D02*
D03*
X179000Y298000D02*
D03*
X192000Y281000D02*
D03*
X412000Y122000D02*
D03*
X399000Y121000D02*
D03*
X400000Y143000D02*
D03*
X386000D02*
D03*
X48000Y277000D02*
D03*
X97000Y264000D02*
D03*
X86000D02*
D03*
X49000D02*
D03*
X74000D02*
D03*
X9000Y287000D02*
D03*
X5000Y329000D02*
D03*
X163000Y231000D02*
D03*
X31000Y329000D02*
D03*
X27000Y314000D02*
D03*
X52000Y329000D02*
D03*
X70000Y331000D02*
D03*
X71000Y348000D02*
D03*
X136000Y254000D02*
D03*
X71000Y364000D02*
D03*
X137000Y232000D02*
D03*
X71000Y379000D02*
D03*
X164000Y254000D02*
D03*
X71000Y395000D02*
D03*
X44000Y310000D02*
D03*
X27000Y289000D02*
D03*
X15000Y277000D02*
D03*
X149260Y242630D02*
D03*
X25000Y268000D02*
D03*
X37000Y264000D02*
D03*
M02*
