G04*
G04 #@! TF.GenerationSoftware,Altium Limited,Altium Designer,21.6.4 (81)*
G04*
G04 Layer_Physical_Order=1*
G04 Layer_Color=255*
%FSLAX44Y44*%
%MOMM*%
G71*
G04*
G04 #@! TF.SameCoordinates,ED844FB0-3762-473F-B395-F2E91FE73C6E*
G04*
G04*
G04 #@! TF.FilePolarity,Positive*
G04*
G01*
G75*
%ADD10C,0.2000*%
%ADD12C,0.3000*%
%ADD14C,0.2540*%
%ADD19C,0.2030*%
%ADD22C,0.1000*%
G04:AMPARAMS|DCode=24|XSize=0.5mm|YSize=0.6mm|CornerRadius=0.0625mm|HoleSize=0mm|Usage=FLASHONLY|Rotation=90.000|XOffset=0mm|YOffset=0mm|HoleType=Round|Shape=RoundedRectangle|*
%AMROUNDEDRECTD24*
21,1,0.5000,0.4750,0,0,90.0*
21,1,0.3750,0.6000,0,0,90.0*
1,1,0.1250,0.2375,0.1875*
1,1,0.1250,0.2375,-0.1875*
1,1,0.1250,-0.2375,-0.1875*
1,1,0.1250,-0.2375,0.1875*
%
%ADD24ROUNDEDRECTD24*%
%ADD25R,0.2200X0.8400*%
%ADD26R,0.8400X0.2200*%
%ADD27R,0.4500X0.8500*%
%ADD28R,0.5000X0.9000*%
%ADD29R,0.9000X0.5000*%
G04:AMPARAMS|DCode=30|XSize=0.5mm|YSize=0.6mm|CornerRadius=0.0625mm|HoleSize=0mm|Usage=FLASHONLY|Rotation=0.000|XOffset=0mm|YOffset=0mm|HoleType=Round|Shape=RoundedRectangle|*
%AMROUNDEDRECTD30*
21,1,0.5000,0.4750,0,0,0.0*
21,1,0.3750,0.6000,0,0,0.0*
1,1,0.1250,0.1875,-0.2375*
1,1,0.1250,-0.1875,-0.2375*
1,1,0.1250,-0.1875,0.2375*
1,1,0.1250,0.1875,0.2375*
%
%ADD30ROUNDEDRECTD30*%
%ADD31R,1.6000X0.8000*%
%ADD32R,0.7000X1.0000*%
%ADD33R,0.7000X1.0000*%
%ADD34R,1.0000X0.7000*%
%ADD35R,1.0000X0.7000*%
%ADD36R,0.5588X1.2700*%
%ADD37R,1.0000X2.4500*%
%ADD38R,2.4500X1.0000*%
%ADD39R,1.3000X1.0000*%
G04:AMPARAMS|DCode=40|XSize=0.6mm|YSize=1.35mm|CornerRadius=0.045mm|HoleSize=0mm|Usage=FLASHONLY|Rotation=0.000|XOffset=0mm|YOffset=0mm|HoleType=Round|Shape=RoundedRectangle|*
%AMROUNDEDRECTD40*
21,1,0.6000,1.2600,0,0,0.0*
21,1,0.5100,1.3500,0,0,0.0*
1,1,0.0900,0.2550,-0.6300*
1,1,0.0900,-0.2550,-0.6300*
1,1,0.0900,-0.2550,0.6300*
1,1,0.0900,0.2550,0.6300*
%
%ADD40ROUNDEDRECTD40*%
%ADD41R,1.1000X0.9300*%
%ADD42R,0.9000X2.0000*%
%ADD43R,1.1000X1.9000*%
%ADD44R,0.8000X1.7000*%
%ADD45R,1.0000X1.3000*%
%ADD46R,0.3000X0.5250*%
%ADD47R,0.4250X0.3000*%
%ADD48R,0.5000X0.6000*%
%ADD49R,0.7000X0.7500*%
G04:AMPARAMS|DCode=50|XSize=0.5mm|YSize=0.6mm|CornerRadius=0.035mm|HoleSize=0mm|Usage=FLASHONLY|Rotation=90.000|XOffset=0mm|YOffset=0mm|HoleType=Round|Shape=RoundedRectangle|*
%AMROUNDEDRECTD50*
21,1,0.5000,0.5300,0,0,90.0*
21,1,0.4300,0.6000,0,0,90.0*
1,1,0.0700,0.2650,0.2150*
1,1,0.0700,0.2650,-0.2150*
1,1,0.0700,-0.2650,-0.2150*
1,1,0.0700,-0.2650,0.2150*
%
%ADD50ROUNDEDRECTD50*%
G04:AMPARAMS|DCode=51|XSize=0.5mm|YSize=0.6mm|CornerRadius=0.035mm|HoleSize=0mm|Usage=FLASHONLY|Rotation=180.000|XOffset=0mm|YOffset=0mm|HoleType=Round|Shape=RoundedRectangle|*
%AMROUNDEDRECTD51*
21,1,0.5000,0.5300,0,0,180.0*
21,1,0.4300,0.6000,0,0,180.0*
1,1,0.0700,-0.2150,0.2650*
1,1,0.0700,0.2150,0.2650*
1,1,0.0700,0.2150,-0.2650*
1,1,0.0700,-0.2150,-0.2650*
%
%ADD51ROUNDEDRECTD51*%
%ADD88C,0.2939*%
%ADD89R,5.7000X5.7000*%
%ADD90R,1.1000X0.5500*%
%ADD91R,1.1000X0.3000*%
%ADD92C,0.5000*%
%ADD93C,1.0000*%
%ADD94R,0.4060X0.2939*%
%ADD95C,1.3080*%
%ADD96R,1.3080X1.3080*%
%ADD97O,10.5000X2.7000*%
%ADD98O,1.8000X1.2000*%
%ADD99O,2.0000X1.1000*%
%ADD100C,0.4500*%
G36*
X499000Y1000D02*
X285560D01*
Y16369D01*
X268000D01*
Y23169D01*
X285560D01*
Y39069D01*
X269058D01*
Y51534D01*
X258556D01*
X258070Y52707D01*
X288977Y83614D01*
X290150Y83127D01*
Y77913D01*
X290056Y77440D01*
Y72977D01*
X287440Y70361D01*
X285856Y69705D01*
X284295Y68144D01*
X283450Y66104D01*
Y63896D01*
X284295Y61856D01*
X285856Y60295D01*
X287896Y59450D01*
X290104D01*
X292144Y60295D01*
X293705Y61856D01*
X294361Y63440D01*
X298411Y67489D01*
X299471Y69077D01*
X299844Y70950D01*
Y72640D01*
X304943D01*
X305649Y71584D01*
X305450Y71104D01*
Y68896D01*
X306295Y66856D01*
X307856Y65295D01*
X309896Y64450D01*
X312104D01*
X314144Y65295D01*
X314151Y65302D01*
X318308D01*
X318781Y65396D01*
X325696D01*
Y84696D01*
X313508D01*
Y76343D01*
X312238Y75494D01*
X312104Y75550D01*
X309896D01*
X308020Y74773D01*
X306750Y75258D01*
Y85000D01*
X307000D01*
Y90000D01*
X306750D01*
Y97742D01*
X308020Y98227D01*
X309896Y97450D01*
X312104D01*
X312452Y97594D01*
X313508Y96889D01*
Y91304D01*
X325696D01*
Y107190D01*
X326869Y107676D01*
X332304Y102241D01*
Y91304D01*
X344492D01*
Y95040D01*
X346596D01*
X350198Y91438D01*
Y83202D01*
X369798D01*
Y88086D01*
X379000D01*
X379571Y88200D01*
X386800D01*
Y99800D01*
X379571D01*
X379000Y99914D01*
X362497D01*
X362497Y99914D01*
X361933Y99802D01*
X358562D01*
X353227Y105136D01*
X351309Y106418D01*
X349046Y106868D01*
X349046Y106868D01*
X344492D01*
Y110604D01*
X345116Y111616D01*
X449000D01*
X450678Y111950D01*
X452100Y112900D01*
X459100Y119900D01*
X459100Y119900D01*
X463316Y124116D01*
X465500D01*
X465924Y124200D01*
X472800D01*
Y139800D01*
X461200D01*
X460384Y140732D01*
Y145450D01*
X464300D01*
Y176550D01*
X447700D01*
Y145450D01*
X451616D01*
Y124816D01*
X447184Y120384D01*
X417892D01*
X417550Y120896D01*
Y123104D01*
X416705Y125144D01*
X416406Y125442D01*
X416893Y126616D01*
X421000D01*
X422678Y126950D01*
X424100Y127900D01*
X431100Y134900D01*
X432051Y136322D01*
X432384Y138000D01*
Y145450D01*
X436300D01*
Y176550D01*
X377700D01*
Y145450D01*
X379865D01*
X380570Y144394D01*
X380450Y144104D01*
Y141896D01*
X380639Y141440D01*
X379933Y140384D01*
X361816D01*
X232758Y269442D01*
X233244Y270616D01*
X287000D01*
X288678Y270949D01*
X290100Y271900D01*
X355816Y337616D01*
X447184D01*
X451616Y333184D01*
Y304550D01*
X422372D01*
Y309086D01*
X427000D01*
X427000Y309086D01*
X427000Y309086D01*
X429000D01*
X429571Y309200D01*
X436800D01*
Y320800D01*
X429571D01*
X429000Y320914D01*
X427000D01*
X427000Y320914D01*
X416584D01*
X416167Y321086D01*
X414000Y321372D01*
X411833Y321086D01*
X411416Y320914D01*
X354000D01*
X354000Y320914D01*
X351737Y320463D01*
X349818Y319182D01*
X349818Y319181D01*
X327288Y296652D01*
X326007Y294733D01*
X325556Y292470D01*
X325556Y292470D01*
Y278960D01*
X323170D01*
Y278223D01*
X311600D01*
X309337Y277773D01*
X307418Y276491D01*
X306136Y274573D01*
X305686Y272310D01*
X306136Y270047D01*
X307418Y268128D01*
X309337Y266846D01*
X311600Y266396D01*
X323170D01*
Y265360D01*
X339770D01*
Y278960D01*
X337384D01*
Y290021D01*
X356450Y309086D01*
X405628D01*
Y304550D01*
X391700D01*
Y289544D01*
X391628Y289000D01*
X391700Y288456D01*
Y273450D01*
X492300D01*
Y304550D01*
X488894D01*
Y309130D01*
X494210D01*
Y320730D01*
X478610D01*
Y309130D01*
X479106D01*
Y304550D01*
X474894D01*
Y309130D01*
X475160D01*
Y320730D01*
X460384D01*
Y335000D01*
X460051Y336678D01*
X459100Y338100D01*
X452100Y345100D01*
X450678Y346050D01*
X449000Y346384D01*
X354000D01*
X352322Y346050D01*
X350900Y345100D01*
X312558Y306758D01*
X311384Y307244D01*
Y335000D01*
X311050Y336678D01*
X310100Y338100D01*
X300100Y348100D01*
X298678Y349050D01*
X297000Y349384D01*
X288920D01*
Y351750D01*
X259746D01*
X259150Y352949D01*
X265152Y358951D01*
X266102Y360374D01*
X266143Y360580D01*
X274030D01*
X274030Y360580D01*
Y360580D01*
X275300Y360897D01*
X275494Y360768D01*
X277025Y360463D01*
X281775D01*
X283306Y360768D01*
X284605Y361635D01*
X285472Y362934D01*
X285777Y364465D01*
Y368215D01*
X285472Y369747D01*
X284605Y371045D01*
X283306Y371912D01*
X281775Y372217D01*
X277025D01*
X275494Y371912D01*
X275300Y371783D01*
X274030Y372462D01*
Y386180D01*
X256430D01*
Y362630D01*
X252000Y358200D01*
X249030Y361170D01*
Y386180D01*
X231430D01*
Y372134D01*
X230160Y371221D01*
X229375Y371377D01*
X225625D01*
X224094Y371072D01*
X222795Y370205D01*
X221928Y368907D01*
X221623Y367375D01*
Y362625D01*
X221928Y361094D01*
X222795Y359795D01*
X223209Y359519D01*
X223334Y358255D01*
X220973Y355894D01*
X110000D01*
X108127Y355522D01*
X106539Y354461D01*
X92539Y340461D01*
X91479Y338873D01*
X91106Y337000D01*
Y297000D01*
X91479Y295127D01*
X92539Y293539D01*
X97880Y288199D01*
Y284380D01*
X112200D01*
Y284200D01*
X115616D01*
Y283340D01*
X115949Y281662D01*
X116900Y280240D01*
X118810Y278330D01*
Y273509D01*
X115005D01*
X114860Y273538D01*
X43400D01*
X43211Y273500D01*
X38734Y273941D01*
X34247Y275302D01*
X30111Y277512D01*
X26487Y280487D01*
X23512Y284111D01*
X21302Y288247D01*
X19941Y292734D01*
X19500Y297211D01*
X19538Y297400D01*
Y297745D01*
X20268Y298232D01*
X20848Y299101D01*
X21051Y300125D01*
Y303875D01*
X20848Y304899D01*
X20313Y305699D01*
X21205Y306295D01*
X22072Y307593D01*
X22377Y309125D01*
Y312875D01*
X22072Y314406D01*
X21205Y315705D01*
X20863Y315933D01*
Y317905D01*
X21332Y318218D01*
X22138Y319426D01*
X22422Y320850D01*
Y326150D01*
X22138Y327574D01*
X21332Y328782D01*
X21211Y328862D01*
Y330222D01*
X21281Y330269D01*
X22088Y331476D01*
X22130Y331685D01*
X65000D01*
X66288Y331941D01*
X67379Y332671D01*
X68109Y333762D01*
X68365Y335050D01*
Y399000D01*
X499000D01*
Y1000D01*
D02*
G37*
G36*
X224061Y349939D02*
X217257Y347379D01*
X217630Y347782D01*
X217901Y348142D01*
X218069Y348461D01*
X218135Y348736D01*
X218098Y348970D01*
X217959Y349161D01*
X217718Y349309D01*
X217374Y349415D01*
X216928Y349479D01*
X216379Y349500D01*
X219379Y352500D01*
X219970Y352521D01*
X220544Y352585D01*
X221100Y352691D01*
X221638Y352839D01*
X222159Y353030D01*
X222662Y353264D01*
X223148Y353540D01*
X223616Y353858D01*
X224067Y354218D01*
X224500Y354621D01*
X224061Y349939D01*
D02*
G37*
G36*
X292963Y328997D02*
X291983Y326003D01*
X291951Y326040D01*
X291894Y326074D01*
X291813Y326104D01*
X291707Y326129D01*
X291575Y326151D01*
X291238Y326182D01*
X290802Y326198D01*
X290547Y326200D01*
X290512Y329200D01*
X292963Y328997D01*
D02*
G37*
G36*
X234320Y351750D02*
Y339900D01*
X258920D01*
Y339900D01*
X259320D01*
Y339900D01*
X279320D01*
Y332900D01*
X279320Y332900D01*
Y332500D01*
X279320D01*
X279320Y331630D01*
Y322900D01*
X284272D01*
X284745Y322806D01*
X290345D01*
X290856Y322295D01*
X292896Y321450D01*
X295104D01*
X295560Y321639D01*
X296616Y320933D01*
Y309816D01*
X282184Y295384D01*
X258800D01*
Y301147D01*
X260070Y301399D01*
X260295Y300856D01*
X261856Y299295D01*
X263896Y298450D01*
X266104D01*
X268144Y299295D01*
X269705Y300856D01*
X270550Y302896D01*
Y305104D01*
X269705Y307144D01*
X269469Y307380D01*
X269995Y308650D01*
X283920D01*
Y320500D01*
X260190D01*
X259320Y320500D01*
X258050Y320500D01*
X239320D01*
Y308650D01*
X246282D01*
X247200Y307800D01*
Y295384D01*
X210032D01*
X209184Y296654D01*
X209514Y298310D01*
X209063Y300573D01*
X208914Y300797D01*
Y309992D01*
X217961Y319039D01*
X226727Y327806D01*
X233070D01*
Y322900D01*
X243920D01*
Y327900D01*
Y337500D01*
X238968D01*
X238495Y337594D01*
X224700D01*
X222827Y337221D01*
X221239Y336161D01*
X220567Y335489D01*
X219394Y335975D01*
Y340473D01*
X226461Y347539D01*
X231027Y352106D01*
X233197D01*
X234320Y351750D01*
D02*
G37*
G36*
X216021Y328573D02*
X216085Y328126D01*
X216191Y327782D01*
X216339Y327541D01*
X216530Y327402D01*
X216764Y327365D01*
X217039Y327431D01*
X217358Y327599D01*
X217718Y327870D01*
X218121Y328243D01*
X215561Y321439D01*
X210879Y321000D01*
X211282Y321433D01*
X211642Y321884D01*
X211961Y322352D01*
X212236Y322838D01*
X212470Y323341D01*
X212661Y323862D01*
X212809Y324400D01*
X212915Y324956D01*
X212979Y325530D01*
X213000Y326121D01*
X216000Y329121D01*
X216021Y328573D01*
D02*
G37*
G36*
X209010Y314889D02*
X205500Y310998D01*
X205357Y311141D01*
X205250Y311022D01*
X203022Y313250D01*
X203052Y313259D01*
X203098Y313288D01*
X203162Y313335D01*
X203163Y313336D01*
X202999Y313500D01*
X203106Y313535D01*
X203276Y313640D01*
X203508Y313816D01*
X204161Y314378D01*
X206889Y317010D01*
X209010Y314889D01*
D02*
G37*
G36*
X201233Y312567D02*
X201393Y312575D01*
Y309425D01*
X201366Y309439D01*
X201313Y309452D01*
X201234Y309463D01*
X201233Y309463D01*
Y309231D01*
X201133Y309282D01*
X200938Y309328D01*
X200649Y309368D01*
X199790Y309433D01*
X196000Y309500D01*
Y312500D01*
X201233Y312769D01*
Y312567D01*
D02*
G37*
G36*
X265127Y307361D02*
X265148Y307144D01*
X265183Y306946D01*
X265232Y306767D01*
X265295Y306608D01*
X265372Y306467D01*
X265464Y306345D01*
X265569Y306243D01*
X265688Y306159D01*
X265821Y306095D01*
X262922Y304863D01*
X262960Y304974D01*
X262993Y305118D01*
X263023Y305293D01*
X263071Y305741D01*
X263112Y306653D01*
X263120Y307421D01*
X265120Y307597D01*
X265127Y307361D01*
D02*
G37*
G36*
X210288Y344836D02*
X209979Y344373D01*
X209606Y342500D01*
Y324527D01*
X201742Y316663D01*
X200737Y316464D01*
X199885Y315894D01*
X181000D01*
X179127Y315522D01*
X177539Y314461D01*
X166629Y303550D01*
X163450D01*
Y295174D01*
X163366Y294750D01*
Y291536D01*
X160940Y289110D01*
X159172Y289082D01*
X157154Y291100D01*
X155732Y292050D01*
X154054Y292384D01*
X153465D01*
X153144Y292705D01*
X151104Y293550D01*
X148896D01*
X148299Y293303D01*
X147580Y294379D01*
X150100Y296900D01*
X151051Y298322D01*
X151384Y300000D01*
Y302160D01*
X153040D01*
Y304806D01*
X154707D01*
X155625Y304623D01*
X160375D01*
X161906Y304928D01*
X163205Y305795D01*
X164072Y307094D01*
X164377Y308625D01*
Y312375D01*
X164072Y313906D01*
X163205Y315205D01*
X161906Y316072D01*
X160375Y316377D01*
X155625D01*
X154310Y316115D01*
X153490Y316544D01*
X153040Y316896D01*
Y329760D01*
X142672D01*
X141993Y331030D01*
X142042Y331104D01*
X142347Y332635D01*
Y337385D01*
X142042Y338916D01*
X141175Y340215D01*
X139876Y341082D01*
X138345Y341387D01*
X134595D01*
X133064Y341082D01*
X131765Y340215D01*
X130898Y338916D01*
X130593Y337385D01*
Y332635D01*
X130898Y331104D01*
X130947Y331030D01*
X130268Y329760D01*
X129440D01*
Y325365D01*
X128610Y324810D01*
X124900Y321100D01*
X123949Y319678D01*
X123616Y318000D01*
Y302220D01*
X123949Y300542D01*
X124900Y299120D01*
X126876Y297144D01*
Y295800D01*
X113480D01*
Y295980D01*
X106153D01*
X105680Y296074D01*
X103847D01*
X100894Y299027D01*
Y334973D01*
X112027Y346106D01*
X209609D01*
X210288Y344836D01*
D02*
G37*
G36*
X180049Y296010D02*
X180009Y295977D01*
X179973Y295923D01*
X179942Y295848D01*
X179914Y295753D01*
X179891Y295636D01*
X179872Y295498D01*
X179847Y295159D01*
X179839Y294737D01*
X177839D01*
X177837Y294990D01*
X177780Y295893D01*
X177759Y296001D01*
X177735Y296085D01*
X177708Y296144D01*
X177677Y296180D01*
X180049Y296010D01*
D02*
G37*
G36*
X169143Y294507D02*
X169092Y294498D01*
X169037Y294481D01*
X168978Y294455D01*
X168916Y294421D01*
X168849Y294379D01*
X168778Y294328D01*
X168626Y294202D01*
X168543Y294127D01*
X168457Y294043D01*
X167043Y295457D01*
X167127Y295543D01*
X167328Y295778D01*
X167379Y295849D01*
X167421Y295916D01*
X167455Y295978D01*
X167481Y296037D01*
X167498Y296092D01*
X167507Y296143D01*
X169143Y294507D01*
D02*
G37*
G36*
X178682Y293146D02*
X178501Y292905D01*
X178389Y292693D01*
X178345Y292509D01*
X178370Y292353D01*
X178463Y292226D01*
X178624Y292127D01*
X178853Y292057D01*
X179150Y292014D01*
X179516Y292000D01*
X175102Y290000D01*
X174064Y292000D01*
X174196Y292014D01*
X174345Y292057D01*
X174509Y292127D01*
X174689Y292226D01*
X174885Y292353D01*
X175097Y292509D01*
X175827Y293146D01*
X176102Y293414D01*
X178930D01*
X178682Y293146D01*
D02*
G37*
G36*
X121050Y289658D02*
X121039Y289558D01*
X121022Y289181D01*
X121000Y286642D01*
X119000D01*
X118939Y289700D01*
X121061D01*
X121050Y289658D01*
D02*
G37*
G36*
X151726Y289466D02*
X151858Y289368D01*
X152002Y289282D01*
X152159Y289207D01*
X152328Y289144D01*
X152510Y289092D01*
X152705Y289052D01*
X152913Y289023D01*
X153133Y289006D01*
X153366Y289000D01*
Y287000D01*
X153133Y286994D01*
X152913Y286977D01*
X152705Y286948D01*
X152510Y286908D01*
X152328Y286856D01*
X152159Y286793D01*
X152002Y286718D01*
X151858Y286632D01*
X151726Y286534D01*
X151607Y286425D01*
Y289575D01*
X151726Y289466D01*
D02*
G37*
G36*
X190496Y283926D02*
X190664Y283783D01*
X190831Y283657D01*
X190997Y283547D01*
X191162Y283455D01*
X191327Y283380D01*
X191491Y283322D01*
X191654Y283281D01*
X191816Y283257D01*
X191978Y283250D01*
X189750Y281022D01*
X189743Y281184D01*
X189719Y281346D01*
X189678Y281509D01*
X189620Y281673D01*
X189545Y281838D01*
X189453Y282003D01*
X189343Y282169D01*
X189217Y282336D01*
X189074Y282504D01*
X188913Y282673D01*
X190327Y284087D01*
X190496Y283926D01*
D02*
G37*
G36*
X9912Y331476D02*
X10718Y330269D01*
X11137Y329989D01*
Y327836D01*
X10962Y327574D01*
X10678Y326150D01*
Y320850D01*
X10962Y319426D01*
X11137Y319164D01*
Y315933D01*
X10795Y315705D01*
X9928Y314406D01*
X9623Y312875D01*
Y309125D01*
X9928Y307593D01*
X10795Y306295D01*
X11687Y305699D01*
X11152Y304899D01*
X10949Y303875D01*
Y300125D01*
X11152Y299101D01*
X11732Y298232D01*
X12435Y297400D01*
X12816Y292556D01*
X13951Y287831D01*
X15810Y283342D01*
X18349Y279199D01*
X21504Y275504D01*
X25199Y272349D01*
X29342Y269810D01*
X33831Y267951D01*
X38556Y266816D01*
X43400Y266435D01*
Y266462D01*
X102156D01*
X102541Y265193D01*
X102140Y264925D01*
X96875Y259660D01*
X95069D01*
X94705Y260205D01*
X93406Y261072D01*
X91875Y261377D01*
X88125D01*
X86594Y261072D01*
X85295Y260205D01*
X84428Y258906D01*
X84123Y257375D01*
Y254086D01*
X84106Y254000D01*
Y252027D01*
X82973Y250894D01*
X79027D01*
X76961Y252961D01*
X75800Y253736D01*
Y257300D01*
X65330D01*
Y261610D01*
X53730D01*
Y246107D01*
X52928Y244906D01*
X52623Y243375D01*
Y238625D01*
X52928Y237094D01*
X53200Y236686D01*
Y221200D01*
X64204D01*
X64730Y219930D01*
X61900Y217100D01*
X60950Y215678D01*
X60616Y214000D01*
Y181000D01*
X60950Y179322D01*
X61900Y177900D01*
X68910Y170890D01*
X70332Y169939D01*
X70660Y169874D01*
Y162190D01*
X85260D01*
Y172796D01*
X87450D01*
Y171380D01*
X117020D01*
Y182980D01*
X87450D01*
Y181564D01*
X85260D01*
Y185790D01*
X71000D01*
Y193940D01*
X85260D01*
Y208316D01*
X85344Y208740D01*
Y223144D01*
X106187Y243986D01*
X107360Y243500D01*
Y230114D01*
X102156D01*
X101104Y230550D01*
X98896D01*
X96856Y229705D01*
X95295Y228144D01*
X94450Y226104D01*
Y223896D01*
X95295Y221856D01*
X96856Y220295D01*
X98896Y219450D01*
X101104D01*
X103144Y220295D01*
X104195Y221346D01*
X107360D01*
Y213230D01*
X118810D01*
Y201780D01*
X136500D01*
X137200Y200800D01*
Y193963D01*
X137016Y193040D01*
Y182379D01*
X123730Y169094D01*
X109220D01*
X108649Y168980D01*
X101420D01*
Y157380D01*
X108649D01*
X109220Y157266D01*
X126180D01*
X126180Y157266D01*
X128443Y157717D01*
X130362Y158998D01*
X147112Y175748D01*
X147112Y175748D01*
X148393Y177667D01*
X148844Y179930D01*
Y193040D01*
X148800Y193259D01*
Y200800D01*
X149500Y201780D01*
X159086D01*
Y182307D01*
X149339Y172561D01*
X148385Y171134D01*
X148050Y169450D01*
Y127293D01*
X137342Y116585D01*
X125800D01*
Y131800D01*
X114200D01*
Y128894D01*
X112000D01*
X110127Y128521D01*
X108539Y127461D01*
X103881Y122802D01*
X83570D01*
Y135459D01*
X69188D01*
X69029Y135619D01*
X68508Y136892D01*
X68280Y137122D01*
X68159Y137423D01*
X67195Y138404D01*
X66992Y138490D01*
X67263Y139701D01*
X67315Y139784D01*
X73771D01*
X76068Y140086D01*
X78209Y140973D01*
X80047Y142384D01*
X81458Y144222D01*
X82344Y146363D01*
X82647Y148660D01*
X82344Y150957D01*
X81458Y153098D01*
X80047Y154936D01*
X78209Y156347D01*
X76068Y157233D01*
X73771Y157536D01*
X64771D01*
X62474Y157233D01*
X60333Y156347D01*
X58495Y154936D01*
X57084Y153098D01*
X56197Y150957D01*
X55895Y148660D01*
X56197Y146363D01*
X57084Y144222D01*
X58495Y142384D01*
X60333Y140973D01*
X61891Y140328D01*
X61900Y138949D01*
X61467Y138763D01*
X61241Y138531D01*
X60943Y138405D01*
X59979Y137423D01*
X59858Y137123D01*
X59630Y136893D01*
X59109Y135619D01*
X59111Y135295D01*
X58987Y134996D01*
X58987Y133620D01*
X59111Y133321D01*
X59109Y132998D01*
X59630Y131724D01*
X59858Y131494D01*
X59979Y131194D01*
X60943Y130212D01*
X61000Y129921D01*
X48242Y117163D01*
X47237Y116964D01*
X45318Y115682D01*
X44036Y113763D01*
X43586Y111500D01*
Y65410D01*
X40862Y62685D01*
X39521Y63140D01*
X39330Y64588D01*
X38393Y66850D01*
X36902Y68793D01*
X34959Y70284D01*
X32697Y71221D01*
X30269Y71540D01*
X24269D01*
X21842Y71221D01*
X19579Y70284D01*
X17637Y68793D01*
X16146Y66850D01*
X15209Y64588D01*
X14889Y62160D01*
X15209Y59732D01*
X16146Y57470D01*
X17637Y55527D01*
X19579Y54037D01*
X21842Y53100D01*
X24269Y52780D01*
X29161D01*
X29687Y51510D01*
X26078Y47902D01*
X17842D01*
Y28302D01*
X34441D01*
Y39539D01*
X53682Y58779D01*
X53682Y58779D01*
X54832Y60501D01*
X55650Y60487D01*
X56135Y60338D01*
X56197Y59863D01*
X57084Y57722D01*
X58495Y55884D01*
X60333Y54473D01*
X62474Y53587D01*
X64771Y53284D01*
X73771D01*
X76068Y53587D01*
X78209Y54473D01*
X80047Y55884D01*
X81458Y57722D01*
X82344Y59863D01*
X82647Y62160D01*
X82344Y64457D01*
X81458Y66598D01*
X80047Y68436D01*
X78209Y69847D01*
X76068Y70734D01*
X73771Y71036D01*
X67318D01*
X67268Y71115D01*
X66939Y72303D01*
X67195Y72412D01*
X68159Y73394D01*
X68280Y73694D01*
X68508Y73924D01*
X69029Y75197D01*
X69189Y75358D01*
X74449D01*
X75020Y75245D01*
X75020Y75245D01*
X79097D01*
X79893Y75086D01*
X94000D01*
X94571Y75200D01*
X101800D01*
Y83106D01*
X114200D01*
Y80200D01*
X125800D01*
Y95800D01*
X114200D01*
Y92894D01*
X102551D01*
X102550Y92896D01*
Y95104D01*
X101705Y97144D01*
X101349Y97500D01*
X101705Y97856D01*
X102550Y99896D01*
Y102104D01*
X102193Y102965D01*
X103042Y104235D01*
X140635D01*
X142319Y104570D01*
X143746Y105524D01*
X159111Y120889D01*
X160065Y122316D01*
X160399Y124000D01*
Y166157D01*
X170146Y175904D01*
X171100Y177331D01*
X171434Y179015D01*
Y201780D01*
X179610D01*
Y213230D01*
X191060D01*
X191060Y213230D01*
Y213230D01*
X191060Y213230D01*
X192200Y212916D01*
Y208800D01*
X192200D01*
Y201571D01*
X192086Y201000D01*
Y191450D01*
X166818Y166182D01*
X165536Y164263D01*
X165086Y162000D01*
X165086Y162000D01*
Y153000D01*
Y131015D01*
X164758Y130523D01*
X164466Y129060D01*
Y116460D01*
X164758Y114997D01*
X165586Y113756D01*
X166827Y112928D01*
X168290Y112636D01*
X173390D01*
X174853Y112928D01*
X176094Y113756D01*
X176922Y114997D01*
X177213Y116460D01*
Y129060D01*
X176922Y130523D01*
X176914Y130536D01*
Y153000D01*
Y159551D01*
X202182Y184818D01*
X203463Y186737D01*
X203914Y189000D01*
Y201000D01*
X203800Y201571D01*
Y207200D01*
X203800D01*
Y222800D01*
X192200D01*
Y222800D01*
X191060Y223114D01*
Y237230D01*
Y249246D01*
X199554D01*
X324713Y124087D01*
X324227Y122914D01*
X307000D01*
X307000Y122914D01*
X304737Y122464D01*
X302818Y121182D01*
X294268Y112632D01*
X292987Y110713D01*
X292536Y108450D01*
X292536Y108450D01*
Y102240D01*
X290150D01*
Y100097D01*
X289177Y99903D01*
X287258Y98622D01*
X244078Y55441D01*
X242796Y53522D01*
X242400Y51534D01*
X234082D01*
X233596Y52707D01*
X237211Y56322D01*
X237212Y56323D01*
X238493Y58241D01*
X238684Y59200D01*
X238800D01*
Y59782D01*
X238944Y60504D01*
X238944Y60504D01*
Y67310D01*
Y78382D01*
X239034Y78517D01*
X239484Y80780D01*
Y81780D01*
X239034Y84043D01*
X238728Y84501D01*
Y88706D01*
X234564D01*
Y91044D01*
X234732Y91297D01*
X235023Y92760D01*
Y105360D01*
X234732Y106823D01*
X233904Y108064D01*
X232663Y108892D01*
X231200Y109183D01*
X226100D01*
X224637Y108892D01*
X223396Y108064D01*
X222568Y106823D01*
X222276Y105360D01*
Y103954D01*
X196213D01*
Y105360D01*
X195922Y106823D01*
X195094Y108064D01*
X193853Y108892D01*
X192390Y109183D01*
X187290D01*
X185827Y108892D01*
X184586Y108064D01*
X183758Y106823D01*
X183467Y105360D01*
Y92760D01*
X183758Y91297D01*
X184586Y90056D01*
X185827Y89228D01*
X187290Y88937D01*
X192390D01*
X193853Y89228D01*
X195094Y90056D01*
X195922Y91297D01*
X196213Y92760D01*
Y94166D01*
X222276D01*
Y92760D01*
X222568Y91297D01*
X222736Y91044D01*
Y86200D01*
X222736Y86200D01*
X223186Y83937D01*
X224468Y82018D01*
X227116Y79370D01*
Y67310D01*
Y62954D01*
X215696Y51534D01*
X214831D01*
X214259Y51647D01*
X214259Y51647D01*
X200446D01*
X183064Y69029D01*
Y70580D01*
X183024Y70781D01*
Y83050D01*
X182800Y84174D01*
Y89800D01*
X178723D01*
X177254Y91270D01*
Y98560D01*
X177254Y98560D01*
X177213Y98762D01*
Y105360D01*
X176922Y106823D01*
X176094Y108064D01*
X174853Y108892D01*
X173390Y109183D01*
X168290D01*
X166827Y108892D01*
X165586Y108064D01*
X164758Y106823D01*
X164466Y105360D01*
Y92760D01*
X164758Y91297D01*
X165426Y90296D01*
Y88820D01*
X165426Y88820D01*
X165877Y86557D01*
X167158Y84638D01*
X171196Y80601D01*
Y70620D01*
X171196Y70620D01*
X171200Y70602D01*
Y60200D01*
X175167D01*
X193815Y41552D01*
X193815Y41552D01*
X194643Y40999D01*
X194973Y39273D01*
X194834Y39069D01*
X193502D01*
X193463Y39263D01*
X192182Y41182D01*
X183181Y50182D01*
X181263Y51463D01*
X179000Y51914D01*
X179000Y51914D01*
X79000D01*
X79000Y51914D01*
X76737Y51463D01*
X74818Y50182D01*
X74818Y50181D01*
X68652Y44015D01*
X63442D01*
Y47902D01*
X46842D01*
Y28302D01*
X63442D01*
Y32188D01*
X71101D01*
X71102Y32188D01*
X73365Y32638D01*
X75283Y33920D01*
X76304Y33145D01*
X75404Y31460D01*
X74443Y28293D01*
X74119Y25000D01*
X74443Y21707D01*
X75404Y18540D01*
X76964Y15621D01*
X79063Y13063D01*
X81621Y10964D01*
X84540Y9404D01*
X87707Y8443D01*
X91000Y8119D01*
X169000D01*
X172293Y8443D01*
X175460Y9404D01*
X178379Y10964D01*
X180937Y13063D01*
X183036Y15621D01*
X184596Y18540D01*
X184820Y19277D01*
X186052Y19585D01*
X189818Y15818D01*
X191737Y14536D01*
X191960Y14492D01*
Y1000D01*
X1000D01*
Y331685D01*
X9870D01*
X9912Y331476D01*
D02*
G37*
G36*
X68233Y239231D02*
X68133Y239282D01*
X67938Y239328D01*
X67649Y239368D01*
X66790Y239433D01*
X63000Y239500D01*
Y242500D01*
X68233Y242769D01*
Y239231D01*
D02*
G37*
G36*
X101128Y226958D02*
X101259Y226910D01*
X101404Y226868D01*
X101563Y226831D01*
X101918Y226775D01*
X102116Y226755D01*
X102789Y226730D01*
X103584Y224730D01*
X103349Y224723D01*
X103131Y224702D01*
X102932Y224667D01*
X102750Y224618D01*
X102586Y224555D01*
X102439Y224479D01*
X102311Y224388D01*
X102200Y224283D01*
X102106Y224164D01*
X102031Y224032D01*
X101009Y227011D01*
X101128Y226958D01*
D02*
G37*
G36*
X176060Y265230D02*
Y253230D01*
Y241230D01*
Y229230D01*
Y216780D01*
X122360D01*
Y221230D01*
Y233230D01*
Y245230D01*
Y257230D01*
Y270030D01*
X123444Y270480D01*
X176060D01*
Y265230D01*
D02*
G37*
G36*
X401006Y146133D02*
X401023Y145913D01*
X401052Y145705D01*
X401092Y145511D01*
X401144Y145328D01*
X401207Y145159D01*
X401282Y145002D01*
X401368Y144858D01*
X401466Y144726D01*
X401575Y144607D01*
X398425D01*
X398534Y144726D01*
X398632Y144858D01*
X398718Y145002D01*
X398793Y145159D01*
X398856Y145328D01*
X398908Y145511D01*
X398948Y145705D01*
X398977Y145913D01*
X398994Y146133D01*
X399000Y146365D01*
X401000D01*
X401006Y146133D01*
D02*
G37*
G36*
X387006D02*
X387023Y145913D01*
X387052Y145705D01*
X387092Y145511D01*
X387144Y145328D01*
X387207Y145159D01*
X387282Y145002D01*
X387368Y144858D01*
X387466Y144726D01*
X387575Y144607D01*
X384425D01*
X384534Y144726D01*
X384632Y144858D01*
X384718Y145002D01*
X384793Y145159D01*
X384856Y145328D01*
X384908Y145511D01*
X384948Y145705D01*
X384977Y145913D01*
X384994Y146133D01*
X385000Y146365D01*
X387000D01*
X387006Y146133D01*
D02*
G37*
G36*
X410496Y124926D02*
X410664Y124783D01*
X410831Y124657D01*
X410997Y124547D01*
X411162Y124455D01*
X411327Y124380D01*
X411491Y124322D01*
X411654Y124281D01*
X411816Y124257D01*
X411978Y124250D01*
X409750Y122022D01*
X409743Y122184D01*
X409719Y122346D01*
X409678Y122509D01*
X409620Y122673D01*
X409545Y122838D01*
X409453Y123003D01*
X409343Y123169D01*
X409217Y123336D01*
X409074Y123504D01*
X408913Y123673D01*
X410327Y125087D01*
X410496Y124926D01*
D02*
G37*
G36*
X457014Y127048D02*
X457057Y126751D01*
X457127Y126522D01*
X457226Y126361D01*
X457354Y126268D01*
X457509Y126243D01*
X457693Y126287D01*
X457905Y126399D01*
X458145Y126580D01*
X458414Y126828D01*
X456000Y123000D01*
X453586Y122000D01*
X453854Y122289D01*
X454095Y122589D01*
X454307Y122901D01*
X454491Y123225D01*
X454646Y123561D01*
X454774Y123908D01*
X454873Y124267D01*
X454943Y124638D01*
X454986Y125020D01*
X455000Y125414D01*
X457000Y127414D01*
X457014Y127048D01*
D02*
G37*
G36*
X397393Y119425D02*
X397274Y119534D01*
X397142Y119632D01*
X396998Y119718D01*
X396841Y119793D01*
X396672Y119856D01*
X396489Y119908D01*
X396295Y119948D01*
X396087Y119977D01*
X395867Y119994D01*
X395634Y120000D01*
Y122000D01*
X395867Y122006D01*
X396087Y122023D01*
X396295Y122052D01*
X396489Y122092D01*
X396672Y122144D01*
X396841Y122207D01*
X396998Y122282D01*
X397142Y122368D01*
X397274Y122466D01*
X397393Y122575D01*
Y119425D01*
D02*
G37*
G36*
X55510Y115389D02*
X52000Y111498D01*
X49499Y114000D01*
X49606Y114035D01*
X49776Y114141D01*
X50008Y114316D01*
X50661Y114878D01*
X53389Y117510D01*
X55510Y115389D01*
D02*
G37*
G36*
X312634Y104561D02*
X312687Y104548D01*
X312766Y104537D01*
X312999Y104519D01*
X313770Y104501D01*
X314027Y104500D01*
Y101500D01*
X312607Y101425D01*
Y104575D01*
X312634Y104561D01*
D02*
G37*
G36*
X226883Y97291D02*
X226782Y97342D01*
X226588Y97388D01*
X226299Y97428D01*
X225440Y97493D01*
X221650Y97560D01*
Y100560D01*
X226883Y100829D01*
Y97291D01*
D02*
G37*
G36*
X52035Y100394D02*
X52140Y100224D01*
X52316Y99992D01*
X52878Y99339D01*
X55510Y96611D01*
X53389Y94490D01*
X49499Y98000D01*
X52000Y100502D01*
X52035Y100394D01*
D02*
G37*
G36*
X312480Y71707D02*
X312523Y71704D01*
X313829Y71696D01*
X314184Y68696D01*
X313927Y68695D01*
X312911Y68635D01*
X312829Y68616D01*
X312771Y68595D01*
X312738Y68571D01*
X312463Y71709D01*
X312480Y71707D01*
D02*
G37*
G36*
X292201Y66080D02*
X291250Y65023D01*
X289023Y67250D01*
X289052Y67259D01*
X289098Y67288D01*
X289162Y67335D01*
X289339Y67487D01*
X289898Y68020D01*
X290080Y68201D01*
X292201Y66080D01*
D02*
G37*
%LPC*%
G36*
X456500Y391881D02*
X378500D01*
X375207Y391557D01*
X372040Y390596D01*
X369121Y389036D01*
X366563Y386937D01*
X364464Y384379D01*
X362904Y381460D01*
X361943Y378293D01*
X361619Y375000D01*
X361943Y371707D01*
X362904Y368540D01*
X364464Y365621D01*
X366563Y363063D01*
X369121Y360964D01*
X372040Y359404D01*
X375207Y358443D01*
X378500Y358119D01*
X456500D01*
X459793Y358443D01*
X462960Y359404D01*
X465879Y360964D01*
X468437Y363063D01*
X470536Y365621D01*
X472096Y368540D01*
X473057Y371707D01*
X473381Y375000D01*
X473057Y378293D01*
X472096Y381460D01*
X470536Y384379D01*
X468437Y386937D01*
X465879Y389036D01*
X462960Y390596D01*
X459793Y391557D01*
X456500Y391881D01*
D02*
G37*
G36*
X169000D02*
X91000D01*
X87707Y391557D01*
X84540Y390596D01*
X81621Y389036D01*
X79063Y386937D01*
X76964Y384379D01*
X75404Y381460D01*
X74443Y378293D01*
X74119Y375000D01*
X74443Y371707D01*
X75404Y368540D01*
X76964Y365621D01*
X79063Y363063D01*
X81621Y360964D01*
X84540Y359404D01*
X87707Y358443D01*
X91000Y358119D01*
X169000D01*
X172293Y358443D01*
X175460Y359404D01*
X178379Y360964D01*
X180937Y363063D01*
X183036Y365621D01*
X184596Y368540D01*
X185557Y371707D01*
X185881Y375000D01*
X185557Y378293D01*
X184596Y381460D01*
X183036Y384379D01*
X180937Y386937D01*
X178379Y389036D01*
X175460Y390596D01*
X172293Y391557D01*
X169000Y391881D01*
D02*
G37*
G36*
X353160Y387530D02*
X341560D01*
Y372170D01*
X340290D01*
Y355570D01*
X353890D01*
Y372170D01*
X353160D01*
Y387530D01*
D02*
G37*
G36*
X337890Y372170D02*
X324290D01*
Y355570D01*
X325951D01*
Y352509D01*
X325895Y352453D01*
X325050Y350414D01*
Y348206D01*
X325895Y346166D01*
X327456Y344604D01*
X329496Y343760D01*
X331704D01*
X333744Y344604D01*
X335305Y346166D01*
X336150Y348206D01*
Y350414D01*
X335739Y351405D01*
Y355570D01*
X337890D01*
Y372170D01*
D02*
G37*
G36*
X339770Y262960D02*
X323170D01*
Y249360D01*
X325556D01*
Y243940D01*
X323670D01*
Y232340D01*
X330899D01*
X331470Y232226D01*
X332041Y232340D01*
X339270D01*
Y243940D01*
X337384D01*
Y249360D01*
X339770D01*
Y262960D01*
D02*
G37*
G36*
X378600Y282300D02*
X347500D01*
Y265700D01*
Y251700D01*
Y237700D01*
Y223700D01*
Y209700D01*
Y195700D01*
Y181700D01*
X378600D01*
Y195700D01*
Y209700D01*
Y223700D01*
Y237700D01*
Y251700D01*
Y265700D01*
Y282300D01*
D02*
G37*
G36*
X344492Y84696D02*
X332304D01*
Y75323D01*
X332190Y74752D01*
X332190Y74752D01*
Y62523D01*
X332086Y62000D01*
Y60000D01*
X332190Y59477D01*
Y30340D01*
X326550D01*
Y10660D01*
X346230D01*
Y30340D01*
X344018D01*
Y56588D01*
X350198D01*
Y54201D01*
X369798D01*
Y70802D01*
X350198D01*
Y68415D01*
X344492D01*
Y84696D01*
D02*
G37*
G36*
X456500Y41881D02*
X378500D01*
X375207Y41557D01*
X372040Y40596D01*
X369121Y39036D01*
X366563Y36937D01*
X364464Y34379D01*
X362904Y31460D01*
X361943Y28293D01*
X361619Y25000D01*
X361943Y21707D01*
X362904Y18540D01*
X364464Y15621D01*
X366563Y13063D01*
X369121Y10964D01*
X372040Y9404D01*
X375207Y8443D01*
X378500Y8119D01*
X456500D01*
X459793Y8443D01*
X462960Y9404D01*
X465879Y10964D01*
X468437Y13063D01*
X470536Y15621D01*
X472096Y18540D01*
X473057Y21707D01*
X473381Y25000D01*
X473057Y28293D01*
X472096Y31460D01*
X470536Y34379D01*
X468437Y36937D01*
X465879Y39036D01*
X462960Y40596D01*
X459793Y41557D01*
X456500Y41881D01*
D02*
G37*
%LPD*%
G36*
X332345Y352080D02*
X332341Y350735D01*
X329209Y351078D01*
X329235Y351112D01*
X329258Y351170D01*
X329278Y351254D01*
X329296Y351361D01*
X329323Y351651D01*
X329344Y352271D01*
X329345Y352527D01*
X332345Y352080D01*
D02*
G37*
G36*
X340627Y31060D02*
X340696Y30210D01*
X340811Y29460D01*
X340971Y28809D01*
X341178Y28259D01*
X341430Y27810D01*
X341729Y27459D01*
X342073Y27209D01*
X342463Y27060D01*
X342900Y27009D01*
X333104Y26979D01*
X333579Y27031D01*
X334004Y27183D01*
X334379Y27435D01*
X334704Y27788D01*
X334979Y28241D01*
X335204Y28794D01*
X335379Y29447D01*
X335504Y30201D01*
X335579Y31055D01*
X335604Y32009D01*
X340604D01*
X340627Y31060D01*
D02*
G37*
%LPC*%
G36*
X30269Y158040D02*
X24269D01*
X21842Y157720D01*
X19579Y156783D01*
X17637Y155293D01*
X16146Y153350D01*
X15209Y151088D01*
X14889Y148660D01*
X15209Y146232D01*
X16146Y143970D01*
X17637Y142027D01*
X19579Y140536D01*
X21842Y139599D01*
X24269Y139280D01*
X30269D01*
X32697Y139599D01*
X34959Y140536D01*
X36902Y142027D01*
X38393Y143970D01*
X39330Y146232D01*
X39650Y148660D01*
X39330Y151088D01*
X38393Y153350D01*
X36902Y155293D01*
X34959Y156783D01*
X32697Y157720D01*
X30269Y158040D01*
D02*
G37*
G36*
X250200Y132883D02*
X245100D01*
X243637Y132592D01*
X242396Y131764D01*
X241568Y130523D01*
X241277Y129060D01*
Y116460D01*
X241568Y114997D01*
X242396Y113756D01*
X243637Y112928D01*
X245100Y112636D01*
X250200D01*
X251663Y112928D01*
X252904Y113756D01*
X253732Y114997D01*
X254023Y116460D01*
Y129060D01*
X253732Y130523D01*
X252904Y131764D01*
X251663Y132592D01*
X250200Y132883D01*
D02*
G37*
G36*
X229000Y165914D02*
X226737Y165464D01*
X224818Y164182D01*
X223536Y162263D01*
X223086Y160000D01*
Y151000D01*
X223200Y150429D01*
Y148058D01*
X223086Y147486D01*
Y131300D01*
X222568Y130523D01*
X222276Y129060D01*
Y116460D01*
X222568Y114997D01*
X223396Y113756D01*
X224637Y112928D01*
X226100Y112636D01*
X231200D01*
X232663Y112928D01*
X233904Y113756D01*
X234732Y114997D01*
X235023Y116460D01*
Y129060D01*
X234914Y129612D01*
Y147486D01*
X234800Y148058D01*
Y150429D01*
X234914Y151000D01*
Y160000D01*
X234464Y162263D01*
X233182Y164182D01*
X231263Y165464D01*
X229000Y165914D01*
D02*
G37*
G36*
X192390Y132883D02*
X187290D01*
X185827Y132592D01*
X184586Y131764D01*
X183758Y130523D01*
X183467Y129060D01*
Y116460D01*
X183758Y114997D01*
X184586Y113756D01*
X185827Y112928D01*
X187290Y112636D01*
X192390D01*
X193853Y112928D01*
X195094Y113756D01*
X195922Y114997D01*
X196213Y116460D01*
Y129060D01*
X195922Y130523D01*
X195094Y131764D01*
X193853Y132592D01*
X192390Y132883D01*
D02*
G37*
G36*
X247104Y188550D02*
X244896D01*
X242856Y187705D01*
X241295Y186144D01*
X240450Y184104D01*
Y181896D01*
X241295Y179856D01*
X242856Y178295D01*
X244440Y177639D01*
X268106Y153973D01*
Y123027D01*
X253833Y108754D01*
X251870D01*
X251663Y108892D01*
X250200Y109183D01*
X245100D01*
X243637Y108892D01*
X242396Y108064D01*
X241568Y106823D01*
X241277Y105360D01*
Y92760D01*
X241568Y91297D01*
X242396Y90056D01*
X243637Y89228D01*
X245100Y88937D01*
X247948D01*
X248150Y88896D01*
X248150Y88896D01*
X251497D01*
X252000Y88796D01*
X253900D01*
Y84910D01*
X265500D01*
Y92139D01*
X265614Y92710D01*
Y94710D01*
X265500Y95281D01*
Y100510D01*
X261227D01*
X260701Y101780D01*
X276461Y117539D01*
X277521Y119127D01*
X277894Y121000D01*
Y156000D01*
X277521Y157873D01*
X276461Y159461D01*
X251361Y184560D01*
X250705Y186144D01*
X249144Y187705D01*
X247104Y188550D01*
D02*
G37*
%LPD*%
G36*
X248259Y182948D02*
X248288Y182902D01*
X248335Y182838D01*
X248487Y182661D01*
X249020Y182102D01*
X249201Y181920D01*
X247080Y179799D01*
X246022Y180750D01*
X248250Y182978D01*
X248259Y182948D01*
D02*
G37*
G36*
X249155Y102134D02*
X249192Y101714D01*
X249225Y101522D01*
X249267Y101340D01*
X249319Y101170D01*
X249380Y101011D01*
X249450Y100863D01*
X249530Y100726D01*
X249619Y100601D01*
X245681D01*
X245770Y100726D01*
X245850Y100863D01*
X245920Y101011D01*
X245981Y101170D01*
X246033Y101340D01*
X246075Y101522D01*
X246108Y101714D01*
X246131Y101918D01*
X246150Y102360D01*
X249150D01*
X249155Y102134D01*
D02*
G37*
D10*
X65000Y214000D02*
X108560Y257560D01*
X114860D01*
X100676Y225000D02*
X101406Y225730D01*
X114760D01*
X114860Y225630D01*
X100000Y225000D02*
X100676D01*
X183560Y217630D02*
X196500D01*
X198700Y215430D01*
Y214630D02*
Y215430D01*
X183560Y253630D02*
X201370D01*
X339000Y116000D01*
X211370Y261630D02*
X347000Y126000D01*
X183560Y257630D02*
X206370D01*
X183560Y261630D02*
X211370D01*
X206370Y257630D02*
X343000Y121000D01*
X183560Y265630D02*
X219370D01*
X354000Y131000D01*
X183560Y269630D02*
X226370D01*
X360000Y136000D01*
X173752Y285710D02*
X175042Y287000D01*
X173710Y285710D02*
X173752D01*
X175042Y287000D02*
X187000D01*
X171310Y283310D02*
X173710Y285710D01*
X171310Y277800D02*
Y283310D01*
X172252Y289230D02*
X172294D01*
X174064Y291000D01*
X167750Y289720D02*
Y294750D01*
X163210Y285180D02*
X167750Y289720D01*
X163210Y277700D02*
Y285180D01*
X167750Y294750D02*
X169000Y296000D01*
X154054Y288000D02*
X159110Y282944D01*
Y278080D02*
X159210Y277980D01*
X159110Y278080D02*
Y282944D01*
X150000Y288000D02*
X154054D01*
X109530Y253530D02*
X114760D01*
X80960Y224960D02*
X109530Y253530D01*
X114760D02*
X114860Y253630D01*
X114910Y262520D02*
Y264630D01*
X167210Y284188D02*
X172252Y289230D01*
X174064Y291000D02*
X175102D01*
X187000Y287000D02*
X289657D01*
X167210Y277700D02*
Y284188D01*
X171210Y277700D02*
X171310Y277800D01*
X143210Y193210D02*
Y209000D01*
X143000Y193000D02*
X143210Y193210D01*
X289657Y287000D02*
X307000Y304343D01*
X187000Y286000D02*
X192000Y281000D01*
X178839Y294737D02*
Y297839D01*
X175102Y291000D02*
X178839Y294737D01*
Y297839D02*
X179000Y298000D01*
X80960Y208740D02*
Y224960D01*
X259620Y342636D02*
X264256Y338000D01*
X259620Y342636D02*
Y345325D01*
X259120Y345825D02*
X259620Y345325D01*
X264256Y338000D02*
X273000D01*
X278300Y332700D02*
X284745D01*
X273000Y338000D02*
X278300Y332700D01*
X258248Y322700D02*
X284745D01*
X255977D02*
X258248D01*
X259120Y321828D01*
X254676Y324000D02*
X255977Y322700D01*
X254000Y324000D02*
X254676D01*
X259120Y314575D02*
Y321828D01*
X287000Y275000D02*
X354000Y342000D01*
X449000D01*
X123260Y276980D02*
X127260D01*
X120000Y283340D02*
Y290760D01*
Y283340D02*
X123260Y280080D01*
Y276980D02*
Y280080D01*
X80960Y177180D02*
X95250D01*
X77960Y174180D02*
X80960Y177180D01*
X77960Y173990D02*
Y174180D01*
X95250Y177180D02*
X109220D01*
X65000Y181000D02*
Y214000D01*
X72010Y173990D02*
X77960D01*
X65000Y181000D02*
X72010Y173990D01*
X77960Y205740D02*
X80960Y208740D01*
X265230Y370840D02*
X269730Y366340D01*
X279400D01*
X265230Y370840D02*
Y373380D01*
X235730Y365000D02*
X240230Y369500D01*
Y373380D01*
X227500Y365000D02*
X235730D01*
X262052Y362052D02*
Y370202D01*
X254120Y345825D02*
Y354120D01*
X262052Y370202D02*
X265230Y373380D01*
X254120Y354120D02*
X262052Y362052D01*
X240230Y373380D02*
X241949Y371661D01*
Y362052D02*
X249120Y354880D01*
Y345825D02*
Y354880D01*
X241949Y362052D02*
Y371661D01*
X253620Y300620D02*
Y314075D01*
X253000Y300000D02*
X253620Y300620D01*
Y314075D02*
X254120Y314575D01*
X264120Y305557D02*
X265000Y304676D01*
Y304000D02*
Y304676D01*
X264120Y305557D02*
Y314575D01*
X147000Y300000D02*
Y308450D01*
X146240Y309210D02*
X147000Y308450D01*
X456000Y289000D02*
Y335000D01*
X449000Y342000D02*
X456000Y335000D01*
X184690Y276980D02*
X186670Y275000D01*
X287000D01*
X175260Y276980D02*
X184690D01*
X285000Y345000D02*
X297000D01*
X307000Y304343D02*
Y335000D01*
X297000Y345000D02*
X307000Y335000D01*
X284000Y291000D02*
X301000Y308000D01*
X295300Y337700D02*
X301000Y332000D01*
Y308000D02*
Y332000D01*
X175102Y291000D02*
X284000D01*
X128000Y302220D02*
X131260Y298960D01*
X128000Y318000D02*
X131710Y321710D01*
X128000Y302220D02*
Y318000D01*
X131710Y321710D02*
X136470D01*
X137240D01*
X284745Y337700D02*
X295300D01*
X136470Y322480D02*
Y334010D01*
Y322480D02*
X137240Y321710D01*
X148220Y309190D02*
X158750D01*
X147240Y308210D02*
X148220Y309190D01*
X147000Y307970D02*
X147240Y308210D01*
X135260Y288260D02*
X147000Y300000D01*
X135260Y276980D02*
Y288260D01*
X131260Y276980D02*
Y298960D01*
X339000Y116000D02*
X449000D01*
X343000Y121000D02*
X399000D01*
X347000Y126000D02*
X408000D01*
X354000Y131000D02*
X421000D01*
X360000Y136000D02*
X406000D01*
X456000Y123000D02*
X461500Y128500D01*
X467000Y130000D02*
Y132000D01*
X465500Y128500D02*
X467000Y130000D01*
X461500Y128500D02*
X465500D01*
X400000Y143000D02*
Y161000D01*
X400000Y161000D01*
X386000Y143000D02*
Y161000D01*
X386000Y161000D01*
X408000Y126000D02*
X412000Y122000D01*
X449000Y116000D02*
X456000Y123000D01*
X421000Y131000D02*
X428000Y138000D01*
X406000Y136000D02*
X414000Y144000D01*
Y161000D01*
X456000Y123000D02*
Y161000D01*
X428000Y138000D02*
Y161000D01*
D12*
X156000Y293000D02*
X158594D01*
X155000Y294000D02*
X156000Y293000D01*
X158594D02*
X160594Y291000D01*
X161000D01*
X119500Y290760D02*
X120000D01*
X106680Y290180D02*
X118920D01*
X119500Y290760D01*
X105680Y291180D02*
X106680Y290180D01*
X181000Y311000D02*
X203000D01*
X169750Y299750D02*
X181000Y311000D01*
X169000Y296000D02*
X169750Y296750D01*
Y299750D01*
X155000Y294000D02*
Y296000D01*
X101820Y291180D02*
X105680D01*
X96000Y297000D02*
Y337000D01*
Y297000D02*
X101820Y291180D01*
X246000Y183000D02*
X273000Y156000D01*
Y121000D02*
Y156000D01*
X229000Y160000D02*
X229000Y160000D01*
X330845Y363625D02*
X331090Y363870D01*
X330845Y349555D02*
Y363625D01*
X330600Y349310D02*
X330845Y349555D01*
X293594Y327000D02*
X294000D01*
X284745Y327700D02*
X292894D01*
X293594Y327000D01*
X96000Y337000D02*
X110000Y351000D01*
X223000D02*
X229000Y357000D01*
X214500Y342500D02*
X223000Y351000D01*
X110000D02*
X223000D01*
X59265Y241000D02*
Y253545D01*
X214500Y322500D02*
X224700Y332700D01*
X203000Y311000D02*
X214500Y322500D01*
Y342500D01*
X229000Y357000D02*
X240000D01*
X244120Y352880D01*
Y345825D02*
Y352880D01*
X224700Y332700D02*
X238495D01*
X347090Y363870D02*
X347225Y364005D01*
Y379595D02*
X347360Y379730D01*
X347225Y364005D02*
Y379595D01*
X249150Y103860D02*
X255860D01*
X273000Y121000D01*
X247650Y99060D02*
Y102360D01*
X249150Y103860D01*
X294950Y77440D02*
X296950Y79440D01*
X289000Y65000D02*
X294950Y70950D01*
X296950Y79440D02*
X298450D01*
X294950Y70950D02*
Y77440D01*
X311196Y70196D02*
X318308D01*
X311000Y70000D02*
X311196Y70196D01*
X319602Y71490D02*
Y75046D01*
X318308Y70196D02*
X319602Y71490D01*
X318308Y103000D02*
X319602Y101706D01*
Y100954D02*
Y101706D01*
X311000Y103000D02*
X318308D01*
X189840Y99060D02*
X228650D01*
X77000Y246000D02*
X85000D01*
X89000Y250000D01*
Y254000D01*
X70000Y250500D02*
Y251000D01*
X71000Y249500D02*
X73500D01*
X70000Y250500D02*
X71000Y249500D01*
X73500D02*
X77000Y246000D01*
X89000Y254000D02*
X90000Y255000D01*
X59265Y229265D02*
Y241000D01*
X70000D01*
X58500D02*
X59265D01*
X58500Y241000D02*
X58500Y241000D01*
X59265Y253545D02*
X59530Y253810D01*
X59000Y229000D02*
X59265Y229265D01*
X198720Y200680D02*
Y214610D01*
X198700Y214630D02*
X198720Y214610D01*
X67342Y82658D02*
X73520D01*
X49000Y101000D02*
X67342Y82658D01*
X49500Y111500D02*
X65820Y127820D01*
X112000Y124000D02*
X120000D01*
X105908Y117908D02*
X112000Y124000D01*
X74770Y117908D02*
X105908D01*
X78770Y87908D02*
X78862Y88000D01*
X74770Y87908D02*
X78770D01*
X78862Y88000D02*
X120000D01*
X65820Y127820D02*
X65985Y127823D01*
X66366Y128159D02*
X73520D01*
X65985Y127823D02*
X66366Y128159D01*
X73520Y82658D02*
X74770Y81408D01*
X73520Y128159D02*
X74770Y129409D01*
X484000Y289000D02*
Y313930D01*
X485000Y314930D01*
X486410D01*
X470000Y289000D02*
Y313930D01*
X469000Y314930D02*
X470000Y313930D01*
X467360Y314930D02*
X469000D01*
D14*
X105435Y261630D02*
X114860D01*
X98805Y255000D02*
X105435Y261630D01*
X90000Y255000D02*
X98805D01*
D19*
X156000Y167980D02*
X167035Y179015D01*
X156000Y124000D02*
Y167980D01*
X152450Y169450D02*
X163485Y180485D01*
X152450Y125470D02*
Y169450D01*
X163485Y180485D02*
Y204955D01*
X167035Y179015D02*
Y204955D01*
X96332Y101000D02*
X97000D01*
X94607Y99275D02*
X96332Y101000D01*
X81802Y102185D02*
X86535D01*
X81562Y102424D02*
X81802Y102185D01*
X89445Y99275D02*
X94607D01*
X86535Y102185D02*
X89445Y99275D01*
X75255Y102424D02*
X81562D01*
X74770Y102909D02*
X75255Y102424D01*
X163260Y205180D02*
X163485Y204955D01*
X163260Y205180D02*
Y208280D01*
X81802Y112185D02*
X139164D01*
X81562Y112424D02*
X81802Y112185D01*
X139164D02*
X152450Y125470D01*
X74770Y112909D02*
X75255Y112424D01*
X74285D02*
X74770Y112909D01*
X75255Y112424D02*
X81562D01*
X67977D02*
X74285D01*
X62000Y114000D02*
X62668D01*
X64483Y112185D01*
X67738D02*
X67977Y112424D01*
X64483Y112185D02*
X67738D01*
X94607Y95725D02*
X96332Y94000D01*
X87974Y95725D02*
X94607D01*
X96332Y94000D02*
X97000D01*
X81562Y98396D02*
X81802Y98635D01*
X85064D02*
X87974Y95725D01*
X81802Y98635D02*
X85064D01*
X75255Y98396D02*
X81562D01*
X74770Y97911D02*
X75255Y98396D01*
X167260Y205180D02*
Y208280D01*
X167035Y204955D02*
X167260Y205180D01*
X140635Y108635D02*
X156000Y124000D01*
X81802Y108635D02*
X140635D01*
X81562Y108396D02*
X81802Y108635D01*
X74285Y108396D02*
X74770Y107911D01*
X67977Y108396D02*
X74285D01*
X75255D02*
X81562D01*
X74770Y107911D02*
X75255Y108396D01*
X67738Y108635D02*
X67977Y108396D01*
X64303Y108635D02*
X67738D01*
X62000Y107000D02*
X62668D01*
X64303Y108635D01*
D22*
X0Y0D02*
X500000D01*
X0Y400000D02*
X500000D01*
Y0D02*
Y400000D01*
X0Y0D02*
Y400000D01*
D24*
X16000Y311000D02*
D03*
Y302000D02*
D03*
X279400Y366340D02*
D03*
Y375340D02*
D03*
X158000Y310500D02*
D03*
Y319500D02*
D03*
D25*
X123210Y277980D02*
D03*
X127210D02*
D03*
X131210D02*
D03*
X135210D02*
D03*
X139210D02*
D03*
X143210D02*
D03*
X147210D02*
D03*
X151210D02*
D03*
X155210D02*
D03*
X159210D02*
D03*
X163210D02*
D03*
X167210D02*
D03*
X171210D02*
D03*
X175210D02*
D03*
Y209280D02*
D03*
X171210D02*
D03*
X167210D02*
D03*
X163210D02*
D03*
X159210D02*
D03*
X155210D02*
D03*
X151210D02*
D03*
X147210D02*
D03*
X143210D02*
D03*
X139210D02*
D03*
X135210D02*
D03*
X131210D02*
D03*
X127210D02*
D03*
X123210D02*
D03*
D26*
X183560Y269630D02*
D03*
Y265630D02*
D03*
Y261630D02*
D03*
Y257630D02*
D03*
Y253630D02*
D03*
Y249630D02*
D03*
Y245630D02*
D03*
Y241630D02*
D03*
Y237630D02*
D03*
Y233630D02*
D03*
Y229630D02*
D03*
Y225630D02*
D03*
Y221630D02*
D03*
Y217630D02*
D03*
X114860D02*
D03*
Y221630D02*
D03*
Y225630D02*
D03*
Y229630D02*
D03*
Y233630D02*
D03*
Y237630D02*
D03*
Y241630D02*
D03*
Y245630D02*
D03*
Y249630D02*
D03*
Y253630D02*
D03*
Y257630D02*
D03*
Y261630D02*
D03*
Y265630D02*
D03*
Y269630D02*
D03*
D27*
X169000Y296000D02*
D03*
D28*
X155000D02*
D03*
X129000Y193000D02*
D03*
X143000D02*
D03*
X212000Y215000D02*
D03*
X198000D02*
D03*
X243000Y138000D02*
D03*
X229000D02*
D03*
X246928Y80906D02*
D03*
X232928D02*
D03*
X185000Y139000D02*
D03*
X171000D02*
D03*
X191000Y82000D02*
D03*
X177000D02*
D03*
X253000Y300000D02*
D03*
X239000D02*
D03*
X481000Y132000D02*
D03*
X467000D02*
D03*
X134000Y88000D02*
D03*
X120000D02*
D03*
X134000Y124000D02*
D03*
X120000D02*
D03*
X59530Y253810D02*
D03*
X45530D02*
D03*
X333360Y379730D02*
D03*
X347360D02*
D03*
X338000Y60000D02*
D03*
X324000D02*
D03*
X259700Y92710D02*
D03*
X273700D02*
D03*
X243000Y152000D02*
D03*
X229000D02*
D03*
X233000Y67000D02*
D03*
X247000D02*
D03*
X185000Y153000D02*
D03*
X171000D02*
D03*
X191000Y68000D02*
D03*
X177000D02*
D03*
X45000Y229000D02*
D03*
X59000D02*
D03*
X198000Y201000D02*
D03*
X212000D02*
D03*
D29*
X429000Y329000D02*
D03*
Y315000D02*
D03*
X120000Y304000D02*
D03*
Y290000D02*
D03*
X331470Y238140D02*
D03*
Y224140D02*
D03*
X486410Y328930D02*
D03*
Y314930D02*
D03*
X467360D02*
D03*
Y328930D02*
D03*
X414000Y329000D02*
D03*
Y315000D02*
D03*
X379000Y80000D02*
D03*
Y94000D02*
D03*
X95250Y163180D02*
D03*
Y177180D02*
D03*
X109220Y163180D02*
D03*
Y177180D02*
D03*
X94000Y81000D02*
D03*
Y67000D02*
D03*
X105680Y304180D02*
D03*
Y290180D02*
D03*
D30*
X58500Y241000D02*
D03*
X49500D02*
D03*
X227500Y365000D02*
D03*
X218500D02*
D03*
X90000Y255000D02*
D03*
X81000D02*
D03*
X136470Y335010D02*
D03*
X145470D02*
D03*
D31*
X16000Y356000D02*
D03*
Y390000D02*
D03*
D32*
X347090Y363870D02*
D03*
D33*
X331090D02*
D03*
D34*
X331470Y272160D02*
D03*
X298450Y95440D02*
D03*
D35*
X331470Y256160D02*
D03*
X298450Y79440D02*
D03*
D36*
X319602Y100954D02*
D03*
X338398D02*
D03*
Y75046D02*
D03*
X329000D02*
D03*
X319602D02*
D03*
D37*
X484000Y161000D02*
D03*
X470000D02*
D03*
X456000D02*
D03*
X442000D02*
D03*
X428000D02*
D03*
X414000D02*
D03*
X400000D02*
D03*
X386000D02*
D03*
Y289000D02*
D03*
X400000D02*
D03*
X414000D02*
D03*
X428000D02*
D03*
X442000D02*
D03*
X456000D02*
D03*
X470000D02*
D03*
X484000D02*
D03*
D38*
X363050Y176000D02*
D03*
Y190000D02*
D03*
Y204000D02*
D03*
Y218000D02*
D03*
Y232000D02*
D03*
Y246000D02*
D03*
Y260000D02*
D03*
Y274000D02*
D03*
D39*
X359998Y62502D02*
D03*
Y91502D02*
D03*
D40*
X228650Y99060D02*
D03*
X238150D02*
D03*
X247650D02*
D03*
Y122760D02*
D03*
X228650D02*
D03*
X170840Y99060D02*
D03*
X180340D02*
D03*
X189840D02*
D03*
Y122760D02*
D03*
X170840D02*
D03*
D41*
X200760Y31119D02*
D03*
Y8419D02*
D03*
X276760D02*
D03*
Y31119D02*
D03*
D42*
X261258Y38234D02*
D03*
X246259D02*
D03*
X216259D02*
D03*
D43*
X265230Y373380D02*
D03*
X240230D02*
D03*
D44*
X43960Y173990D02*
D03*
X77960D02*
D03*
Y205740D02*
D03*
X43960D02*
D03*
D45*
X55142Y38102D02*
D03*
X26142D02*
D03*
D46*
X244120Y345825D02*
D03*
X249120D02*
D03*
X254120D02*
D03*
X259120D02*
D03*
X264120D02*
D03*
X269120D02*
D03*
X274120D02*
D03*
X279120D02*
D03*
X284120D02*
D03*
Y314575D02*
D03*
X279120D02*
D03*
X274120D02*
D03*
X269120D02*
D03*
X264120D02*
D03*
X259120D02*
D03*
X254120D02*
D03*
X249120D02*
D03*
X244120D02*
D03*
X239120D02*
D03*
Y345825D02*
D03*
D47*
X284745Y337700D02*
D03*
Y332700D02*
D03*
Y327700D02*
D03*
Y322700D02*
D03*
X238495D02*
D03*
Y327700D02*
D03*
Y332700D02*
D03*
Y337700D02*
D03*
D48*
X70000Y241000D02*
D03*
Y251000D02*
D03*
D49*
X146240Y322710D02*
D03*
Y309210D02*
D03*
X136240D02*
D03*
Y322710D02*
D03*
D50*
X16000Y335050D02*
D03*
Y343950D02*
D03*
D51*
X25450Y323500D02*
D03*
X16550D02*
D03*
D88*
X16000Y297400D02*
G03*
X43400Y270000I27400J0D01*
G01*
X16000Y311000D02*
Y335050D01*
Y297400D02*
Y302000D01*
X43400Y270000D02*
X114860D01*
X16000Y343950D02*
Y356000D01*
D89*
X149210Y243630D02*
D03*
D90*
X74770Y73410D02*
D03*
Y81408D02*
D03*
Y129409D02*
D03*
Y137410D02*
D03*
D91*
Y87908D02*
D03*
Y92909D02*
D03*
Y107911D02*
D03*
Y112909D02*
D03*
Y117908D02*
D03*
Y122909D02*
D03*
Y102909D02*
D03*
Y97911D02*
D03*
D92*
X252000Y94710D02*
X259700D01*
X354000Y315000D02*
X416500D01*
X331470Y292470D02*
X354000Y315000D01*
X427000D02*
X427000Y315000D01*
X429000D01*
X416000Y315000D02*
X427000D01*
X229000Y123110D02*
Y147486D01*
X171000Y122920D02*
Y153000D01*
X142930Y179930D02*
Y193040D01*
X126180Y163180D02*
X142930Y179930D01*
X171000Y162000D02*
X198000Y189000D01*
Y201000D01*
X203000Y298909D02*
Y311000D01*
Y298909D02*
X203600Y298310D01*
X311600Y272310D02*
X331320D01*
X331470Y272160D01*
X229000Y151000D02*
Y160000D01*
X70000Y240500D02*
X70500D01*
X109220Y163180D02*
X126180D01*
X70500Y240500D02*
X71000Y240000D01*
X77000D01*
X70000Y240500D02*
Y241000D01*
X171000Y152000D02*
Y162000D01*
X171000Y162000D02*
X171000Y162000D01*
X331470Y272160D02*
Y292470D01*
Y238140D02*
Y256160D01*
X49500Y62960D02*
Y111500D01*
X26142Y39602D02*
X49500Y62960D01*
X75020Y81158D02*
X79735D01*
X79893Y81000D02*
X94000D01*
X74770Y81408D02*
X75020Y81158D01*
X79735D02*
X79893Y81000D01*
X26142Y38102D02*
Y39602D01*
X79000Y46000D02*
X179000D01*
X188000Y37000D01*
X71102Y38102D02*
X79000Y46000D01*
X55142Y38102D02*
X71102D01*
X188000Y26000D02*
X194000Y20000D01*
X188000Y26000D02*
Y37000D01*
X194000Y20000D02*
X207000D01*
X235000Y9000D02*
X245490Y19490D01*
X218000Y9000D02*
X235000D01*
X207000Y20000D02*
X218000Y9000D01*
X245490Y37464D02*
X246259Y38234D01*
X245490Y19490D02*
Y37464D01*
X214259Y45734D02*
X216259Y43734D01*
X177150Y66580D02*
Y68580D01*
Y66580D02*
X197996Y45734D01*
X214259D01*
X216259Y38234D02*
Y43734D01*
X325908Y117000D02*
X338398Y104510D01*
Y100954D02*
Y104510D01*
X307000Y117000D02*
X325908D01*
X298450Y108450D02*
X307000Y117000D01*
X298450Y95440D02*
Y108450D01*
X248259Y51259D02*
X291440Y94440D01*
X297450D02*
X298450Y95440D01*
X248259Y40234D02*
Y51259D01*
X291440Y94440D02*
X297450D01*
X246259Y38234D02*
X248259Y40234D01*
X349046Y100954D02*
X358498Y91502D01*
X338398Y100954D02*
X349046D01*
X358498Y91502D02*
X359998D01*
X362497Y94000D01*
X379000D01*
X338104Y62000D02*
X340000D01*
X338000D02*
X338104D01*
Y74752D01*
Y22214D02*
Y62000D01*
X340000D02*
X340502Y62502D01*
X338000Y60000D02*
Y62000D01*
X340502Y62502D02*
X359998D01*
X338104Y74752D02*
X338398Y75046D01*
X336390Y20500D02*
X338104Y22214D01*
X251900Y94810D02*
X252000Y94710D01*
X247650Y95310D02*
Y99060D01*
Y95310D02*
X248150Y94810D01*
X251900D01*
X259700Y92710D02*
Y94710D01*
X233070Y81780D02*
X233570D01*
Y81280D02*
Y81780D01*
X228650Y86200D02*
Y99060D01*
Y86200D02*
X233070Y81780D01*
X233570Y80780D02*
Y81280D01*
X233030Y67310D02*
Y80240D01*
X233570Y80780D01*
X233030Y60504D02*
Y67310D01*
X216259Y43734D02*
X233030Y60504D01*
X177150Y68580D02*
Y70580D01*
X177110Y70620D02*
Y82550D01*
Y70620D02*
X177150Y70580D01*
X177110Y82550D02*
Y83050D01*
X170840Y99060D02*
X171340Y98560D01*
Y88820D02*
Y98560D01*
Y88820D02*
X177110Y83050D01*
D93*
X414000Y289000D02*
Y313000D01*
Y289000D02*
X428000D01*
X400000D02*
X414000D01*
D94*
X117030Y270000D02*
D03*
D95*
X316390Y20500D02*
D03*
D96*
X336390D02*
D03*
D97*
X130000Y375000D02*
D03*
Y25000D02*
D03*
X417500Y375000D02*
D03*
Y25000D02*
D03*
D98*
X27269Y62160D02*
D03*
Y148660D02*
D03*
D99*
X69271Y62160D02*
D03*
Y148660D02*
D03*
D100*
X116000Y276000D02*
D03*
X77000Y321000D02*
D03*
X82000Y293000D02*
D03*
X38000Y253000D02*
D03*
X21000Y241000D02*
D03*
X22000Y254000D02*
D03*
X8000Y268000D02*
D03*
X7000Y298000D02*
D03*
X26000Y301000D02*
D03*
X27000Y187000D02*
D03*
X8000Y206000D02*
D03*
X23000Y218000D02*
D03*
X9000Y228000D02*
D03*
X6000Y310000D02*
D03*
X35000Y280000D02*
D03*
X100000Y225000D02*
D03*
X161000Y291000D02*
D03*
X105000Y277000D02*
D03*
X62000D02*
D03*
X91000D02*
D03*
X76000D02*
D03*
X229000Y342000D02*
D03*
X62000Y264000D02*
D03*
X63000Y293000D02*
D03*
X39000Y324000D02*
D03*
X121000Y192000D02*
D03*
X197000Y82000D02*
D03*
X447000Y326000D02*
D03*
X388000Y331000D02*
D03*
X207000Y378000D02*
D03*
X485000Y143000D02*
D03*
X474000Y110000D02*
D03*
X359000Y160000D02*
D03*
X291000Y135000D02*
D03*
X203000Y229000D02*
D03*
X118000Y201000D02*
D03*
X146000Y62000D02*
D03*
X203600Y298310D02*
D03*
X203000Y332000D02*
D03*
X178000Y327000D02*
D03*
X311600Y272310D02*
D03*
X323000Y215000D02*
D03*
X229000Y160000D02*
D03*
X246000Y183000D02*
D03*
X330600Y349310D02*
D03*
X294000Y327000D02*
D03*
X148000Y343000D02*
D03*
X86000Y331000D02*
D03*
X81000Y309000D02*
D03*
X112000Y340000D02*
D03*
X92000Y348000D02*
D03*
X373000Y300000D02*
D03*
X126180Y163180D02*
D03*
X77000Y240000D02*
D03*
X171000Y162000D02*
D03*
X297000Y375000D02*
D03*
X227000Y311000D02*
D03*
X273000Y338000D02*
D03*
X254000Y324000D02*
D03*
X203000Y311000D02*
D03*
X339000Y180000D02*
D03*
X395000Y67000D02*
D03*
X289000Y52000D02*
D03*
X210000Y122000D02*
D03*
X193000Y152000D02*
D03*
X192000Y139000D02*
D03*
X249000Y138000D02*
D03*
X214000Y154000D02*
D03*
X149600Y261310D02*
D03*
X149000Y223000D02*
D03*
X13000Y192000D02*
D03*
X8000Y255000D02*
D03*
X7000Y241000D02*
D03*
X39000D02*
D03*
X36000Y223000D02*
D03*
X32000Y199000D02*
D03*
Y172000D02*
D03*
X45000Y293000D02*
D03*
X63000Y309000D02*
D03*
X442000Y141000D02*
D03*
X489000Y130000D02*
D03*
X470000Y144000D02*
D03*
X356000Y294000D02*
D03*
X427000Y336000D02*
D03*
X476000Y338000D02*
D03*
X275000Y102000D02*
D03*
X240000Y56000D02*
D03*
X254000Y72000D02*
D03*
X252858Y80626D02*
D03*
X215000Y81000D02*
D03*
X203000Y60000D02*
D03*
X212000Y71000D02*
D03*
X85000Y70000D02*
D03*
X141000Y88000D02*
D03*
X135000Y133000D02*
D03*
X97000Y94000D02*
D03*
Y101000D02*
D03*
X62000Y114000D02*
D03*
Y107000D02*
D03*
X289000Y65000D02*
D03*
X311000Y103000D02*
D03*
Y70000D02*
D03*
X95000Y156000D02*
D03*
X220000Y208000D02*
D03*
X115000Y311000D02*
D03*
X158000Y327000D02*
D03*
X265000Y304000D02*
D03*
X150000Y288000D02*
D03*
X179000Y298000D02*
D03*
X192000Y281000D02*
D03*
X412000Y122000D02*
D03*
X399000Y121000D02*
D03*
X400000Y143000D02*
D03*
X386000D02*
D03*
X48000Y277000D02*
D03*
X97000Y264000D02*
D03*
X86000D02*
D03*
X49000D02*
D03*
X74000D02*
D03*
X9000Y287000D02*
D03*
X5000Y329000D02*
D03*
X163000Y231000D02*
D03*
X31000Y329000D02*
D03*
X27000Y314000D02*
D03*
X52000Y329000D02*
D03*
X70000Y331000D02*
D03*
X71000Y348000D02*
D03*
X136000Y254000D02*
D03*
X71000Y364000D02*
D03*
X137000Y232000D02*
D03*
X71000Y379000D02*
D03*
X164000Y254000D02*
D03*
X71000Y395000D02*
D03*
X44000Y310000D02*
D03*
X27000Y289000D02*
D03*
X15000Y277000D02*
D03*
X149260Y242630D02*
D03*
X25000Y268000D02*
D03*
X37000Y264000D02*
D03*
M02*
