G04*
G04 #@! TF.GenerationSoftware,Altium Limited,Altium Designer,21.6.4 (81)*
G04*
G04 Layer_Color=8388736*
%FSLAX44Y44*%
%MOMM*%
G71*
G04*
G04 #@! TF.SameCoordinates,ED844FB0-3762-473F-B395-F2E91FE73C6E*
G04*
G04*
G04 #@! TF.FilePolarity,Negative*
G04*
G01*
G75*
%ADD22C,0.1000*%
G04:AMPARAMS|DCode=52|XSize=0.7032mm|YSize=0.8032mm|CornerRadius=0.1641mm|HoleSize=0mm|Usage=FLASHONLY|Rotation=90.000|XOffset=0mm|YOffset=0mm|HoleType=Round|Shape=RoundedRectangle|*
%AMROUNDEDRECTD52*
21,1,0.7032,0.4750,0,0,90.0*
21,1,0.3750,0.8032,0,0,90.0*
1,1,0.3282,0.2375,0.1875*
1,1,0.3282,0.2375,-0.1875*
1,1,0.3282,-0.2375,-0.1875*
1,1,0.3282,-0.2375,0.1875*
%
%ADD52ROUNDEDRECTD52*%
%ADD53R,0.3200X0.9400*%
%ADD54R,0.9400X0.3200*%
%ADD55R,5.8000X5.8000*%
%ADD56R,0.5500X0.9500*%
%ADD57R,0.6000X1.0000*%
%ADD58R,1.0000X0.6000*%
G04:AMPARAMS|DCode=59|XSize=0.7032mm|YSize=0.8032mm|CornerRadius=0.1641mm|HoleSize=0mm|Usage=FLASHONLY|Rotation=0.000|XOffset=0mm|YOffset=0mm|HoleType=Round|Shape=RoundedRectangle|*
%AMROUNDEDRECTD59*
21,1,0.7032,0.4750,0,0,0.0*
21,1,0.3750,0.8032,0,0,0.0*
1,1,0.3282,0.1875,-0.2375*
1,1,0.3282,-0.1875,-0.2375*
1,1,0.3282,-0.1875,0.2375*
1,1,0.3282,0.1875,0.2375*
%
%ADD59ROUNDEDRECTD59*%
%ADD60R,1.8032X1.0032*%
%ADD61R,0.8000X1.1000*%
%ADD62R,0.8000X1.1000*%
%ADD63R,1.1000X0.8000*%
%ADD64R,1.1000X0.8000*%
%ADD65R,0.7620X1.4732*%
%ADD66R,1.2032X2.6532*%
%ADD67R,2.6532X1.2032*%
%ADD68R,1.5032X1.2032*%
G04:AMPARAMS|DCode=69|XSize=0.8032mm|YSize=1.5532mm|CornerRadius=0.1466mm|HoleSize=0mm|Usage=FLASHONLY|Rotation=0.000|XOffset=0mm|YOffset=0mm|HoleType=Round|Shape=RoundedRectangle|*
%AMROUNDEDRECTD69*
21,1,0.8032,1.2600,0,0,0.0*
21,1,0.5100,1.5532,0,0,0.0*
1,1,0.2932,0.2550,-0.6300*
1,1,0.2932,-0.2550,-0.6300*
1,1,0.2932,-0.2550,0.6300*
1,1,0.2932,0.2550,0.6300*
%
%ADD69ROUNDEDRECTD69*%
%ADD70R,1.3032X1.1332*%
%ADD71R,1.1032X2.2032*%
%ADD72R,1.3032X2.1032*%
%ADD73R,1.0040X1.9040*%
%ADD74R,1.2032X1.5032*%
%ADD75R,0.5032X0.7282*%
%ADD76R,0.6282X0.5032*%
%ADD77R,0.7032X0.8032*%
%ADD78R,0.9032X0.9532*%
G04:AMPARAMS|DCode=79|XSize=0.7032mm|YSize=0.8032mm|CornerRadius=0.1366mm|HoleSize=0mm|Usage=FLASHONLY|Rotation=90.000|XOffset=0mm|YOffset=0mm|HoleType=Round|Shape=RoundedRectangle|*
%AMROUNDEDRECTD79*
21,1,0.7032,0.5300,0,0,90.0*
21,1,0.4300,0.8032,0,0,90.0*
1,1,0.2732,0.2650,0.2150*
1,1,0.2732,0.2650,-0.2150*
1,1,0.2732,-0.2650,-0.2150*
1,1,0.2732,-0.2650,0.2150*
%
%ADD79ROUNDEDRECTD79*%
G04:AMPARAMS|DCode=80|XSize=0.7032mm|YSize=0.8032mm|CornerRadius=0.1366mm|HoleSize=0mm|Usage=FLASHONLY|Rotation=180.000|XOffset=0mm|YOffset=0mm|HoleType=Round|Shape=RoundedRectangle|*
%AMROUNDEDRECTD80*
21,1,0.7032,0.5300,0,0,180.0*
21,1,0.4300,0.8032,0,0,180.0*
1,1,0.2732,-0.2150,0.2650*
1,1,0.2732,0.2150,0.2650*
1,1,0.2732,0.2150,-0.2650*
1,1,0.2732,-0.2150,-0.2650*
%
%ADD80ROUNDEDRECTD80*%
%ADD81R,1.2000X0.6500*%
%ADD82R,1.2000X0.4000*%
%ADD83C,1.5112*%
%ADD84R,1.5112X1.5112*%
%ADD85O,10.2032X2.4032*%
%ADD86O,1.9000X1.3000*%
%ADD87O,2.1000X1.2000*%
D22*
X0Y0D02*
X500000D01*
X0Y400000D02*
X500000D01*
Y0D02*
Y400000D01*
X0Y0D02*
Y400000D01*
D52*
X16000Y311000D02*
D03*
Y302000D02*
D03*
X279400Y366340D02*
D03*
Y375340D02*
D03*
X158000Y310500D02*
D03*
Y319500D02*
D03*
D53*
X123210Y277980D02*
D03*
X127210D02*
D03*
X131210D02*
D03*
X135210D02*
D03*
X139210D02*
D03*
X143210D02*
D03*
X147210D02*
D03*
X151210D02*
D03*
X155210D02*
D03*
X159210D02*
D03*
X163210D02*
D03*
X167210D02*
D03*
X171210D02*
D03*
X175210D02*
D03*
Y209280D02*
D03*
X171210D02*
D03*
X167210D02*
D03*
X163210D02*
D03*
X159210D02*
D03*
X155210D02*
D03*
X151210D02*
D03*
X147210D02*
D03*
X143210D02*
D03*
X139210D02*
D03*
X135210D02*
D03*
X131210D02*
D03*
X127210D02*
D03*
X123210D02*
D03*
D54*
X183560Y269630D02*
D03*
Y265630D02*
D03*
Y261630D02*
D03*
Y257630D02*
D03*
Y253630D02*
D03*
Y249630D02*
D03*
Y245630D02*
D03*
Y241630D02*
D03*
Y237630D02*
D03*
Y233630D02*
D03*
Y229630D02*
D03*
Y225630D02*
D03*
Y221630D02*
D03*
Y217630D02*
D03*
X114860D02*
D03*
Y221630D02*
D03*
Y225630D02*
D03*
Y229630D02*
D03*
Y233630D02*
D03*
Y237630D02*
D03*
Y241630D02*
D03*
Y245630D02*
D03*
Y249630D02*
D03*
Y253630D02*
D03*
Y257630D02*
D03*
Y261630D02*
D03*
Y265630D02*
D03*
Y269630D02*
D03*
D55*
X149210Y243630D02*
D03*
D56*
X169000Y296000D02*
D03*
D57*
X155000D02*
D03*
X129000Y193000D02*
D03*
X143000D02*
D03*
X212000Y215000D02*
D03*
X198000D02*
D03*
X243000Y138000D02*
D03*
X229000D02*
D03*
X246928Y80906D02*
D03*
X232928D02*
D03*
X185000Y139000D02*
D03*
X171000D02*
D03*
X191000Y82000D02*
D03*
X177000D02*
D03*
X253000Y300000D02*
D03*
X239000D02*
D03*
X481000Y132000D02*
D03*
X467000D02*
D03*
X134000Y88000D02*
D03*
X120000D02*
D03*
X134000Y124000D02*
D03*
X120000D02*
D03*
X59530Y253810D02*
D03*
X45530D02*
D03*
X333360Y379730D02*
D03*
X347360D02*
D03*
X338000Y60000D02*
D03*
X324000D02*
D03*
X259700Y92710D02*
D03*
X273700D02*
D03*
X243000Y152000D02*
D03*
X229000D02*
D03*
X233000Y67000D02*
D03*
X247000D02*
D03*
X185000Y153000D02*
D03*
X171000D02*
D03*
X191000Y68000D02*
D03*
X177000D02*
D03*
X45000Y229000D02*
D03*
X59000D02*
D03*
X198000Y201000D02*
D03*
X212000D02*
D03*
D58*
X429000Y329000D02*
D03*
Y315000D02*
D03*
X120000Y304000D02*
D03*
Y290000D02*
D03*
X331470Y238140D02*
D03*
Y224140D02*
D03*
X486410Y328930D02*
D03*
Y314930D02*
D03*
X467360D02*
D03*
Y328930D02*
D03*
X414000Y329000D02*
D03*
Y315000D02*
D03*
X379000Y80000D02*
D03*
Y94000D02*
D03*
X95250Y163180D02*
D03*
Y177180D02*
D03*
X109220Y163180D02*
D03*
Y177180D02*
D03*
X94000Y81000D02*
D03*
Y67000D02*
D03*
X105680Y304180D02*
D03*
Y290180D02*
D03*
D59*
X58500Y241000D02*
D03*
X49500D02*
D03*
X227500Y365000D02*
D03*
X218500D02*
D03*
X90000Y255000D02*
D03*
X81000D02*
D03*
X136470Y335010D02*
D03*
X145470D02*
D03*
D60*
X16000Y356000D02*
D03*
Y390000D02*
D03*
D61*
X347090Y363870D02*
D03*
D62*
X331090D02*
D03*
D63*
X331470Y272160D02*
D03*
X298450Y95440D02*
D03*
D64*
X331470Y256160D02*
D03*
X298450Y79440D02*
D03*
D65*
X319602Y100954D02*
D03*
X338398D02*
D03*
Y75046D02*
D03*
X329000D02*
D03*
X319602D02*
D03*
D66*
X484000Y161000D02*
D03*
X470000D02*
D03*
X456000D02*
D03*
X442000D02*
D03*
X428000D02*
D03*
X414000D02*
D03*
X400000D02*
D03*
X386000D02*
D03*
Y289000D02*
D03*
X400000D02*
D03*
X414000D02*
D03*
X428000D02*
D03*
X442000D02*
D03*
X456000D02*
D03*
X470000D02*
D03*
X484000D02*
D03*
D67*
X363050Y176000D02*
D03*
Y190000D02*
D03*
Y204000D02*
D03*
Y218000D02*
D03*
Y232000D02*
D03*
Y246000D02*
D03*
Y260000D02*
D03*
Y274000D02*
D03*
D68*
X359998Y62502D02*
D03*
Y91502D02*
D03*
D69*
X228650Y99060D02*
D03*
X238150D02*
D03*
X247650D02*
D03*
Y122760D02*
D03*
X228650D02*
D03*
X170840Y99060D02*
D03*
X180340D02*
D03*
X189840D02*
D03*
Y122760D02*
D03*
X170840D02*
D03*
D70*
X200760Y31119D02*
D03*
Y8419D02*
D03*
X276760D02*
D03*
Y31119D02*
D03*
D71*
X261258Y38234D02*
D03*
X246259D02*
D03*
X216259D02*
D03*
D72*
X265230Y373380D02*
D03*
X240230D02*
D03*
D73*
X43960Y173990D02*
D03*
X77960D02*
D03*
Y205740D02*
D03*
X43960D02*
D03*
D74*
X55142Y38102D02*
D03*
X26142D02*
D03*
D75*
X244120Y345825D02*
D03*
X249120D02*
D03*
X254120D02*
D03*
X259120D02*
D03*
X264120D02*
D03*
X269120D02*
D03*
X274120D02*
D03*
X279120D02*
D03*
X284120D02*
D03*
Y314575D02*
D03*
X279120D02*
D03*
X274120D02*
D03*
X269120D02*
D03*
X264120D02*
D03*
X259120D02*
D03*
X254120D02*
D03*
X249120D02*
D03*
X244120D02*
D03*
X239120D02*
D03*
Y345825D02*
D03*
D76*
X284745Y337700D02*
D03*
Y332700D02*
D03*
Y327700D02*
D03*
Y322700D02*
D03*
X238495D02*
D03*
Y327700D02*
D03*
Y332700D02*
D03*
Y337700D02*
D03*
D77*
X70000Y241000D02*
D03*
Y251000D02*
D03*
D78*
X146240Y322710D02*
D03*
Y309210D02*
D03*
X136240D02*
D03*
Y322710D02*
D03*
D79*
X16000Y335050D02*
D03*
Y343950D02*
D03*
D80*
X25450Y323500D02*
D03*
X16550D02*
D03*
D81*
X74770Y73410D02*
D03*
Y81408D02*
D03*
Y129409D02*
D03*
Y137410D02*
D03*
D82*
Y87908D02*
D03*
Y92909D02*
D03*
Y107911D02*
D03*
Y112909D02*
D03*
Y117908D02*
D03*
Y122909D02*
D03*
Y102909D02*
D03*
Y97911D02*
D03*
D83*
X316390Y20500D02*
D03*
D84*
X336390D02*
D03*
D85*
X130000Y375000D02*
D03*
Y25000D02*
D03*
X417500Y375000D02*
D03*
Y25000D02*
D03*
D86*
X27269Y62160D02*
D03*
Y148660D02*
D03*
D87*
X69271Y62160D02*
D03*
Y148660D02*
D03*
M02*
