G04*
G04 #@! TF.GenerationSoftware,Altium Limited,Altium Designer,21.6.4 (81)*
G04*
G04 Layer_Color=65535*
%FSLAX44Y44*%
%MOMM*%
G71*
G04*
G04 #@! TF.SameCoordinates,ED844FB0-3762-473F-B395-F2E91FE73C6E*
G04*
G04*
G04 #@! TF.FilePolarity,Positive*
G04*
G01*
G75*
%ADD10C,0.2000*%
%ADD11C,0.0000*%
%ADD12C,0.3000*%
%ADD13C,0.3048*%
%ADD14C,0.2540*%
%ADD15C,0.1270*%
%ADD16C,0.1250*%
%ADD17C,0.2032*%
%ADD18C,0.1524*%
%ADD19C,0.2030*%
%ADD20C,0.1500*%
%ADD21C,0.1300*%
%ADD22C,0.1000*%
%ADD23C,0.1200*%
D10*
X106210Y269630D02*
G03*
X106210Y269630I-1000J0D01*
G01*
X17000Y345000D02*
G03*
X17000Y345000I-1000J0D01*
G01*
X229650Y86220D02*
G03*
X229650Y86220I-1000J0D01*
G01*
X337390Y-3500D02*
G03*
X337390Y-3500I-1000J0D01*
G01*
X171840Y86220D02*
G03*
X171840Y86220I-1000J0D01*
G01*
X128740Y325960D02*
G03*
X128740Y325960I-1000J0D01*
G01*
X68500Y257000D02*
X71500D01*
X399000Y89997D02*
X404332D01*
X401666D01*
Y82000D01*
X406997D02*
Y87332D01*
X409663Y89997D01*
X412329Y87332D01*
Y82000D01*
Y85999D01*
X406997D01*
X420326Y82000D02*
X414995D01*
X420326Y87332D01*
Y88665D01*
X418993Y89997D01*
X416328D01*
X414995Y88665D01*
X428324Y89997D02*
X422992D01*
Y85999D01*
X425658Y87332D01*
X426991D01*
X428324Y85999D01*
Y83333D01*
X426991Y82000D01*
X424325D01*
X422992Y83333D01*
X436321Y82000D02*
X430990D01*
X436321Y87332D01*
Y88665D01*
X434988Y89997D01*
X432323D01*
X430990Y88665D01*
X444319Y89997D02*
X441653Y88665D01*
X438987Y85999D01*
Y83333D01*
X440320Y82000D01*
X442986D01*
X444319Y83333D01*
Y84666D01*
X442986Y85999D01*
X438987D01*
X446984Y88665D02*
X448317Y89997D01*
X450983D01*
X452316Y88665D01*
Y83333D01*
X450983Y82000D01*
X448317D01*
X446984Y83333D01*
Y88665D01*
X454982Y82000D02*
X457648D01*
X456315D01*
Y89997D01*
X454982Y88665D01*
X461646D02*
X462979Y89997D01*
X465645D01*
X466978Y88665D01*
Y83333D01*
X465645Y82000D01*
X462979D01*
X461646Y83333D01*
Y88665D01*
X474976Y82000D02*
X469644D01*
X474976Y87332D01*
Y88665D01*
X473643Y89997D01*
X470977D01*
X469644Y88665D01*
X481640Y82000D02*
Y89997D01*
X477641Y85999D01*
X482973D01*
X304233Y249650D02*
X314230D01*
Y254648D01*
X312564Y256315D01*
X305899D01*
X304233Y254648D01*
Y249650D01*
Y259647D02*
X314230D01*
X310898Y262979D01*
X314230Y266311D01*
X304233D01*
X314230Y269644D02*
X304233D01*
X307565Y272976D01*
X304233Y276308D01*
X314230D01*
X320000Y341000D02*
X310003D01*
Y345998D01*
X311669Y347664D01*
X315002D01*
X316668Y345998D01*
Y341000D01*
X310003Y350997D02*
X320000D01*
X316668Y354329D01*
X320000Y357661D01*
X310003D01*
X320000Y360994D02*
X310003D01*
Y365992D01*
X311669Y367658D01*
X315002D01*
X316668Y365992D01*
Y360994D01*
Y364326D02*
X320000Y367658D01*
X362000Y44332D02*
X368665D01*
X365332Y47664D02*
Y41000D01*
X7080Y169640D02*
Y179637D01*
X12078D01*
X13744Y177971D01*
Y174638D01*
X12078Y172972D01*
X7080D01*
X10412D02*
X13744Y169640D01*
X23741Y177971D02*
X22075Y179637D01*
X18743D01*
X17077Y177971D01*
Y176304D01*
X18743Y174638D01*
X22075D01*
X23741Y172972D01*
Y171306D01*
X22075Y169640D01*
X18743D01*
X17077Y171306D01*
X27074Y179637D02*
X33738D01*
X30406D01*
Y169640D01*
X12160Y210117D02*
X15492D01*
X13826D01*
Y200120D01*
X12160D01*
X15492D01*
X25489Y210117D02*
X22157D01*
X20491Y208451D01*
Y201786D01*
X22157Y200120D01*
X25489D01*
X27155Y201786D01*
Y208451D01*
X25489Y210117D01*
X81285Y287998D02*
Y279668D01*
X82952Y278002D01*
X86284D01*
X87950Y279668D01*
Y287998D01*
X91282Y278002D02*
X94614D01*
X92948D01*
Y287998D01*
X91282Y286332D01*
X41400Y378778D02*
X34736D01*
Y368782D01*
X41400D01*
X34736Y373780D02*
X38068D01*
X44732Y368782D02*
X48064D01*
X46398D01*
Y378778D01*
X44732Y377112D01*
X36668Y22999D02*
Y15001D01*
X40667D01*
X42000Y16334D01*
Y21666D01*
X40667Y22999D01*
X36668D01*
X44666Y15001D02*
X47332D01*
X45999D01*
Y22999D01*
X44666Y21666D01*
D11*
X313506Y84952D02*
G03*
X313506Y91048I0J3048D01*
G01*
D12*
X227144Y373380D02*
G03*
X227144Y373380I-1414J0D01*
G01*
D13*
X240620Y353200D02*
G03*
X240620Y353200I-1000J0D01*
G01*
D14*
X395000Y77000D02*
X487000D01*
X395000Y95000D02*
X487000D01*
Y77000D02*
Y95000D01*
X395000Y77000D02*
Y95000D01*
X355840Y357120D02*
Y370620D01*
X324720Y247410D02*
X338220D01*
X291700Y70690D02*
X305200D01*
X271759Y15150D02*
Y24389D01*
X205759Y15150D02*
Y24389D01*
X206759Y6270D02*
X270759D01*
X252840Y33269D02*
X254678D01*
X222840D02*
X239678D01*
X251759Y-13730D02*
Y6270D01*
X238759Y-13730D02*
X251759D01*
X238759D02*
Y6270D01*
X1270Y60409D02*
Y150409D01*
X17458D01*
X37081D02*
X56959D01*
X2760Y59689D02*
X17490D01*
X37050D02*
X56990D01*
D15*
X179510Y278630D02*
X184210D01*
Y273930D02*
Y278630D01*
Y208630D02*
Y213330D01*
X179510Y208630D02*
X184210D01*
X114210D02*
X118910D01*
X114210D02*
Y213330D01*
Y273930D02*
Y278630D01*
X118910D01*
X8000Y363200D02*
Y382800D01*
X24000Y363200D02*
Y382800D01*
X222650Y102410D02*
Y119410D01*
X253650Y102410D02*
Y119410D01*
X252650Y102410D02*
X253650D01*
X252650Y119410D02*
X253650D01*
X222650D02*
X223650D01*
X222650Y102410D02*
X223650D01*
X296890Y3500D02*
X355890D01*
Y48500D01*
X296890Y3500D02*
Y48500D01*
X355890D01*
X164840Y102410D02*
Y119410D01*
X195840Y102410D02*
Y119410D01*
X194840Y102410D02*
X195840D01*
X194840Y119410D02*
X195840D01*
X164840D02*
X165840D01*
X164840Y102410D02*
X165840D01*
X248330Y365880D02*
X257130D01*
X248330Y380880D02*
X257130D01*
X45960Y161490D02*
X75960D01*
X45960Y186490D02*
X75960D01*
X45960Y218240D02*
X75960D01*
X45960Y193240D02*
X75960D01*
X235620Y349200D02*
X287620D01*
Y311200D02*
Y349200D01*
X235620Y311200D02*
X287620D01*
X235620D02*
Y349200D01*
D16*
X151000Y289750D02*
X173000D01*
X151000Y302250D02*
X173000D01*
X151000Y289750D02*
Y302250D01*
X173000Y289750D02*
Y302250D01*
X422750Y311000D02*
X435250D01*
X422750Y333000D02*
X435250D01*
Y311000D02*
Y333000D01*
X422750Y311000D02*
Y333000D01*
X147000Y186750D02*
Y199250D01*
X125000Y186750D02*
Y199250D01*
X147000D01*
X125000Y186750D02*
X147000D01*
X194000Y208750D02*
Y221250D01*
X216000Y208750D02*
Y221250D01*
X194000Y208750D02*
X216000D01*
X194000Y221250D02*
X216000D01*
X113750Y286000D02*
X126250D01*
X113750Y308000D02*
X126250D01*
Y286000D02*
Y308000D01*
X113750Y286000D02*
Y308000D01*
X225000Y131750D02*
Y144250D01*
X247000Y131750D02*
Y144250D01*
X225000Y131750D02*
X247000D01*
X225000Y144250D02*
X247000D01*
X228928Y74656D02*
Y87156D01*
X250928Y74656D02*
Y87156D01*
X228928Y74656D02*
X250928D01*
X228928Y87156D02*
X250928D01*
X167000Y132750D02*
Y145250D01*
X189000Y132750D02*
Y145250D01*
X167000Y132750D02*
X189000D01*
X167000Y145250D02*
X189000D01*
X173000Y75750D02*
Y88250D01*
X195000Y75750D02*
Y88250D01*
X173000Y75750D02*
X195000D01*
X173000Y88250D02*
X195000D01*
X235000Y293750D02*
X257000D01*
X235000Y306250D02*
X257000D01*
X235000Y293750D02*
Y306250D01*
X257000Y293750D02*
Y306250D01*
X463000Y125750D02*
X485000D01*
X463000Y138250D02*
X485000D01*
X463000Y125750D02*
Y138250D01*
X485000Y125750D02*
Y138250D01*
X116000Y81750D02*
Y94250D01*
X138000Y81750D02*
Y94250D01*
X116000Y81750D02*
X138000D01*
X116000Y94250D02*
X138000D01*
X116000Y117750D02*
Y130250D01*
X138000Y117750D02*
Y130250D01*
X116000Y117750D02*
X138000D01*
X116000Y130250D02*
X138000D01*
X41530Y247560D02*
X63530D01*
X41530Y260060D02*
X63530D01*
X41530Y247560D02*
Y260060D01*
X63530Y247560D02*
Y260060D01*
X351360Y373480D02*
Y385980D01*
X329360Y373480D02*
Y385980D01*
X351360D01*
X329360Y373480D02*
X351360D01*
X337720Y220140D02*
Y242140D01*
X325220Y220140D02*
Y242140D01*
Y220140D02*
X337720D01*
X325220Y242140D02*
X337720D01*
X320000Y53750D02*
X342000D01*
X320000Y66250D02*
X342000D01*
X320000Y53750D02*
Y66250D01*
X342000Y53750D02*
Y66250D01*
X492660Y310930D02*
Y332930D01*
X480160Y310930D02*
Y332930D01*
Y310930D02*
X492660D01*
X480160Y332930D02*
X492660D01*
X461110Y310930D02*
Y332930D01*
X473610Y310930D02*
Y332930D01*
X461110D02*
X473610D01*
X461110Y310930D02*
X473610D01*
X407750Y311000D02*
X420250D01*
X407750Y333000D02*
X420250D01*
Y311000D02*
Y333000D01*
X407750Y311000D02*
Y333000D01*
X372750Y98000D02*
X385250D01*
X372750Y76000D02*
X385250D01*
X372750D02*
Y98000D01*
X385250Y76000D02*
Y98000D01*
X255700Y98960D02*
X277700D01*
X255700Y86460D02*
X277700D01*
Y98960D01*
X255700Y86460D02*
Y98960D01*
X225000Y145750D02*
Y158250D01*
X247000Y145750D02*
Y158250D01*
X225000Y145750D02*
X247000D01*
X225000Y158250D02*
X247000D01*
X229000Y73250D02*
X251000D01*
X229000Y60750D02*
X251000D01*
Y73250D01*
X229000Y60750D02*
Y73250D01*
X167000Y146750D02*
Y159250D01*
X189000Y146750D02*
Y159250D01*
X167000Y146750D02*
X189000D01*
X167000Y159250D02*
X189000D01*
X173000Y61750D02*
Y74250D01*
X195000Y61750D02*
Y74250D01*
X173000Y61750D02*
X195000D01*
X173000Y74250D02*
X195000D01*
X89000Y181180D02*
X101500D01*
X89000Y159180D02*
X101500D01*
X89000D02*
Y181180D01*
X101500Y159180D02*
Y181180D01*
X102970Y159180D02*
Y181180D01*
X115470Y159180D02*
Y181180D01*
X102970D02*
X115470D01*
X102970Y159180D02*
X115470D01*
X100250Y63000D02*
Y85000D01*
X87750Y63000D02*
Y85000D01*
Y63000D02*
X100250D01*
X87750Y85000D02*
X100250D01*
X99430Y286180D02*
X111930D01*
X99430Y308180D02*
X111930D01*
Y286180D02*
Y308180D01*
X99430Y286180D02*
Y308180D01*
X63000Y222750D02*
Y235250D01*
X41000Y222750D02*
Y235250D01*
X63000D01*
X41000Y222750D02*
X63000D01*
X194000Y207250D02*
X216000D01*
X194000Y194750D02*
X216000D01*
Y207250D01*
X194000Y194750D02*
Y207250D01*
D17*
X326090Y356870D02*
X352090D01*
X326090Y370870D02*
X352090D01*
X326090Y356870D02*
Y370870D01*
X352090Y356870D02*
Y370870D01*
X324470Y251160D02*
X338470D01*
X324470Y277160D02*
X338470D01*
Y251160D02*
Y277160D01*
X324470Y251160D02*
Y277160D01*
X291450Y74440D02*
X305450D01*
X291450Y100440D02*
X305450D01*
Y74440D02*
Y100440D01*
X291450Y74440D02*
Y100440D01*
X349838Y103362D02*
X370158D01*
X350588Y84312D02*
Y99502D01*
X350498Y54452D02*
X369408D01*
Y68192D01*
X350588Y99502D02*
X369408D01*
Y85812D02*
Y99502D01*
X49452Y28692D02*
X63142D01*
Y47512D01*
X18092Y28692D02*
X31832D01*
X18092D02*
Y47602D01*
X47952Y47512D02*
X63142D01*
X67002Y27942D02*
Y48262D01*
D18*
X313506Y81904D02*
Y84952D01*
Y91048D01*
Y94096D01*
D19*
X350498Y54452D02*
Y68001D01*
X18092Y47602D02*
X31641D01*
D20*
X178030Y50137D02*
Y42140D01*
X182029D01*
X183362Y43473D01*
Y44806D01*
X182029Y46139D01*
X178030D01*
X182029D01*
X183362Y47472D01*
Y48804D01*
X182029Y50137D01*
X178030D01*
X187360Y47472D02*
X190026D01*
X191359Y46139D01*
Y42140D01*
X187360D01*
X186027Y43473D01*
X187360Y44806D01*
X191359D01*
X195358Y48804D02*
Y47472D01*
X194025D01*
X196691D01*
X195358D01*
Y43473D01*
X196691Y42140D01*
X202022Y48804D02*
Y47472D01*
X200689D01*
X203355D01*
X202022D01*
Y43473D01*
X203355Y42140D01*
X260035Y130999D02*
Y124334D01*
X261368Y123001D01*
X264034D01*
X265367Y124334D01*
Y130999D01*
X273365D02*
X270699Y129666D01*
X268033Y127000D01*
Y124334D01*
X269366Y123001D01*
X272032D01*
X273365Y124334D01*
Y125667D01*
X272032Y127000D01*
X268033D01*
X246066Y396429D02*
Y395096D01*
X248731Y392430D01*
X251397Y395096D01*
Y396429D01*
X248731Y392430D02*
Y388431D01*
X259394D02*
X254063D01*
X259394Y393763D01*
Y395096D01*
X258062Y396429D01*
X255396D01*
X254063Y395096D01*
X143969Y299702D02*
X142636D01*
X139970Y297036D01*
X142636Y294370D01*
X143969D01*
X139970Y297036D02*
X135971D01*
Y291704D02*
Y289038D01*
Y290371D01*
X143969D01*
X142636Y291704D01*
X201616Y114489D02*
Y107824D01*
X202948Y106491D01*
X205614D01*
X206947Y107824D01*
Y114489D01*
X214944D02*
X209613D01*
Y110490D01*
X212279Y111823D01*
X213612D01*
X214944Y110490D01*
Y107824D01*
X213612Y106491D01*
X210946D01*
X209613Y107824D01*
X313445Y126289D02*
Y119624D01*
X314778Y118291D01*
X317444D01*
X318777Y119624D01*
Y126289D01*
X325442Y118291D02*
Y126289D01*
X321443Y122290D01*
X326774D01*
X211775Y321499D02*
Y314834D01*
X213108Y313501D01*
X215774D01*
X217107Y314834D01*
Y321499D01*
X219773Y320166D02*
X221106Y321499D01*
X223772D01*
X225105Y320166D01*
Y318833D01*
X223772Y317500D01*
X222439D01*
X223772D01*
X225105Y316167D01*
Y314834D01*
X223772Y313501D01*
X221106D01*
X219773Y314834D01*
X348742Y319147D02*
Y312483D01*
X350075Y311150D01*
X352741D01*
X354074Y312483D01*
Y319147D01*
X362071Y311150D02*
X356739D01*
X362071Y316482D01*
Y317815D01*
X360738Y319147D01*
X358072D01*
X356739Y317815D01*
X128459Y159517D02*
X120461D01*
Y163515D01*
X121794Y164848D01*
X124460D01*
X125793Y163515D01*
Y159517D01*
Y162183D02*
X128459Y164848D01*
Y172846D02*
Y167514D01*
X123127Y172846D01*
X121794D01*
X120461Y171513D01*
Y168847D01*
X121794Y167514D01*
Y175512D02*
X120461Y176845D01*
Y179510D01*
X121794Y180843D01*
X123127D01*
X124460Y179510D01*
X125793Y180843D01*
X127126D01*
X128459Y179510D01*
Y176845D01*
X127126Y175512D01*
X125793D01*
X124460Y176845D01*
X123127Y175512D01*
X121794D01*
X124460Y176845D02*
Y179510D01*
X117003Y99001D02*
Y106999D01*
X121002D01*
X122335Y105666D01*
Y103000D01*
X121002Y101667D01*
X117003D01*
X119669D02*
X122335Y99001D01*
X125001D02*
X127666D01*
X126334D01*
Y106999D01*
X125001Y105666D01*
X135664Y99001D02*
Y106999D01*
X131665Y103000D01*
X136997D01*
X116003Y135001D02*
Y142999D01*
X120002D01*
X121335Y141666D01*
Y139000D01*
X120002Y137667D01*
X116003D01*
X118669D02*
X121335Y135001D01*
X124001D02*
X126666D01*
X125334D01*
Y142999D01*
X124001Y141666D01*
X130665D02*
X131998Y142999D01*
X134664D01*
X135997Y141666D01*
Y140333D01*
X134664Y139000D01*
X133331D01*
X134664D01*
X135997Y137667D01*
Y136334D01*
X134664Y135001D01*
X131998D01*
X130665Y136334D01*
X335469Y193203D02*
X327471D01*
Y197202D01*
X328804Y198535D01*
X331470D01*
X332803Y197202D01*
Y193203D01*
Y195869D02*
X335469Y198535D01*
Y201201D02*
Y203866D01*
Y202534D01*
X327471D01*
X328804Y201201D01*
X335469Y213197D02*
Y207865D01*
X330137Y213197D01*
X328804D01*
X327471Y211864D01*
Y209198D01*
X328804Y207865D01*
X306296Y374461D02*
Y382459D01*
X310295D01*
X311628Y381126D01*
Y378460D01*
X310295Y377127D01*
X306296D01*
X308962D02*
X311628Y374461D01*
X314294D02*
X316959D01*
X315627D01*
Y382459D01*
X314294Y381126D01*
X320958Y374461D02*
X323624D01*
X322291D01*
Y382459D01*
X320958Y381126D01*
X261783Y103951D02*
Y111949D01*
X265782D01*
X267115Y110616D01*
Y107950D01*
X265782Y106617D01*
X261783D01*
X264449D02*
X267115Y103951D01*
X269781D02*
X272446D01*
X271114D01*
Y111949D01*
X269781Y110616D01*
X276445D02*
X277778Y111949D01*
X280444D01*
X281777Y110616D01*
Y105284D01*
X280444Y103951D01*
X277778D01*
X276445Y105284D01*
Y110616D01*
X471359Y338125D02*
X463361D01*
Y342124D01*
X464694Y343457D01*
X467360D01*
X468693Y342124D01*
Y338125D01*
Y340791D02*
X471359Y343457D01*
X463361Y351455D02*
Y346123D01*
X467360D01*
X466027Y348789D01*
Y350122D01*
X467360Y351455D01*
X470026D01*
X471359Y350122D01*
Y347456D01*
X470026Y346123D01*
X490409Y338125D02*
X482411D01*
Y342124D01*
X483744Y343457D01*
X486410D01*
X487743Y342124D01*
Y338125D01*
Y340791D02*
X490409Y343457D01*
Y350122D02*
X482411D01*
X486410Y346123D01*
Y351455D01*
X444476Y126731D02*
Y134729D01*
X448474D01*
X449807Y133396D01*
Y130730D01*
X448474Y129397D01*
X444476D01*
X447141D02*
X449807Y126731D01*
X452473Y133396D02*
X453806Y134729D01*
X456472D01*
X457804Y133396D01*
Y132063D01*
X456472Y130730D01*
X455139D01*
X456472D01*
X457804Y129397D01*
Y128064D01*
X456472Y126731D01*
X453806D01*
X452473Y128064D01*
X293001Y107337D02*
X300999D01*
Y112668D01*
X293001Y115334D02*
X300999D01*
Y119333D01*
X299666Y120666D01*
X294334D01*
X293001Y119333D01*
Y115334D01*
X294334Y123332D02*
X293001Y124664D01*
Y127330D01*
X294334Y128663D01*
X295667D01*
X297000Y127330D01*
Y125997D01*
Y127330D01*
X298333Y128663D01*
X299666D01*
X300999Y127330D01*
Y124664D01*
X299666Y123332D01*
X328741Y282707D02*
X336739D01*
Y288038D01*
X328741Y290704D02*
X336739D01*
Y294703D01*
X335406Y296036D01*
X330074D01*
X328741Y294703D01*
Y290704D01*
X336739Y304033D02*
Y298702D01*
X331407Y304033D01*
X330074D01*
X328741Y302700D01*
Y300035D01*
X330074Y298702D01*
X33386Y327499D02*
Y319501D01*
X38717D01*
X41383Y326166D02*
X42716Y327499D01*
X45382D01*
X46715Y326166D01*
Y324833D01*
X45382Y323500D01*
X44049D01*
X45382D01*
X46715Y322167D01*
Y320834D01*
X45382Y319501D01*
X42716D01*
X41383Y320834D01*
X26001Y332836D02*
X33999D01*
Y338167D01*
Y346165D02*
Y340833D01*
X28667Y346165D01*
X27334D01*
X26001Y344832D01*
Y342166D01*
X27334Y340833D01*
X350266Y118995D02*
Y110998D01*
X354265D01*
X355598Y112331D01*
Y117662D01*
X354265Y118995D01*
X350266D01*
X363595Y110998D02*
X358263D01*
X363595Y116330D01*
Y117662D01*
X362262Y118995D01*
X359596D01*
X358263Y117662D01*
X396094Y315398D02*
X394761Y314065D01*
Y311400D01*
X396094Y310067D01*
X401426D01*
X402759Y311400D01*
Y314065D01*
X401426Y315398D01*
X396094Y318064D02*
X394761Y319397D01*
Y322063D01*
X396094Y323396D01*
X397427D01*
X398760Y322063D01*
Y320730D01*
Y322063D01*
X400093Y323396D01*
X401426D01*
X402759Y322063D01*
Y319397D01*
X401426Y318064D01*
X396094Y326062D02*
X394761Y327394D01*
Y330060D01*
X396094Y331393D01*
X401426D01*
X402759Y330060D01*
Y327394D01*
X401426Y326062D01*
X396094D01*
X441334Y317668D02*
X440001Y316336D01*
Y313670D01*
X441334Y312337D01*
X446666D01*
X447999Y313670D01*
Y316336D01*
X446666Y317668D01*
X447999Y325666D02*
Y320334D01*
X442667Y325666D01*
X441334D01*
X440001Y324333D01*
Y321667D01*
X441334Y320334D01*
X446666Y328332D02*
X447999Y329664D01*
Y332330D01*
X446666Y333663D01*
X441334D01*
X440001Y332330D01*
Y329664D01*
X441334Y328332D01*
X442667D01*
X444000Y329664D01*
Y333663D01*
X111338Y71356D02*
X110006Y72689D01*
X107340D01*
X106007Y71356D01*
Y66024D01*
X107340Y64691D01*
X110006D01*
X111338Y66024D01*
X119336Y64691D02*
X114004D01*
X119336Y70023D01*
Y71356D01*
X118003Y72689D01*
X115337D01*
X114004Y71356D01*
X122002D02*
X123335Y72689D01*
X126000D01*
X127333Y71356D01*
Y70023D01*
X126000Y68690D01*
X127333Y67357D01*
Y66024D01*
X126000Y64691D01*
X123335D01*
X122002Y66024D01*
Y67357D01*
X123335Y68690D01*
X122002Y70023D01*
Y71356D01*
X123335Y68690D02*
X126000D01*
X160666Y343192D02*
X161999Y344524D01*
Y347190D01*
X160666Y348523D01*
X155334D01*
X154001Y347190D01*
Y344524D01*
X155334Y343192D01*
X154001Y335194D02*
Y340526D01*
X159333Y335194D01*
X160666D01*
X161999Y336527D01*
Y339193D01*
X160666Y340526D01*
X161999Y332528D02*
Y327197D01*
X160666D01*
X155334Y332528D01*
X154001D01*
X129288Y350376D02*
X127956Y351709D01*
X125290D01*
X123957Y350376D01*
Y345044D01*
X125290Y343711D01*
X127956D01*
X129288Y345044D01*
X137286Y343711D02*
X131954D01*
X137286Y349043D01*
Y350376D01*
X135953Y351709D01*
X133287D01*
X131954Y350376D01*
X145283Y351709D02*
X142617Y350376D01*
X139952Y347710D01*
Y345044D01*
X141285Y343711D01*
X143950D01*
X145283Y345044D01*
Y346377D01*
X143950Y347710D01*
X139952D01*
X92584Y191518D02*
X91251Y190186D01*
Y187520D01*
X92584Y186187D01*
X97916D01*
X99249Y187520D01*
Y190186D01*
X97916Y191518D01*
X99249Y199516D02*
Y194184D01*
X93917Y199516D01*
X92584D01*
X91251Y198183D01*
Y195517D01*
X92584Y194184D01*
X91251Y207513D02*
Y202182D01*
X95250D01*
X93917Y204847D01*
Y206180D01*
X95250Y207513D01*
X97916D01*
X99249Y206180D01*
Y203515D01*
X97916Y202182D01*
X31334Y298668D02*
X30001Y297335D01*
Y294670D01*
X31334Y293337D01*
X36666D01*
X37999Y294670D01*
Y297335D01*
X36666Y298668D01*
X37999Y306666D02*
Y301334D01*
X32667Y306666D01*
X31334D01*
X30001Y305333D01*
Y302667D01*
X31334Y301334D01*
X37999Y313330D02*
X30001D01*
X34000Y309332D01*
Y314663D01*
X156668Y195666D02*
X155336Y196999D01*
X152670D01*
X151337Y195666D01*
Y190334D01*
X152670Y189001D01*
X155336D01*
X156668Y190334D01*
X164666Y189001D02*
X159334D01*
X164666Y194333D01*
Y195666D01*
X163333Y196999D01*
X160667D01*
X159334Y195666D01*
X167332D02*
X168664Y196999D01*
X171330D01*
X172663Y195666D01*
Y194333D01*
X171330Y193000D01*
X169997D01*
X171330D01*
X172663Y191667D01*
Y190334D01*
X171330Y189001D01*
X168664D01*
X167332Y190334D01*
X199332Y292334D02*
X200664Y291001D01*
X203330D01*
X204663Y292334D01*
Y297666D01*
X203330Y298999D01*
X200664D01*
X199332Y297666D01*
X191334Y298999D02*
X196666D01*
X191334Y293667D01*
Y292334D01*
X192667Y291001D01*
X195333D01*
X196666Y292334D01*
X183337Y298999D02*
X188668D01*
X183337Y293667D01*
Y292334D01*
X184670Y291001D01*
X187335D01*
X188668Y292334D01*
X226401Y203666D02*
X225068Y204999D01*
X222403D01*
X221070Y203666D01*
Y198334D01*
X222403Y197001D01*
X225068D01*
X226401Y198334D01*
X234399Y197001D02*
X229067D01*
X234399Y202333D01*
Y203666D01*
X233066Y204999D01*
X230400D01*
X229067Y203666D01*
X237064Y197001D02*
X239730D01*
X238397D01*
Y204999D01*
X237064Y203666D01*
X226668Y217666D02*
X225336Y218999D01*
X222670D01*
X221337Y217666D01*
Y212334D01*
X222670Y211001D01*
X225336D01*
X226668Y212334D01*
X234666Y211001D02*
X229334D01*
X234666Y216333D01*
Y217666D01*
X233333Y218999D01*
X230667D01*
X229334Y217666D01*
X237332D02*
X238664Y218999D01*
X241330D01*
X242663Y217666D01*
Y212334D01*
X241330Y211001D01*
X238664D01*
X237332Y212334D01*
Y217666D01*
X101334Y318335D02*
X100001Y317002D01*
Y314336D01*
X101334Y313003D01*
X106666D01*
X107999Y314336D01*
Y317002D01*
X106666Y318335D01*
X107999Y321001D02*
Y323666D01*
Y322333D01*
X100001D01*
X101334Y321001D01*
X106666Y327665D02*
X107999Y328998D01*
Y331664D01*
X106666Y332997D01*
X101334D01*
X100001Y331664D01*
Y328998D01*
X101334Y327665D01*
X102667D01*
X104000Y328998D01*
Y332997D01*
X21315Y230396D02*
X19982Y231729D01*
X17316D01*
X15983Y230396D01*
Y225064D01*
X17316Y223731D01*
X19982D01*
X21315Y225064D01*
X23981Y223731D02*
X26646D01*
X25313D01*
Y231729D01*
X23981Y230396D01*
X30645Y231729D02*
X35977D01*
Y230396D01*
X30645Y225064D01*
Y223731D01*
X22465Y256476D02*
X21132Y257809D01*
X18466D01*
X17133Y256476D01*
Y251144D01*
X18466Y249811D01*
X21132D01*
X22465Y251144D01*
X25131Y249811D02*
X27796D01*
X26463D01*
Y257809D01*
X25131Y256476D01*
X37127Y257809D02*
X34461Y256476D01*
X31795Y253810D01*
Y251144D01*
X33128Y249811D01*
X35794D01*
X37127Y251144D01*
Y252477D01*
X35794Y253810D01*
X31795D01*
X299665Y61396D02*
X298332Y62729D01*
X295666D01*
X294333Y61396D01*
Y56064D01*
X295666Y54731D01*
X298332D01*
X299665Y56064D01*
X302331Y54731D02*
X304996D01*
X303664D01*
Y62729D01*
X302331Y61396D01*
X314327Y62729D02*
X308995D01*
Y58730D01*
X311661Y60063D01*
X312994D01*
X314327Y58730D01*
Y56064D01*
X312994Y54731D01*
X310328D01*
X308995Y56064D01*
X378874Y55665D02*
X377541Y54332D01*
Y51666D01*
X378874Y50333D01*
X384206D01*
X385539Y51666D01*
Y54332D01*
X384206Y55665D01*
X385539Y58331D02*
Y60996D01*
Y59664D01*
X377541D01*
X378874Y58331D01*
X385539Y68994D02*
X377541D01*
X381540Y64995D01*
Y70327D01*
X256735Y154666D02*
X255402Y155999D01*
X252736D01*
X251403Y154666D01*
Y149334D01*
X252736Y148001D01*
X255402D01*
X256735Y149334D01*
X259401Y148001D02*
X262066D01*
X260734D01*
Y155999D01*
X259401Y154666D01*
X271397Y148001D02*
X266065D01*
X271397Y153333D01*
Y154666D01*
X270064Y155999D01*
X267398D01*
X266065Y154666D01*
X263955Y78492D02*
X262623Y79825D01*
X259957D01*
X258624Y78492D01*
Y73161D01*
X259957Y71828D01*
X262623D01*
X263955Y73161D01*
X266621Y71828D02*
X269287D01*
X267954D01*
Y79825D01*
X266621Y78492D01*
X273286Y71828D02*
X275952D01*
X274619D01*
Y79825D01*
X273286Y78492D01*
X262005Y65856D02*
X260672Y67189D01*
X258006D01*
X256673Y65856D01*
Y60524D01*
X258006Y59191D01*
X260672D01*
X262005Y60524D01*
X264671Y59191D02*
X267336D01*
X266004D01*
Y67189D01*
X264671Y65856D01*
X271335D02*
X272668Y67189D01*
X275334D01*
X276667Y65856D01*
Y60524D01*
X275334Y59191D01*
X272668D01*
X271335Y60524D01*
Y65856D01*
X199527Y155666D02*
X198194Y156999D01*
X195528D01*
X194195Y155666D01*
Y150334D01*
X195528Y149001D01*
X198194D01*
X199527Y150334D01*
X202193Y155666D02*
X203526Y156999D01*
X206192D01*
X207525Y155666D01*
Y154333D01*
X206192Y153000D01*
X207525Y151667D01*
Y150334D01*
X206192Y149001D01*
X203526D01*
X202193Y150334D01*
Y151667D01*
X203526Y153000D01*
X202193Y154333D01*
Y155666D01*
X203526Y153000D02*
X206192D01*
X204257Y84666D02*
X202924Y85999D01*
X200258D01*
X198925Y84666D01*
Y79334D01*
X200258Y78001D01*
X202924D01*
X204257Y79334D01*
X206923Y85999D02*
X212255D01*
Y84666D01*
X206923Y79334D01*
Y78001D01*
X160417Y70666D02*
X159084Y71999D01*
X156418D01*
X155085Y70666D01*
Y65334D01*
X156418Y64001D01*
X159084D01*
X160417Y65334D01*
X168414Y71999D02*
X165749Y70666D01*
X163083Y68000D01*
Y65334D01*
X164416Y64001D01*
X167082D01*
X168414Y65334D01*
Y66667D01*
X167082Y68000D01*
X163083D01*
X269557Y297916D02*
X268224Y299249D01*
X265558D01*
X264226Y297916D01*
Y292584D01*
X265558Y291251D01*
X268224D01*
X269557Y292584D01*
X277554Y299249D02*
X272223D01*
Y295250D01*
X274889Y296583D01*
X276222D01*
X277554Y295250D01*
Y292584D01*
X276222Y291251D01*
X273556D01*
X272223Y292584D01*
X280607Y390016D02*
X279274Y391349D01*
X276608D01*
X275275Y390016D01*
Y384684D01*
X276608Y383351D01*
X279274D01*
X280607Y384684D01*
X287272Y383351D02*
Y391349D01*
X283273Y387350D01*
X288605D01*
X200077Y367666D02*
X198744Y368999D01*
X196078D01*
X194746Y367666D01*
Y362334D01*
X196078Y361001D01*
X198744D01*
X200077Y362334D01*
X202743Y367666D02*
X204076Y368999D01*
X206742D01*
X208074Y367666D01*
Y366333D01*
X206742Y365000D01*
X205409D01*
X206742D01*
X208074Y363667D01*
Y362334D01*
X206742Y361001D01*
X204076D01*
X202743Y362334D01*
X85500Y244966D02*
X84167Y246299D01*
X81501D01*
X80168Y244966D01*
Y239634D01*
X81501Y238301D01*
X84167D01*
X85500Y239634D01*
X88166Y238301D02*
X90832D01*
X89499D01*
Y246299D01*
X88166Y244966D01*
D21*
X68501Y225668D02*
X73499D01*
Y229000D01*
Y230666D02*
Y232332D01*
Y231499D01*
X68501D01*
X69334Y230666D01*
D22*
X118334Y320084D02*
X117501Y319251D01*
Y317585D01*
X118334Y316752D01*
X121666D01*
X122499Y317585D01*
Y319251D01*
X121666Y320084D01*
X122499Y321750D02*
Y323416D01*
Y322584D01*
X117501D01*
X118334Y321750D01*
Y325916D02*
X117501Y326749D01*
Y328415D01*
X118334Y329248D01*
X119167D01*
X120000Y328415D01*
X120833Y329248D01*
X121666D01*
X122499Y328415D01*
Y326749D01*
X121666Y325916D01*
X120833D01*
X120000Y326749D01*
X119167Y325916D01*
X118334D01*
X120000Y326749D02*
Y328415D01*
X0Y0D02*
X500000D01*
X0Y400000D02*
X500000D01*
Y0D02*
Y400000D01*
X0Y0D02*
Y400000D01*
D23*
X256084Y139666D02*
X255251Y140499D01*
X253585D01*
X252752Y139666D01*
Y136334D01*
X253585Y135501D01*
X255251D01*
X256084Y136334D01*
X257750Y135501D02*
X259417D01*
X258584D01*
Y140499D01*
X257750Y139666D01*
X261916D02*
X262749Y140499D01*
X264415D01*
X265248Y139666D01*
Y138833D01*
X264415Y138000D01*
X263582D01*
X264415D01*
X265248Y137167D01*
Y136334D01*
X264415Y135501D01*
X262749D01*
X261916Y136334D01*
X198757Y140666D02*
X197924Y141499D01*
X196258D01*
X195425Y140666D01*
Y137334D01*
X196258Y136501D01*
X197924D01*
X198757Y137334D01*
X200423D02*
X201256Y136501D01*
X202922D01*
X203755Y137334D01*
Y140666D01*
X202922Y141499D01*
X201256D01*
X200423Y140666D01*
Y139833D01*
X201256Y139000D01*
X203755D01*
X31167Y242666D02*
X30334Y243499D01*
X28668D01*
X27835Y242666D01*
Y239334D01*
X28668Y238501D01*
X30334D01*
X31167Y239334D01*
X36165Y238501D02*
X32833D01*
X36165Y241833D01*
Y242666D01*
X35332Y243499D01*
X33666D01*
X32833Y242666D01*
M02*
