G04*
G04 #@! TF.GenerationSoftware,Altium Limited,Altium Designer,21.6.4 (81)*
G04*
G04 Layer_Physical_Order=3*
G04 Layer_Color=16440176*
%FSLAX44Y44*%
%MOMM*%
G71*
G04*
G04 #@! TF.SameCoordinates,24B6D4D6-EE3F-4001-9891-6B21F71F055C*
G04*
G04*
G04 #@! TF.FilePolarity,Positive*
G04*
G01*
G75*
%ADD16C,0.1000*%
%ADD72C,1.5000*%
%ADD74C,0.4000*%
%ADD77C,2.1000*%
%ADD80C,0.4500*%
G36*
X595000Y5000D02*
X5000D01*
Y595000D01*
X241527D01*
X241793Y594438D01*
X241873Y593730D01*
X240117Y592383D01*
X238627Y590440D01*
X237689Y588178D01*
X237370Y585750D01*
Y579750D01*
X237689Y577323D01*
X238627Y575060D01*
X240117Y573117D01*
X242060Y571627D01*
X244322Y570690D01*
X246750Y570370D01*
X249178Y570690D01*
X251440Y571627D01*
X253383Y573117D01*
X254874Y575060D01*
X255811Y577323D01*
X256130Y579750D01*
Y585750D01*
X255811Y588178D01*
X254874Y590440D01*
X253383Y592383D01*
X251628Y593730D01*
X251707Y594438D01*
X251973Y595000D01*
X328027D01*
X328293Y594438D01*
X328372Y593730D01*
X326617Y592383D01*
X325126Y590440D01*
X324189Y588178D01*
X323870Y585750D01*
Y579750D01*
X324189Y577323D01*
X325126Y575060D01*
X326617Y573117D01*
X328560Y571627D01*
X330822Y570690D01*
X333250Y570370D01*
X335678Y570690D01*
X337940Y571627D01*
X339883Y573117D01*
X341373Y575060D01*
X342310Y577323D01*
X342630Y579750D01*
Y585750D01*
X342310Y588178D01*
X341373Y590440D01*
X339883Y592383D01*
X338127Y593730D01*
X338207Y594438D01*
X338473Y595000D01*
X595000D01*
Y5000D01*
D02*
G37*
%LPC*%
G36*
X300104Y559550D02*
X297896D01*
X295856Y558705D01*
X295000Y557849D01*
X294144Y558705D01*
X292104Y559550D01*
X289896D01*
X287856Y558705D01*
X286295Y557144D01*
X285450Y555104D01*
Y552896D01*
X286295Y550856D01*
X287856Y549295D01*
X289896Y548450D01*
X292104D01*
X294144Y549295D01*
X295000Y550151D01*
X295856Y549295D01*
X297896Y548450D01*
X300104D01*
X302144Y549295D01*
X303705Y550856D01*
X304550Y552896D01*
Y555104D01*
X303705Y557144D01*
X302144Y558705D01*
X300104Y559550D01*
D02*
G37*
G36*
X333250Y554125D02*
X330953Y553822D01*
X328812Y552936D01*
X326974Y551525D01*
X325563Y549687D01*
X324918Y548129D01*
X323539Y548120D01*
X323353Y548553D01*
X323121Y548778D01*
X322995Y549076D01*
X322013Y550040D01*
X321713Y550162D01*
X321483Y550389D01*
X320209Y550910D01*
X319886Y550909D01*
X319586Y551033D01*
X318210Y551033D01*
X317911Y550909D01*
X317588Y550910D01*
X316314Y550390D01*
X316084Y550162D01*
X315784Y550041D01*
X314802Y549076D01*
X314676Y548779D01*
X314444Y548553D01*
X313900Y547289D01*
X313895Y546965D01*
X313766Y546669D01*
X313754Y545981D01*
X313760Y545966D01*
X313753Y545951D01*
X313760Y545936D01*
X313754Y545921D01*
X313766Y545233D01*
X313895Y544936D01*
X313900Y544613D01*
X314443Y543349D01*
X314675Y543123D01*
X314802Y542825D01*
X315784Y541861D01*
X316084Y541740D01*
X316314Y541512D01*
X317587Y540991D01*
X317911Y540992D01*
X318210Y540868D01*
X319586Y540868D01*
X319885Y540992D01*
X320209Y540991D01*
X321483Y541512D01*
X321712Y541740D01*
X322013Y541861D01*
X322994Y542825D01*
X323080Y543027D01*
X324291Y542757D01*
X324374Y542705D01*
Y536249D01*
X324676Y533952D01*
X325563Y531811D01*
X326974Y529973D01*
X328812Y528562D01*
X330953Y527675D01*
X333250Y527373D01*
X335547Y527675D01*
X337688Y528562D01*
X339526Y529973D01*
X340937Y531811D01*
X341823Y533952D01*
X342126Y536249D01*
Y545249D01*
X341823Y547546D01*
X340937Y549687D01*
X339526Y551525D01*
X337688Y552936D01*
X335547Y553822D01*
X333250Y554125D01*
D02*
G37*
G36*
X417817Y568800D02*
X414183D01*
X410673Y567859D01*
X407527Y566043D01*
X404957Y563473D01*
X403140Y560327D01*
X402200Y556817D01*
Y553183D01*
X403140Y549673D01*
X404957Y546527D01*
X407527Y543957D01*
X410673Y542140D01*
X414183Y541200D01*
X417817D01*
X421327Y542140D01*
X424473Y543957D01*
X427043Y546527D01*
X428859Y549673D01*
X429800Y553183D01*
Y556817D01*
X428859Y560327D01*
X427043Y563473D01*
X424473Y566043D01*
X421327Y567859D01*
X417817Y568800D01*
D02*
G37*
G36*
X246750Y554125D02*
X244453Y553822D01*
X242312Y552936D01*
X240474Y551525D01*
X239063Y549687D01*
X238177Y547546D01*
X237874Y545249D01*
Y536249D01*
X238177Y533952D01*
X239063Y531811D01*
X240474Y529973D01*
X242312Y528562D01*
X244453Y527675D01*
X246750Y527373D01*
X249047Y527675D01*
X251188Y528562D01*
X253026Y529973D01*
X254437Y531811D01*
X255324Y533952D01*
X255626Y536249D01*
Y542701D01*
X255705Y542752D01*
X256893Y543081D01*
X257002Y542825D01*
X257983Y541861D01*
X258284Y541740D01*
X258514Y541512D01*
X259787Y540991D01*
X260111Y540992D01*
X260410Y540868D01*
X261786Y540868D01*
X262085Y540992D01*
X262409Y540991D01*
X263682Y541512D01*
X263912Y541740D01*
X264212Y541861D01*
X265194Y542825D01*
X265321Y543123D01*
X265553Y543348D01*
X266096Y544612D01*
X266101Y544936D01*
X266230Y545233D01*
X266243Y545921D01*
X266231Y545950D01*
X266243Y545980D01*
X266230Y546668D01*
X266101Y546965D01*
X266096Y547289D01*
X265553Y548553D01*
X265321Y548778D01*
X265194Y549076D01*
X264213Y550040D01*
X263912Y550162D01*
X263682Y550389D01*
X262409Y550910D01*
X262085Y550909D01*
X261786Y551033D01*
X260410Y551033D01*
X260111Y550909D01*
X259788Y550910D01*
X258514Y550390D01*
X258284Y550162D01*
X257984Y550041D01*
X257002Y549076D01*
X256875Y548779D01*
X256643Y548553D01*
X256459Y548124D01*
X255080Y548133D01*
X254437Y549687D01*
X253026Y551525D01*
X251188Y552936D01*
X249047Y553822D01*
X246750Y554125D01*
D02*
G37*
G36*
X562227Y588300D02*
X557773D01*
X553373Y587603D01*
X549137Y586227D01*
X545168Y584204D01*
X541564Y581586D01*
X538414Y578436D01*
X535796Y574832D01*
X533773Y570863D01*
X532397Y566627D01*
X531700Y562227D01*
Y557773D01*
X532397Y553373D01*
X533773Y549137D01*
X535796Y545168D01*
X538414Y541564D01*
X541564Y538414D01*
X545168Y535796D01*
X549137Y533773D01*
X553373Y532397D01*
X557773Y531700D01*
X562227D01*
X566627Y532397D01*
X570863Y533773D01*
X574832Y535796D01*
X578436Y538414D01*
X581586Y541564D01*
X584204Y545168D01*
X586227Y549137D01*
X587603Y553373D01*
X588300Y557773D01*
Y562227D01*
X587603Y566627D01*
X586227Y570863D01*
X584204Y574832D01*
X581586Y578436D01*
X578436Y581586D01*
X574832Y584204D01*
X570863Y586227D01*
X566627Y587603D01*
X562227Y588300D01*
D02*
G37*
G36*
X42227D02*
X37773D01*
X33373Y587603D01*
X29137Y586227D01*
X25168Y584204D01*
X21564Y581586D01*
X18414Y578436D01*
X15796Y574832D01*
X13773Y570863D01*
X12397Y566627D01*
X11700Y562227D01*
Y557773D01*
X12397Y553373D01*
X13773Y549137D01*
X15796Y545168D01*
X18414Y541564D01*
X21564Y538414D01*
X25168Y535796D01*
X29137Y533773D01*
X33373Y532397D01*
X37773Y531700D01*
X42227D01*
X46627Y532397D01*
X50863Y533773D01*
X54832Y535796D01*
X58436Y538414D01*
X61586Y541564D01*
X64204Y545168D01*
X66227Y549137D01*
X67603Y553373D01*
X68300Y557773D01*
Y562227D01*
X67603Y566627D01*
X66227Y570863D01*
X64204Y574832D01*
X61586Y578436D01*
X58436Y581586D01*
X54832Y584204D01*
X50863Y586227D01*
X46627Y587603D01*
X42227Y588300D01*
D02*
G37*
G36*
X288104Y519550D02*
X285896D01*
X283856Y518705D01*
X283500Y518349D01*
X283144Y518705D01*
X281104Y519550D01*
X278896D01*
X276856Y518705D01*
X275295Y517144D01*
X274450Y515104D01*
Y512896D01*
X275295Y510856D01*
X276856Y509295D01*
X278896Y508450D01*
X281104D01*
X283144Y509295D01*
X283500Y509651D01*
X283856Y509295D01*
X285896Y508450D01*
X288104D01*
X290144Y509295D01*
X291705Y510856D01*
X292550Y512896D01*
Y515104D01*
X291705Y517144D01*
X290144Y518705D01*
X288104Y519550D01*
D02*
G37*
G36*
X140054Y489600D02*
X137846D01*
X135806Y488755D01*
X134245Y487194D01*
X133400Y485154D01*
Y482946D01*
X134245Y480906D01*
X135806Y479345D01*
X137846Y478500D01*
X140054D01*
X142094Y479345D01*
X143655Y480906D01*
X144500Y482946D01*
Y485154D01*
X143655Y487194D01*
X142094Y488755D01*
X140054Y489600D01*
D02*
G37*
G36*
X147104Y444550D02*
X144896D01*
X142856Y443705D01*
X141295Y442144D01*
X140450Y440104D01*
Y437896D01*
X141295Y435856D01*
X142856Y434295D01*
X144896Y433450D01*
X147104D01*
X149144Y434295D01*
X150705Y435856D01*
X151550Y437896D01*
Y440104D01*
X150705Y442144D01*
X149144Y443705D01*
X147104Y444550D01*
D02*
G37*
G36*
X336104Y442550D02*
X333896D01*
X331856Y441705D01*
X330295Y440144D01*
X329450Y438104D01*
Y435896D01*
X330295Y433856D01*
X331856Y432295D01*
X333896Y431450D01*
X336104D01*
X338144Y432295D01*
X339705Y433856D01*
X340550Y435896D01*
Y438104D01*
X339705Y440144D01*
X338144Y441705D01*
X336104Y442550D01*
D02*
G37*
G36*
X58104Y420550D02*
X55896D01*
X53856Y419705D01*
X52295Y418144D01*
X51450Y416104D01*
Y413896D01*
X52295Y411856D01*
X53856Y410295D01*
X55896Y409450D01*
X58104D01*
X60144Y410295D01*
X61705Y411856D01*
X62550Y413896D01*
Y416104D01*
X61705Y418144D01*
X60144Y419705D01*
X58104Y420550D01*
D02*
G37*
G36*
X525104Y418550D02*
X522896D01*
X520856Y417705D01*
X519295Y416144D01*
X518450Y414104D01*
Y411896D01*
X519295Y409856D01*
X520856Y408295D01*
X522896Y407450D01*
X525104D01*
X527144Y408295D01*
X528705Y409856D01*
X529550Y411896D01*
Y414104D01*
X528705Y416144D01*
X527144Y417705D01*
X525104Y418550D01*
D02*
G37*
G36*
X45104Y350550D02*
X42896D01*
X40856Y349705D01*
X39295Y348144D01*
X38450Y346104D01*
Y343896D01*
X39295Y341856D01*
X40856Y340295D01*
X42896Y339450D01*
X45104D01*
X47144Y340295D01*
X48705Y341856D01*
X49550Y343896D01*
Y346104D01*
X48705Y348144D01*
X47144Y349705D01*
X45104Y350550D01*
D02*
G37*
G36*
X178104Y301550D02*
X175896D01*
X173856Y300705D01*
X172295Y299144D01*
X171450Y297104D01*
Y294896D01*
X172295Y292856D01*
X173856Y291295D01*
X175896Y290450D01*
X178104D01*
X180144Y291295D01*
X181705Y292856D01*
X182550Y294896D01*
Y297104D01*
X181705Y299144D01*
X180144Y300705D01*
X178104Y301550D01*
D02*
G37*
G36*
X554104Y290550D02*
X551896D01*
X549856Y289705D01*
X548295Y288144D01*
X547450Y286104D01*
Y283896D01*
X548295Y281856D01*
X549856Y280295D01*
X551896Y279450D01*
X554104D01*
X556144Y280295D01*
X557705Y281856D01*
X558550Y283896D01*
Y286104D01*
X557705Y288144D01*
X556144Y289705D01*
X554104Y290550D01*
D02*
G37*
G36*
X359222Y293800D02*
X356378D01*
X353631Y293064D01*
X351169Y291642D01*
X349158Y289631D01*
X347736Y287169D01*
X347000Y284422D01*
Y281578D01*
X347736Y278831D01*
X349158Y276369D01*
X351169Y274358D01*
X353631Y272936D01*
X356378Y272200D01*
X359222D01*
X361969Y272936D01*
X364431Y274358D01*
X366442Y276369D01*
X367864Y278831D01*
X368600Y281578D01*
Y284422D01*
X367864Y287169D01*
X366442Y289631D01*
X364431Y291642D01*
X361969Y293064D01*
X359222Y293800D01*
D02*
G37*
G36*
X333822D02*
X330978D01*
X328231Y293064D01*
X325769Y291642D01*
X323758Y289631D01*
X322336Y287169D01*
X321600Y284422D01*
Y281578D01*
X322336Y278831D01*
X323758Y276369D01*
X325769Y274358D01*
X328231Y272936D01*
X330978Y272200D01*
X333822D01*
X336569Y272936D01*
X339031Y274358D01*
X341042Y276369D01*
X342464Y278831D01*
X343200Y281578D01*
Y284422D01*
X342464Y287169D01*
X341042Y289631D01*
X339031Y291642D01*
X336569Y293064D01*
X333822Y293800D01*
D02*
G37*
G36*
X292400D02*
X270800D01*
Y272200D01*
X292400D01*
Y293800D01*
D02*
G37*
G36*
X47104Y93550D02*
X44896D01*
X42856Y92705D01*
X41295Y91144D01*
X40450Y89104D01*
Y86896D01*
X41295Y84856D01*
X42856Y83295D01*
X44896Y82450D01*
X47104D01*
X49144Y83295D01*
X50705Y84856D01*
X51550Y86896D01*
Y89104D01*
X50705Y91144D01*
X49144Y92705D01*
X47104Y93550D01*
D02*
G37*
G36*
X128054Y84600D02*
X125846D01*
X123806Y83755D01*
X122245Y82194D01*
X121400Y80154D01*
Y77946D01*
X122245Y75906D01*
X123806Y74345D01*
X125846Y73500D01*
X128054D01*
X130094Y74345D01*
X131655Y75906D01*
X132500Y77946D01*
Y80154D01*
X131655Y82194D01*
X130094Y83755D01*
X128054Y84600D01*
D02*
G37*
G36*
X37104Y83550D02*
X34896D01*
X32856Y82705D01*
X31295Y81144D01*
X30450Y79104D01*
Y76896D01*
X31295Y74856D01*
X32856Y73295D01*
X34896Y72450D01*
X37104D01*
X39144Y73295D01*
X40705Y74856D01*
X41550Y76896D01*
Y79104D01*
X40705Y81144D01*
X39144Y82705D01*
X37104Y83550D01*
D02*
G37*
G36*
X149054Y75600D02*
X146846D01*
X144806Y74755D01*
X143245Y73194D01*
X142400Y71154D01*
Y68946D01*
X143245Y66906D01*
X144806Y65345D01*
X146846Y64500D01*
X149054D01*
X151094Y65345D01*
X152655Y66906D01*
X153500Y68946D01*
Y71154D01*
X152655Y73194D01*
X151094Y74755D01*
X149054Y75600D01*
D02*
G37*
G36*
X562227Y68300D02*
X557773D01*
X553373Y67603D01*
X549137Y66227D01*
X545168Y64204D01*
X541564Y61586D01*
X538414Y58436D01*
X535796Y54832D01*
X533773Y50863D01*
X532397Y46627D01*
X531700Y42227D01*
Y37773D01*
X532397Y33373D01*
X533773Y29137D01*
X535796Y25168D01*
X538414Y21564D01*
X541564Y18414D01*
X545168Y15796D01*
X549137Y13773D01*
X553373Y12397D01*
X557773Y11700D01*
X562227D01*
X566627Y12397D01*
X570863Y13773D01*
X574832Y15796D01*
X578436Y18414D01*
X581586Y21564D01*
X584204Y25168D01*
X586227Y29137D01*
X587603Y33373D01*
X588300Y37773D01*
Y42227D01*
X587603Y46627D01*
X586227Y50863D01*
X584204Y54832D01*
X581586Y58436D01*
X578436Y61586D01*
X574832Y64204D01*
X570863Y66227D01*
X566627Y67603D01*
X562227Y68300D01*
D02*
G37*
G36*
X42227D02*
X37773D01*
X33373Y67603D01*
X29137Y66227D01*
X25168Y64204D01*
X21564Y61586D01*
X18414Y58436D01*
X15796Y54832D01*
X13773Y50863D01*
X12397Y46627D01*
X11700Y42227D01*
Y37773D01*
X12397Y33373D01*
X13773Y29137D01*
X15796Y25168D01*
X18414Y21564D01*
X21564Y18414D01*
X25168Y15796D01*
X29137Y13773D01*
X33373Y12397D01*
X37773Y11700D01*
X42227D01*
X46627Y12397D01*
X50863Y13773D01*
X54832Y15796D01*
X58436Y18414D01*
X61586Y21564D01*
X64204Y25168D01*
X66227Y29137D01*
X67603Y33373D01*
X68300Y37773D01*
Y42227D01*
X67603Y46627D01*
X66227Y50863D01*
X64204Y54832D01*
X61586Y58436D01*
X58436Y61586D01*
X54832Y64204D01*
X50863Y66227D01*
X46627Y67603D01*
X42227Y68300D01*
D02*
G37*
%LPD*%
D16*
X0Y0D02*
X600000D01*
X0Y600000D02*
X600000D01*
Y0D02*
Y600000D01*
X0Y0D02*
Y600000D01*
D72*
X307000Y283000D02*
D03*
D74*
X69300Y173475D02*
D03*
Y191825D02*
D03*
X78475Y164300D02*
D03*
Y182650D02*
D03*
Y201000D02*
D03*
X87650Y173475D02*
D03*
Y191825D02*
D03*
X96825Y164300D02*
D03*
Y182650D02*
D03*
Y201000D02*
D03*
X106000Y173475D02*
D03*
Y191825D02*
D03*
D77*
X466000Y555000D02*
D03*
D80*
X199000Y374000D02*
D03*
X394000Y253000D02*
D03*
X370000Y581000D02*
D03*
X216000Y579000D02*
D03*
X93000Y578000D02*
D03*
X220000Y456000D02*
D03*
X339000Y175000D02*
D03*
X527000Y190000D02*
D03*
X414000Y19000D02*
D03*
X214000Y23000D02*
D03*
X114000Y24000D02*
D03*
X324000Y352000D02*
D03*
X159000Y334000D02*
D03*
X9000Y66000D02*
D03*
X390000Y187000D02*
D03*
X438000Y149000D02*
D03*
X538000Y113000D02*
D03*
X573000D02*
D03*
X567000Y89000D02*
D03*
X462000Y270000D02*
D03*
X511000Y315000D02*
D03*
X574000Y311000D02*
D03*
X537000Y366000D02*
D03*
X549000Y439000D02*
D03*
X501000Y425000D02*
D03*
X537000Y462000D02*
D03*
X489000Y464000D02*
D03*
X374000Y531000D02*
D03*
X333000Y523000D02*
D03*
X253000Y525000D02*
D03*
X173000Y490000D02*
D03*
X116000Y488000D02*
D03*
X14000Y301000D02*
D03*
X206000Y135000D02*
D03*
X435000Y345000D02*
D03*
X417000Y395000D02*
D03*
X451000Y385000D02*
D03*
X307000Y464000D02*
D03*
X270000D02*
D03*
M02*
