M48
;Layer_Color=9474304
;FILE_FORMAT=4:4
METRIC,LZ
;TYPE=PLATED
T1F00S00C0.3000
T3F00S00C0.9000
T4F00S00C1.4000
T5F00S00C3.2000
%
T01
X00009Y00066
X00036Y00078
X00046Y00088
X0012695Y0007905
X0014795Y0007005
X00114Y00024
X00214Y00023
X00206Y00135
X00096825Y001643
X00078475
X000693Y00173475
X00078475Y0018265
X000693Y00191825
X00078475Y00201
X0008765Y00191825
X00096825Y00201
Y0018265
X0008765Y00173475
X00106
Y00191825
X00177Y00296
X00159Y00334
X00199Y00374
X00324Y00352
X00394Y00253
X0039Y00187
X00339Y00175
X00014Y00301
X00044Y00345
X00435
X00451Y00385
X00417Y00395
X00537Y00366
X00511Y00315
X00574Y00311
X00553Y00285
X00462Y0027
X00438Y00149
X00527Y0019
X00538Y00113
X00573
X00567Y00089
X00414Y00019
X00501Y00425
X00524Y00413
X00549Y00439
X00537Y00462
X00489Y00464
X00335Y00437
X00307Y00464
X0027
X0022Y00456
X00173Y0049
X0013895Y0048405
X00116Y00488
X00146Y00439
X00057Y00415
X00093Y00578
X00216Y00579
X00253Y00525
X0028Y00514
X00287Y00514
X00291Y00554
X00299
X00333Y00523
X00374Y00531
X0037Y00581
T03
X002816Y00283
X00307
X003324
X003578
T04
X00416Y00555
X00466
T05
X0004Y0004
X0056
Y0056
X0004
M30
