G04*
G04 #@! TF.GenerationSoftware,Altium Limited,Altium Designer,21.6.4 (81)*
G04*
G04 Layer_Color=65535*
%FSLAX44Y44*%
%MOMM*%
G71*
G04*
G04 #@! TF.SameCoordinates,24B6D4D6-EE3F-4001-9891-6B21F71F055C*
G04*
G04*
G04 #@! TF.FilePolarity,Positive*
G04*
G01*
G75*
%ADD10C,0.2540*%
%ADD11C,0.2000*%
%ADD12C,0.1250*%
%ADD13C,0.2032*%
%ADD14C,0.1270*%
%ADD15C,0.1500*%
%ADD16C,0.1000*%
D10*
X63061Y384000D02*
G03*
X63061Y384000I-1061J0D01*
G01*
X69061Y443000D02*
G03*
X69061Y443000I-1061J0D01*
G01*
X435000Y11000D02*
X530000D01*
X435000Y29000D02*
X530000D01*
Y11000D02*
Y29000D01*
X435000Y11000D02*
Y29000D01*
X412248Y378750D02*
X425748D01*
X401987Y220949D02*
X415487D01*
X244999Y608750D02*
X334999D01*
Y592561D02*
Y608750D01*
Y553061D02*
Y572938D01*
X244279Y592530D02*
Y607260D01*
Y553030D02*
Y572970D01*
X375540Y572618D02*
X385697D01*
X380618Y577697D02*
Y567540D01*
X252540Y281618D02*
X262697D01*
X257618Y286697D02*
Y276540D01*
X402460Y342540D02*
X387225D01*
Y350158D01*
X389764Y352697D01*
X394842D01*
X397382Y350158D01*
Y342540D01*
X387225Y357775D02*
X402460D01*
X397382Y362853D01*
X402460Y367932D01*
X387225D01*
X402460Y373010D02*
X387225D01*
Y380628D01*
X389764Y383167D01*
X394842D01*
X397382Y380628D01*
Y373010D01*
Y378088D02*
X402460Y383167D01*
X424225Y186540D02*
X439460D01*
Y194158D01*
X436921Y196697D01*
X426764D01*
X424225Y194158D01*
Y186540D01*
Y201775D02*
X439460D01*
X434382Y206853D01*
X439460Y211932D01*
X424225D01*
X439460Y217010D02*
X424225D01*
X429303Y222089D01*
X424225Y227167D01*
X439460D01*
X189460Y584460D02*
Y574303D01*
X184382Y569225D01*
X179303Y574303D01*
Y584460D01*
Y576842D01*
X189460D01*
X174225Y584460D02*
Y569225D01*
X164068Y584460D01*
Y569225D01*
X148833Y571764D02*
X151372Y569225D01*
X156451D01*
X158990Y571764D01*
Y581921D01*
X156451Y584460D01*
X151372D01*
X148833Y581921D01*
X143755Y569225D02*
Y584460D01*
Y576842D01*
X133598D01*
Y569225D01*
Y584460D01*
X120902Y569225D02*
X125981D01*
X128520Y571764D01*
Y581921D01*
X125981Y584460D01*
X120902D01*
X118363Y581921D01*
Y571764D01*
X120902Y569225D01*
X113285Y584460D02*
Y569225D01*
X105667D01*
X103128Y571764D01*
Y576842D01*
X105667Y579382D01*
X113285D01*
X108206D02*
X103128Y584460D01*
X257540Y15540D02*
Y25697D01*
X262618Y30775D01*
X267697Y25697D01*
Y15540D01*
Y23157D01*
X257540D01*
X272775Y15540D02*
Y30775D01*
X282932Y15540D01*
Y30775D01*
X298167Y28236D02*
X295628Y30775D01*
X290549D01*
X288010Y28236D01*
Y18079D01*
X290549Y15540D01*
X295628D01*
X298167Y18079D01*
X303245Y30775D02*
Y15540D01*
Y23157D01*
X313402D01*
Y30775D01*
Y15540D01*
X326098Y30775D02*
X321020D01*
X318480Y28236D01*
Y18079D01*
X321020Y15540D01*
X326098D01*
X328637Y18079D01*
Y28236D01*
X326098Y30775D01*
X333715Y15540D02*
Y30775D01*
X341333D01*
X343872Y28236D01*
Y23157D01*
X341333Y20618D01*
X333715D01*
X338794D02*
X343872Y15540D01*
D11*
X559500Y436690D02*
G03*
X559500Y436690I-1000J0D01*
G01*
X13750Y92650D02*
G03*
X13750Y92650I-1000J0D01*
G01*
X451236Y449000D02*
G03*
X451236Y449000I-2236J0D01*
G01*
X430000Y413000D02*
G03*
X430000Y413000I-1000J0D01*
G01*
X432950Y465000D02*
G03*
X432950Y465000I-1000J0D01*
G01*
X148450Y350500D02*
G03*
X148450Y350500I-1000J0D01*
G01*
X386000Y555000D02*
G03*
X386000Y555000I-1000J0D01*
G01*
X268900Y270300D02*
Y295700D01*
X370500D01*
X268900Y270300D02*
X370500D01*
Y295700D01*
X58600Y368500D02*
Y375500D01*
X29400Y368500D02*
X58600D01*
X29400D02*
Y375500D01*
X58600D01*
X76500Y410400D02*
Y439600D01*
Y410400D02*
X83500D01*
Y439600D01*
X76500D02*
X83500D01*
X441000Y23997D02*
X446332D01*
X443666D01*
Y16000D01*
X448997D02*
Y21332D01*
X451663Y23997D01*
X454329Y21332D01*
Y16000D01*
Y19999D01*
X448997D01*
X462326Y16000D02*
X456995D01*
X462326Y21332D01*
Y22664D01*
X460993Y23997D01*
X458328D01*
X456995Y22664D01*
X470324Y23997D02*
X464992D01*
Y19999D01*
X467658Y21332D01*
X468991D01*
X470324Y19999D01*
Y17333D01*
X468991Y16000D01*
X466325D01*
X464992Y17333D01*
X478321Y16000D02*
X472990D01*
X478321Y21332D01*
Y22664D01*
X476988Y23997D01*
X474323D01*
X472990Y22664D01*
X486319Y23997D02*
X483653Y22664D01*
X480987Y19999D01*
Y17333D01*
X482320Y16000D01*
X484986D01*
X486319Y17333D01*
Y18666D01*
X484986Y19999D01*
X480987D01*
X488984Y22664D02*
X490317Y23997D01*
X492983D01*
X494316Y22664D01*
Y17333D01*
X492983Y16000D01*
X490317D01*
X488984Y17333D01*
Y22664D01*
X496982Y16000D02*
X499648D01*
X498315D01*
Y23997D01*
X496982Y22664D01*
X503646D02*
X504979Y23997D01*
X507645D01*
X508978Y22664D01*
Y17333D01*
X507645Y16000D01*
X504979D01*
X503646Y17333D01*
Y22664D01*
X516976Y16000D02*
X511644D01*
X516976Y21332D01*
Y22664D01*
X515643Y23997D01*
X512977D01*
X511644Y22664D01*
X523640Y16000D02*
Y23997D01*
X519641Y19999D01*
X524973D01*
X45000Y506000D02*
Y518996D01*
X51498D01*
X53664Y516830D01*
Y512498D01*
X51498Y510332D01*
X45000D01*
X49332D02*
X53664Y506000D01*
X66660Y516830D02*
X64494Y518996D01*
X60162D01*
X57996Y516830D01*
Y514664D01*
X60162Y512498D01*
X64494D01*
X66660Y510332D01*
Y508166D01*
X64494Y506000D01*
X60162D01*
X57996Y508166D01*
X70992Y518996D02*
X79655D01*
X75324D01*
Y506000D01*
X192000Y514996D02*
X196332D01*
X194166D01*
Y502000D01*
X192000D01*
X196332D01*
X209328Y514996D02*
X204996D01*
X202830Y512830D01*
Y504166D01*
X204996Y502000D01*
X209328D01*
X211494Y504166D01*
Y512830D01*
X209328Y514996D01*
X215826Y512830D02*
X217992Y514996D01*
X222323D01*
X224489Y512830D01*
Y504166D01*
X222323Y502000D01*
X217992D01*
X215826Y504166D01*
Y512830D01*
D12*
X428750Y374000D02*
X441250D01*
X428750Y352000D02*
X441250D01*
X428750D02*
Y374000D01*
X441250Y352000D02*
Y374000D01*
X142000Y420750D02*
X164000D01*
X142000Y433250D02*
X164000D01*
X142000Y420750D02*
Y433250D01*
X164000Y420750D02*
Y433250D01*
X263750Y490000D02*
X276250D01*
X263750Y468000D02*
X276250D01*
X263750D02*
Y490000D01*
X276250Y468000D02*
Y490000D01*
X571000Y96750D02*
Y109250D01*
X549000Y96750D02*
Y109250D01*
X571000D01*
X549000Y96750D02*
X571000D01*
X8000Y73750D02*
X30000D01*
X8000Y86250D02*
X30000D01*
X8000Y73750D02*
Y86250D01*
X30000Y73750D02*
Y86250D01*
X397250Y193000D02*
Y215000D01*
X384750Y193000D02*
Y215000D01*
Y193000D02*
X397250D01*
X384750Y215000D02*
X397250D01*
X511750Y286000D02*
X524250D01*
X511750Y308000D02*
X524250D01*
Y286000D02*
Y308000D01*
X511750Y286000D02*
Y308000D01*
X496750Y286000D02*
X509250D01*
X496750Y308000D02*
X509250D01*
Y286000D02*
Y308000D01*
X496750Y286000D02*
Y308000D01*
X560750Y285000D02*
Y307000D01*
X573250Y285000D02*
Y307000D01*
X560750D02*
X573250D01*
X560750Y285000D02*
X573250D01*
X588250D02*
Y307000D01*
X575750Y285000D02*
Y307000D01*
Y285000D02*
X588250D01*
X575750Y307000D02*
X588250D01*
X381250Y536000D02*
Y558000D01*
X368750Y536000D02*
Y558000D01*
Y536000D02*
X381250D01*
X368750Y558000D02*
X381250D01*
X242000Y508750D02*
X264000D01*
X242000Y521250D02*
X264000D01*
X242000Y508750D02*
Y521250D01*
X264000Y508750D02*
Y521250D01*
X540000Y350750D02*
X562000D01*
X540000Y363250D02*
X562000D01*
X540000Y350750D02*
Y363250D01*
X562000Y350750D02*
Y363250D01*
X540000Y368750D02*
X562000D01*
X540000Y381250D02*
X562000D01*
X540000Y368750D02*
Y381250D01*
X562000Y368750D02*
Y381250D01*
X528000Y418750D02*
Y431250D01*
X506000Y418750D02*
Y431250D01*
X528000D01*
X506000Y418750D02*
X528000D01*
X541000Y447750D02*
X563000D01*
X541000Y460250D02*
X563000D01*
X541000Y447750D02*
Y460250D01*
X563000Y447750D02*
Y460250D01*
X541000Y463750D02*
X563000D01*
X541000Y476250D02*
X563000D01*
X541000Y463750D02*
Y476250D01*
X563000Y463750D02*
Y476250D01*
X108000Y527750D02*
Y540250D01*
X86000Y527750D02*
Y540250D01*
X108000D01*
X86000Y527750D02*
X108000D01*
X164000Y527750D02*
Y540250D01*
X142000Y527750D02*
Y540250D01*
X164000D01*
X142000Y527750D02*
X164000D01*
X144000Y489250D02*
X166000D01*
X144000Y476750D02*
X166000D01*
Y489250D01*
X144000Y476750D02*
Y489250D01*
X87000Y489250D02*
X109000D01*
X87000Y476750D02*
X109000D01*
Y489250D01*
X87000Y476750D02*
Y489250D01*
X318250Y353000D02*
Y375000D01*
X305750Y353000D02*
Y375000D01*
Y353000D02*
X318250D01*
X305750Y375000D02*
X318250D01*
X305750Y329000D02*
Y351000D01*
X318250Y329000D02*
Y351000D01*
X305750D02*
X318250D01*
X305750Y329000D02*
X318250D01*
X312250Y468000D02*
Y490000D01*
X299750Y468000D02*
Y490000D01*
Y468000D02*
X312250D01*
X299750Y490000D02*
X312250D01*
X70000Y390250D02*
X92000D01*
X70000Y377750D02*
X92000D01*
Y390250D01*
X70000Y377750D02*
Y390250D01*
X33000Y427750D02*
X55000D01*
X33000Y440250D02*
X55000D01*
X33000Y427750D02*
Y440250D01*
X55000Y427750D02*
Y440250D01*
D13*
X425998Y349000D02*
Y375000D01*
X411998Y349000D02*
Y375000D01*
Y349000D02*
X425998D01*
X411998Y375000D02*
X425998D01*
X401737Y217199D02*
X415737D01*
X401737Y191199D02*
X415737D01*
X401737D02*
Y217199D01*
X415737Y191199D02*
Y217199D01*
D14*
X563500Y420500D02*
X564500D01*
X563500Y403500D02*
X564500D01*
X533500D02*
X534500D01*
X533500Y420500D02*
X534500D01*
X533500Y403500D02*
Y420500D01*
X564500Y403500D02*
Y420500D01*
X186250Y102650D02*
X192750D01*
Y127150D01*
Y258150D02*
Y282650D01*
X186250D02*
X192750D01*
X-62250Y102650D02*
X2750D01*
X-62250D02*
Y282650D01*
X2750D01*
X365500Y403500D02*
Y415900D01*
Y403500D02*
X400500D01*
X365500Y456100D02*
Y468500D01*
X400500D01*
X458050Y473000D02*
X459950D01*
X458050Y457000D02*
X459950D01*
X148000Y496500D02*
X178000D01*
X148000Y521500D02*
X178000D01*
X91000Y496500D02*
X121000D01*
X91000Y521500D02*
X121000D01*
X255000Y360250D02*
Y395750D01*
X155000Y360250D02*
Y395750D01*
X391000Y595000D02*
X491000D01*
X391000Y520000D02*
Y595000D01*
Y520000D02*
X491000D01*
Y595000D01*
X269000Y328000D02*
Y378000D01*
X301000Y328000D02*
Y378000D01*
D15*
X454999Y354003D02*
X447001D01*
Y358002D01*
X448334Y359335D01*
X451000D01*
X452333Y358002D01*
Y354003D01*
Y356669D02*
X454999Y359335D01*
Y362001D02*
Y364666D01*
Y363334D01*
X447001D01*
X448334Y362001D01*
X454999Y373997D02*
Y368665D01*
X449667Y373997D01*
X448334D01*
X447001Y372664D01*
Y369998D01*
X448334Y368665D01*
X377999Y195336D02*
X370001D01*
Y199335D01*
X371334Y200668D01*
X374000D01*
X375333Y199335D01*
Y195336D01*
Y198002D02*
X377999Y200668D01*
Y203334D02*
Y205999D01*
Y204667D01*
X370001D01*
X371334Y203334D01*
X377999Y209998D02*
Y212664D01*
Y211331D01*
X370001D01*
X371334Y209998D01*
X531334Y292335D02*
X530001Y291002D01*
Y288336D01*
X531334Y287003D01*
X536666D01*
X537999Y288336D01*
Y291002D01*
X536666Y292335D01*
X537999Y295001D02*
Y297666D01*
Y296334D01*
X530001D01*
X531334Y295001D01*
Y301665D02*
X530001Y302998D01*
Y305664D01*
X531334Y306997D01*
X532667D01*
X534000Y305664D01*
X535333Y306997D01*
X536666D01*
X537999Y305664D01*
Y302998D01*
X536666Y301665D01*
X535333D01*
X534000Y302998D01*
X532667Y301665D01*
X531334D01*
X534000Y302998D02*
Y305664D01*
X483334Y292335D02*
X482001Y291002D01*
Y288336D01*
X483334Y287003D01*
X488666D01*
X489999Y288336D01*
Y291002D01*
X488666Y292335D01*
X489999Y295001D02*
Y297666D01*
Y296334D01*
X482001D01*
X483334Y295001D01*
X482001Y301665D02*
Y306997D01*
X483334D01*
X488666Y301665D01*
X489999D01*
X267716Y400427D02*
Y399095D01*
X270382Y396429D01*
X273048Y399095D01*
Y400427D01*
X270382Y396429D02*
Y392430D01*
X275713D02*
X278379D01*
X277046D01*
Y400427D01*
X275713Y399095D01*
X569336Y413999D02*
Y407334D01*
X570668Y406001D01*
X573334D01*
X574667Y407334D01*
Y413999D01*
X582664D02*
X579999Y412666D01*
X577333Y410000D01*
Y407334D01*
X578666Y406001D01*
X581332D01*
X582664Y407334D01*
Y408667D01*
X581332Y410000D01*
X577333D01*
X327336Y468999D02*
Y462334D01*
X328668Y461001D01*
X331334D01*
X332667Y462334D01*
Y468999D01*
X340664D02*
X335333D01*
Y465000D01*
X337999Y466333D01*
X339332D01*
X340664Y465000D01*
Y462334D01*
X339332Y461001D01*
X336666D01*
X335333Y462334D01*
X134335Y407999D02*
Y401334D01*
X135668Y400001D01*
X138334D01*
X139667Y401334D01*
Y407999D01*
X147664Y400001D02*
X142333D01*
X147664Y405333D01*
Y406666D01*
X146332Y407999D01*
X143666D01*
X142333Y406666D01*
X63500Y459863D02*
X68832D01*
X66166D01*
Y451866D01*
X76829D02*
X71497D01*
X76829Y457198D01*
Y458531D01*
X75496Y459863D01*
X72830D01*
X71497Y458531D01*
X21999Y376332D02*
Y371000D01*
Y373666D01*
X14001D01*
Y368334D02*
Y365668D01*
Y367001D01*
X21999D01*
X20666Y368334D01*
X498003Y405001D02*
Y412999D01*
X502002D01*
X503335Y411666D01*
Y409000D01*
X502002Y407667D01*
X498003D01*
X500669D02*
X503335Y405001D01*
X506001D02*
X508666D01*
X507334D01*
Y412999D01*
X506001Y411666D01*
X512665D02*
X513998Y412999D01*
X516664D01*
X517997Y411666D01*
Y406334D01*
X516664Y405001D01*
X513998D01*
X512665Y406334D01*
Y411666D01*
X33782Y447548D02*
Y455545D01*
X37781D01*
X39114Y454212D01*
Y451547D01*
X37781Y450214D01*
X33782D01*
X36448D02*
X39114Y447548D01*
X41779Y448881D02*
X43112Y447548D01*
X45778D01*
X47111Y448881D01*
Y454212D01*
X45778Y455545D01*
X43112D01*
X41779Y454212D01*
Y452880D01*
X43112Y451547D01*
X47111D01*
X70866Y397510D02*
Y405507D01*
X74865D01*
X76198Y404174D01*
Y401509D01*
X74865Y400176D01*
X70866D01*
X73532D02*
X76198Y397510D01*
X78863Y404174D02*
X80196Y405507D01*
X82862D01*
X84195Y404174D01*
Y402842D01*
X82862Y401509D01*
X84195Y400176D01*
Y398843D01*
X82862Y397510D01*
X80196D01*
X78863Y398843D01*
Y400176D01*
X80196Y401509D01*
X78863Y402842D01*
Y404174D01*
X80196Y401509D02*
X82862D01*
X246336Y468001D02*
Y475999D01*
X250334D01*
X251667Y474666D01*
Y472000D01*
X250334Y470667D01*
X246336D01*
X249001D02*
X251667Y468001D01*
X254333Y475999D02*
X259664D01*
Y474666D01*
X254333Y469334D01*
Y468001D01*
X300736Y497332D02*
Y505329D01*
X304735D01*
X306068Y503997D01*
Y501331D01*
X304735Y499998D01*
X300736D01*
X303402D02*
X306068Y497332D01*
X314065Y505329D02*
X311399Y503997D01*
X308733Y501331D01*
Y498665D01*
X310066Y497332D01*
X312732D01*
X314065Y498665D01*
Y499998D01*
X312732Y501331D01*
X308733D01*
X569999Y311336D02*
X562001D01*
Y315334D01*
X563334Y316667D01*
X566000D01*
X567333Y315334D01*
Y311336D01*
Y314001D02*
X569999Y316667D01*
X562001Y324664D02*
Y319333D01*
X566000D01*
X564667Y321999D01*
Y323332D01*
X566000Y324664D01*
X568666D01*
X569999Y323332D01*
Y320666D01*
X568666Y319333D01*
X585999Y312335D02*
X578001D01*
Y316334D01*
X579334Y317667D01*
X582000D01*
X583333Y316334D01*
Y312335D01*
Y315001D02*
X585999Y317667D01*
Y324332D02*
X578001D01*
X582000Y320333D01*
Y325664D01*
X527336Y98001D02*
Y105999D01*
X531334D01*
X532667Y104666D01*
Y102000D01*
X531334Y100667D01*
X527336D01*
X530001D02*
X532667Y98001D01*
X535333Y104666D02*
X536666Y105999D01*
X539332D01*
X540664Y104666D01*
Y103333D01*
X539332Y102000D01*
X537999D01*
X539332D01*
X540664Y100667D01*
Y99334D01*
X539332Y98001D01*
X536666D01*
X535333Y99334D01*
X116335Y529001D02*
Y536999D01*
X120334D01*
X121667Y535666D01*
Y533000D01*
X120334Y531667D01*
X116335D01*
X119001D02*
X121667Y529001D01*
X129664D02*
X124333D01*
X129664Y534333D01*
Y535666D01*
X128332Y536999D01*
X125666D01*
X124333Y535666D01*
X173668Y530001D02*
Y537999D01*
X177667D01*
X179000Y536666D01*
Y534000D01*
X177667Y532667D01*
X173668D01*
X176334D02*
X179000Y530001D01*
X181666D02*
X184332D01*
X182999D01*
Y537999D01*
X181666Y536666D01*
X356334Y543335D02*
X355001Y542002D01*
Y539336D01*
X356334Y538003D01*
X361666D01*
X362999Y539336D01*
Y542002D01*
X361666Y543335D01*
X362999Y546001D02*
Y548666D01*
Y547334D01*
X355001D01*
X356334Y546001D01*
X355001Y557997D02*
X356334Y555331D01*
X359000Y552665D01*
X361666D01*
X362999Y553998D01*
Y556664D01*
X361666Y557997D01*
X360333D01*
X359000Y556664D01*
Y552665D01*
X64335Y485666D02*
X63002Y486999D01*
X60336D01*
X59003Y485666D01*
Y480334D01*
X60336Y479001D01*
X63002D01*
X64335Y480334D01*
X67001Y479001D02*
X69666D01*
X68334D01*
Y486999D01*
X67001Y485666D01*
X78997Y486999D02*
X73665D01*
Y483000D01*
X76331Y484333D01*
X77664D01*
X78997Y483000D01*
Y480334D01*
X77664Y479001D01*
X74998D01*
X73665Y480334D01*
X177335Y485666D02*
X176002Y486999D01*
X173336D01*
X172003Y485666D01*
Y480334D01*
X173336Y479001D01*
X176002D01*
X177335Y480334D01*
X180001Y479001D02*
X182666D01*
X181334D01*
Y486999D01*
X180001Y485666D01*
X190664Y479001D02*
Y486999D01*
X186665Y483000D01*
X191997D01*
X518335Y359666D02*
X517002Y360999D01*
X514336D01*
X513003Y359666D01*
Y354334D01*
X514336Y353001D01*
X517002D01*
X518335Y354334D01*
X521001Y353001D02*
X523666D01*
X522334D01*
Y360999D01*
X521001Y359666D01*
X527665D02*
X528998Y360999D01*
X531664D01*
X532997Y359666D01*
Y358333D01*
X531664Y357000D01*
X530331D01*
X531664D01*
X532997Y355667D01*
Y354334D01*
X531664Y353001D01*
X528998D01*
X527665Y354334D01*
X519335Y377666D02*
X518002Y378999D01*
X515336D01*
X514003Y377666D01*
Y372334D01*
X515336Y371001D01*
X518002D01*
X519335Y372334D01*
X522001Y371001D02*
X524666D01*
X523334D01*
Y378999D01*
X522001Y377666D01*
X533997Y371001D02*
X528665D01*
X533997Y376333D01*
Y377666D01*
X532664Y378999D01*
X529998D01*
X528665Y377666D01*
X521668Y472666D02*
X520335Y473999D01*
X517669D01*
X516336Y472666D01*
Y467334D01*
X517669Y466001D01*
X520335D01*
X521668Y467334D01*
X524333Y466001D02*
X526999D01*
X525667D01*
Y473999D01*
X524333Y472666D01*
X530998Y466001D02*
X533664D01*
X532331D01*
Y473999D01*
X530998Y472666D01*
X520335Y456666D02*
X519002Y457999D01*
X516336D01*
X515003Y456666D01*
Y451334D01*
X516336Y450001D01*
X519002D01*
X520335Y451334D01*
X523001Y450001D02*
X525666D01*
X524333D01*
Y457999D01*
X523001Y456666D01*
X529665D02*
X530998Y457999D01*
X533664D01*
X534997Y456666D01*
Y451334D01*
X533664Y450001D01*
X530998D01*
X529665Y451334D01*
Y456666D01*
X477667Y437666D02*
X476334Y438999D01*
X473668D01*
X472336Y437666D01*
Y432334D01*
X473668Y431001D01*
X476334D01*
X477667Y432334D01*
X480333Y438999D02*
X485664D01*
Y437666D01*
X480333Y432334D01*
Y431001D01*
X455667Y487666D02*
X454334Y488999D01*
X451668D01*
X450336Y487666D01*
Y482334D01*
X451668Y481001D01*
X454334D01*
X455667Y482334D01*
X463665Y488999D02*
X460999Y487666D01*
X458333Y485000D01*
Y482334D01*
X459666Y481001D01*
X462332D01*
X463665Y482334D01*
Y483667D01*
X462332Y485000D01*
X458333D01*
X247667Y502666D02*
X246334Y503999D01*
X243668D01*
X242335Y502666D01*
Y497334D01*
X243668Y496001D01*
X246334D01*
X247667Y497334D01*
X255665Y503999D02*
X250333D01*
Y500000D01*
X252999Y501333D01*
X254332D01*
X255665Y500000D01*
Y497334D01*
X254332Y496001D01*
X251666D01*
X250333Y497334D01*
X329667Y365666D02*
X328334Y366999D01*
X325668D01*
X324336Y365666D01*
Y360334D01*
X325668Y359001D01*
X328334D01*
X329667Y360334D01*
X336332Y359001D02*
Y366999D01*
X332333Y363000D01*
X337664D01*
X328667Y340666D02*
X327334Y341999D01*
X324668D01*
X323335Y340666D01*
Y335334D01*
X324668Y334001D01*
X327334D01*
X328667Y335334D01*
X331333Y340666D02*
X332666Y341999D01*
X335332D01*
X336665Y340666D01*
Y339333D01*
X335332Y338000D01*
X333999D01*
X335332D01*
X336665Y336667D01*
Y335334D01*
X335332Y334001D01*
X332666D01*
X331333Y335334D01*
X42667Y81666D02*
X41334Y82999D01*
X38668D01*
X37336Y81666D01*
Y76334D01*
X38668Y75001D01*
X41334D01*
X42667Y76334D01*
X50665Y75001D02*
X45333D01*
X50665Y80333D01*
Y81666D01*
X49332Y82999D01*
X46666D01*
X45333Y81666D01*
X174000Y429666D02*
X172667Y430999D01*
X170001D01*
X168668Y429666D01*
Y424334D01*
X170001Y423001D01*
X172667D01*
X174000Y424334D01*
X176666Y423001D02*
X179332D01*
X177999D01*
Y430999D01*
X176666Y429666D01*
D16*
X0Y0D02*
X600000D01*
X0Y600000D02*
X600000D01*
Y0D02*
Y600000D01*
X0Y0D02*
Y600000D01*
M02*
