G04*
G04 #@! TF.GenerationSoftware,Altium Limited,Altium Designer,21.6.4 (81)*
G04*
G04 Layer_Physical_Order=4*
G04 Layer_Color=16711680*
%FSLAX44Y44*%
%MOMM*%
G71*
G04*
G04 #@! TF.SameCoordinates,24B6D4D6-EE3F-4001-9891-6B21F71F055C*
G04*
G04*
G04 #@! TF.FilePolarity,Positive*
G04*
G01*
G75*
%ADD16C,0.1000*%
%ADD67C,0.3000*%
%ADD69C,0.5000*%
%ADD71C,0.2030*%
%ADD72C,1.5000*%
%ADD73R,1.5000X1.5000*%
%ADD74C,0.4000*%
%ADD75C,5.0000*%
%ADD76R,2.1000X2.1000*%
%ADD77C,2.1000*%
%ADD78O,1.2000X1.8000*%
%ADD79O,1.1000X2.0000*%
%ADD80C,0.4500*%
G36*
X595000Y5000D02*
X5000D01*
Y595000D01*
X241527D01*
X241793Y594438D01*
X241873Y593730D01*
X240117Y592383D01*
X238627Y590440D01*
X237689Y588178D01*
X237370Y585750D01*
Y579750D01*
X237689Y577323D01*
X238627Y575060D01*
X240117Y573117D01*
X242060Y571627D01*
X244322Y570690D01*
X246750Y570370D01*
X249178Y570690D01*
X251440Y571627D01*
X253383Y573117D01*
X254874Y575060D01*
X255811Y577323D01*
X256130Y579750D01*
Y585750D01*
X255811Y588178D01*
X254874Y590440D01*
X253383Y592383D01*
X251628Y593730D01*
X251707Y594438D01*
X251973Y595000D01*
X328027D01*
X328293Y594438D01*
X328372Y593730D01*
X326617Y592383D01*
X325126Y590440D01*
X324189Y588178D01*
X323870Y585750D01*
Y579750D01*
X324189Y577323D01*
X325126Y575060D01*
X326617Y573117D01*
X328560Y571627D01*
X330822Y570690D01*
X333250Y570370D01*
X335678Y570690D01*
X337940Y571627D01*
X339883Y573117D01*
X341373Y575060D01*
X342310Y577323D01*
X342630Y579750D01*
Y585750D01*
X342310Y588178D01*
X341373Y590440D01*
X339883Y592383D01*
X338127Y593730D01*
X338207Y594438D01*
X338473Y595000D01*
X595000D01*
Y5000D01*
D02*
G37*
%LPC*%
G36*
X300104Y559550D02*
X297896D01*
X295856Y558705D01*
X295000Y557849D01*
X294144Y558705D01*
X292104Y559550D01*
X289896D01*
X287856Y558705D01*
X286295Y557144D01*
X285450Y555104D01*
Y552896D01*
X286295Y550856D01*
X287856Y549295D01*
X288815Y548898D01*
Y544459D01*
X278604Y534248D01*
X277650Y532820D01*
X277316Y531137D01*
Y518895D01*
X276856Y518705D01*
X275295Y517144D01*
X274450Y515104D01*
Y512896D01*
X275295Y510856D01*
X276856Y509295D01*
X278896Y508450D01*
X281104D01*
X283144Y509295D01*
X283500Y509651D01*
X283856Y509295D01*
X285896Y508450D01*
X288104D01*
X290144Y509295D01*
X291705Y510856D01*
X292550Y512896D01*
Y515104D01*
X291705Y517144D01*
X290144Y518705D01*
X289685Y518895D01*
Y527836D01*
X299896Y538047D01*
X300850Y539474D01*
X301185Y541158D01*
Y548898D01*
X302144Y549295D01*
X303705Y550856D01*
X304550Y552896D01*
Y555104D01*
X303705Y557144D01*
X302144Y558705D01*
X300104Y559550D01*
D02*
G37*
G36*
X333250Y554125D02*
X330953Y553822D01*
X328812Y552936D01*
X326974Y551525D01*
X325563Y549687D01*
X324918Y548129D01*
X323539Y548120D01*
X323353Y548553D01*
X323121Y548778D01*
X322995Y549076D01*
X322013Y550040D01*
X321713Y550162D01*
X321483Y550389D01*
X320209Y550910D01*
X319886Y550909D01*
X319586Y551033D01*
X318210Y551033D01*
X317911Y550909D01*
X317588Y550910D01*
X316314Y550390D01*
X316084Y550162D01*
X315784Y550041D01*
X314802Y549076D01*
X314676Y548779D01*
X314444Y548553D01*
X313900Y547289D01*
X313895Y546965D01*
X313766Y546669D01*
X313754Y545981D01*
X313760Y545966D01*
X313753Y545951D01*
X313760Y545936D01*
X313754Y545921D01*
X313766Y545233D01*
X313895Y544936D01*
X313900Y544613D01*
X314443Y543349D01*
X314675Y543123D01*
X314802Y542825D01*
X315784Y541861D01*
X316084Y541740D01*
X316314Y541512D01*
X317587Y540991D01*
X317911Y540992D01*
X318210Y540868D01*
X319586Y540868D01*
X319885Y540992D01*
X320209Y540991D01*
X321483Y541512D01*
X321712Y541740D01*
X322013Y541861D01*
X322994Y542825D01*
X323080Y543027D01*
X324291Y542757D01*
X324374Y542705D01*
Y536249D01*
X324676Y533952D01*
X325563Y531811D01*
X326974Y529973D01*
X328812Y528562D01*
X330953Y527675D01*
X333250Y527373D01*
X335547Y527675D01*
X337688Y528562D01*
X339526Y529973D01*
X340937Y531811D01*
X341823Y533952D01*
X342126Y536249D01*
Y545249D01*
X341823Y547546D01*
X340937Y549687D01*
X339526Y551525D01*
X337688Y552936D01*
X335547Y553822D01*
X333250Y554125D01*
D02*
G37*
G36*
X246750D02*
X244453Y553822D01*
X242312Y552936D01*
X240474Y551525D01*
X239063Y549687D01*
X238177Y547546D01*
X237874Y545249D01*
Y536249D01*
X238177Y533952D01*
X239063Y531811D01*
X240474Y529973D01*
X242312Y528562D01*
X244453Y527675D01*
X246750Y527373D01*
X249047Y527675D01*
X251188Y528562D01*
X253026Y529973D01*
X254437Y531811D01*
X255324Y533952D01*
X255626Y536249D01*
Y542701D01*
X255705Y542752D01*
X256893Y543081D01*
X257002Y542825D01*
X257983Y541861D01*
X258284Y541740D01*
X258514Y541512D01*
X259787Y540991D01*
X260111Y540992D01*
X260410Y540868D01*
X261786Y540868D01*
X262085Y540992D01*
X262409Y540991D01*
X263682Y541512D01*
X263912Y541740D01*
X264212Y541861D01*
X265194Y542825D01*
X265321Y543123D01*
X265553Y543348D01*
X266096Y544612D01*
X266101Y544936D01*
X266230Y545233D01*
X266243Y545921D01*
X266231Y545950D01*
X266243Y545980D01*
X266230Y546668D01*
X266101Y546965D01*
X266096Y547289D01*
X265553Y548553D01*
X265321Y548778D01*
X265194Y549076D01*
X264213Y550040D01*
X263912Y550162D01*
X263682Y550389D01*
X262409Y550910D01*
X262085Y550909D01*
X261786Y551033D01*
X260410Y551033D01*
X260111Y550909D01*
X259788Y550910D01*
X258514Y550390D01*
X258284Y550162D01*
X257984Y550041D01*
X257002Y549076D01*
X256875Y548779D01*
X256643Y548553D01*
X256459Y548124D01*
X255080Y548133D01*
X254437Y549687D01*
X253026Y551525D01*
X251188Y552936D01*
X249047Y553822D01*
X246750Y554125D01*
D02*
G37*
G36*
X562227Y588300D02*
X557773D01*
X553373Y587603D01*
X549137Y586227D01*
X545168Y584204D01*
X541564Y581586D01*
X538414Y578436D01*
X535796Y574832D01*
X533773Y570863D01*
X532397Y566627D01*
X531700Y562227D01*
Y557773D01*
X532397Y553373D01*
X533773Y549137D01*
X535796Y545168D01*
X538414Y541564D01*
X541564Y538414D01*
X545168Y535796D01*
X549137Y533773D01*
X553373Y532397D01*
X557773Y531700D01*
X562227D01*
X566627Y532397D01*
X570863Y533773D01*
X574832Y535796D01*
X578436Y538414D01*
X581586Y541564D01*
X584204Y545168D01*
X586227Y549137D01*
X587603Y553373D01*
X588300Y557773D01*
Y562227D01*
X587603Y566627D01*
X586227Y570863D01*
X584204Y574832D01*
X581586Y578436D01*
X578436Y581586D01*
X574832Y584204D01*
X570863Y586227D01*
X566627Y587603D01*
X562227Y588300D01*
D02*
G37*
G36*
X42227D02*
X37773D01*
X33373Y587603D01*
X29137Y586227D01*
X25168Y584204D01*
X21564Y581586D01*
X18414Y578436D01*
X15796Y574832D01*
X13773Y570863D01*
X12397Y566627D01*
X11700Y562227D01*
Y557773D01*
X12397Y553373D01*
X13773Y549137D01*
X15796Y545168D01*
X18414Y541564D01*
X21564Y538414D01*
X25168Y535796D01*
X29137Y533773D01*
X33373Y532397D01*
X37773Y531700D01*
X42227D01*
X46627Y532397D01*
X50863Y533773D01*
X54832Y535796D01*
X58436Y538414D01*
X61586Y541564D01*
X64204Y545168D01*
X66227Y549137D01*
X67603Y553373D01*
X68300Y557773D01*
Y562227D01*
X67603Y566627D01*
X66227Y570863D01*
X64204Y574832D01*
X61586Y578436D01*
X58436Y581586D01*
X54832Y584204D01*
X50863Y586227D01*
X46627Y587603D01*
X42227Y588300D01*
D02*
G37*
G36*
X140054Y489600D02*
X137846D01*
X136142Y488894D01*
X126000D01*
X124127Y488521D01*
X122539Y487461D01*
X55440Y420361D01*
X53856Y419705D01*
X52295Y418144D01*
X51450Y416104D01*
Y413896D01*
X52295Y411856D01*
X53856Y410295D01*
X55896Y409450D01*
X56629D01*
X171639Y294440D01*
X172295Y292856D01*
X173856Y291295D01*
X175896Y290450D01*
X178104D01*
X180144Y291295D01*
X181705Y292856D01*
X182550Y294896D01*
Y297104D01*
X181705Y299144D01*
X180144Y300705D01*
X178560Y301361D01*
X64421Y415500D01*
X128027Y479106D01*
X136383D01*
X137846Y478500D01*
X140054D01*
X142094Y479345D01*
X143655Y480906D01*
X144500Y482946D01*
Y485154D01*
X143655Y487194D01*
X142094Y488755D01*
X140054Y489600D01*
D02*
G37*
G36*
X333000Y444914D02*
X333000Y444914D01*
X287000D01*
X287000Y444914D01*
X287000Y444914D01*
X146000D01*
X143737Y444464D01*
X141818Y443182D01*
X140536Y441263D01*
X140086Y439000D01*
X140536Y436737D01*
X141818Y434818D01*
X143737Y433536D01*
X146000Y433086D01*
X271064D01*
X271550Y431913D01*
X250818Y411182D01*
X249536Y409263D01*
X249086Y407000D01*
X249086Y407000D01*
Y141449D01*
X205550Y97914D01*
X111000D01*
X111000Y97914D01*
X108737Y97464D01*
X106818Y96182D01*
X106818Y96181D01*
X94551Y83914D01*
X51422D01*
X50841Y85184D01*
X51550Y86896D01*
Y89104D01*
X50705Y91144D01*
X49144Y92705D01*
X48894Y92809D01*
Y342312D01*
X49550Y343896D01*
Y346104D01*
X48705Y348144D01*
X47144Y349705D01*
X45104Y350550D01*
X42896D01*
X40856Y349705D01*
X39295Y348144D01*
X38450Y346104D01*
Y343896D01*
X39106Y342312D01*
Y90406D01*
X39478Y88533D01*
X40450Y87079D01*
Y86896D01*
X41159Y85184D01*
X40578Y83914D01*
X36000D01*
X33737Y83463D01*
X31818Y82182D01*
X30536Y80263D01*
X30086Y78000D01*
X30536Y75737D01*
X31818Y73818D01*
X33737Y72537D01*
X36000Y72086D01*
X97000D01*
X97000Y72086D01*
X99263Y72537D01*
X101182Y73818D01*
X113449Y86086D01*
X208000D01*
X208000Y86086D01*
X210263Y86537D01*
X212182Y87818D01*
X259181Y134818D01*
X259182Y134818D01*
X260464Y136737D01*
X260914Y139000D01*
Y404551D01*
X289450Y433086D01*
X330550D01*
X330818Y432818D01*
X332737Y431536D01*
X335000Y431086D01*
X337263Y431536D01*
X339182Y432818D01*
X340463Y434737D01*
X340914Y437000D01*
X340463Y439263D01*
X339182Y441181D01*
X337182Y443182D01*
X335263Y444464D01*
X333000Y444914D01*
D02*
G37*
G36*
X525104Y418550D02*
X522896D01*
X520856Y417705D01*
X519295Y416144D01*
X518450Y414104D01*
Y411896D01*
X519106Y410312D01*
Y317512D01*
X510488Y308894D01*
X443000D01*
X441127Y308521D01*
X439539Y307461D01*
X406539Y274461D01*
X405479Y272873D01*
X405106Y271000D01*
Y156027D01*
X333023Y83944D01*
X129637D01*
X128054Y84600D01*
X125846D01*
X123806Y83755D01*
X122245Y82194D01*
X121400Y80154D01*
Y77946D01*
X122245Y75906D01*
X123806Y74345D01*
X125846Y73500D01*
X128054D01*
X129637Y74156D01*
X142548D01*
X143117Y72886D01*
X142400Y71154D01*
Y68946D01*
X143245Y66906D01*
X144806Y65345D01*
X146846Y64500D01*
X149054D01*
X150638Y65156D01*
X348050D01*
X349923Y65528D01*
X351511Y66589D01*
X422461Y137539D01*
X423521Y139127D01*
X423894Y141000D01*
Y257973D01*
X446027Y280106D01*
X550312D01*
X551896Y279450D01*
X554104D01*
X556144Y280295D01*
X557705Y281856D01*
X558550Y283896D01*
Y286104D01*
X557705Y288144D01*
X556144Y289705D01*
X554104Y290550D01*
X551896D01*
X550312Y289894D01*
X444000D01*
X442127Y289522D01*
X440539Y288461D01*
X416164Y264085D01*
X414894Y264611D01*
Y268973D01*
X445027Y299106D01*
X512515D01*
X514388Y299478D01*
X515975Y300539D01*
X527461Y312025D01*
X528521Y313612D01*
X528894Y315485D01*
Y410312D01*
X529550Y411896D01*
Y414104D01*
X528705Y416144D01*
X527144Y417705D01*
X525104Y418550D01*
D02*
G37*
G36*
X359222Y293800D02*
X356378D01*
X353631Y293064D01*
X351169Y291642D01*
X349158Y289631D01*
X347736Y287169D01*
X347000Y284422D01*
Y281578D01*
X347736Y278831D01*
X349158Y276369D01*
X351169Y274358D01*
X353631Y272936D01*
X356378Y272200D01*
X359222D01*
X361969Y272936D01*
X364431Y274358D01*
X366442Y276369D01*
X367864Y278831D01*
X368600Y281578D01*
Y284422D01*
X367864Y287169D01*
X366442Y289631D01*
X364431Y291642D01*
X361969Y293064D01*
X359222Y293800D01*
D02*
G37*
G36*
X333822D02*
X330978D01*
X328231Y293064D01*
X325769Y291642D01*
X323758Y289631D01*
X322336Y287169D01*
X321600Y284422D01*
Y281578D01*
X322336Y278831D01*
X323758Y276369D01*
X325769Y274358D01*
X328231Y272936D01*
X330978Y272200D01*
X333822D01*
X336569Y272936D01*
X339031Y274358D01*
X341042Y276369D01*
X342464Y278831D01*
X343200Y281578D01*
Y284422D01*
X342464Y287169D01*
X341042Y289631D01*
X339031Y291642D01*
X336569Y293064D01*
X333822Y293800D01*
D02*
G37*
G36*
X429800Y568800D02*
X402200D01*
Y541200D01*
X410086D01*
Y419850D01*
X284037Y293800D01*
X270800D01*
Y272200D01*
X292400D01*
Y285437D01*
X420182Y413218D01*
X420182Y413218D01*
X421464Y415137D01*
X421914Y417400D01*
X421914Y417400D01*
Y541200D01*
X429800D01*
Y568800D01*
D02*
G37*
G36*
X562227Y68300D02*
X557773D01*
X553373Y67603D01*
X549137Y66227D01*
X545168Y64204D01*
X541564Y61586D01*
X538414Y58436D01*
X535796Y54832D01*
X533773Y50863D01*
X532397Y46627D01*
X531700Y42227D01*
Y37773D01*
X532397Y33373D01*
X533773Y29137D01*
X535796Y25168D01*
X538414Y21564D01*
X541564Y18414D01*
X545168Y15796D01*
X549137Y13773D01*
X553373Y12397D01*
X557773Y11700D01*
X562227D01*
X566627Y12397D01*
X570863Y13773D01*
X574832Y15796D01*
X578436Y18414D01*
X581586Y21564D01*
X584204Y25168D01*
X586227Y29137D01*
X587603Y33373D01*
X588300Y37773D01*
Y42227D01*
X587603Y46627D01*
X586227Y50863D01*
X584204Y54832D01*
X581586Y58436D01*
X578436Y61586D01*
X574832Y64204D01*
X570863Y66227D01*
X566627Y67603D01*
X562227Y68300D01*
D02*
G37*
G36*
X42227D02*
X37773D01*
X33373Y67603D01*
X29137Y66227D01*
X25168Y64204D01*
X21564Y61586D01*
X18414Y58436D01*
X15796Y54832D01*
X13773Y50863D01*
X12397Y46627D01*
X11700Y42227D01*
Y37773D01*
X12397Y33373D01*
X13773Y29137D01*
X15796Y25168D01*
X18414Y21564D01*
X21564Y18414D01*
X25168Y15796D01*
X29137Y13773D01*
X33373Y12397D01*
X37773Y11700D01*
X42227D01*
X46627Y12397D01*
X50863Y13773D01*
X54832Y15796D01*
X58436Y18414D01*
X61586Y21564D01*
X64204Y25168D01*
X66227Y29137D01*
X67603Y33373D01*
X68300Y37773D01*
Y42227D01*
X67603Y46627D01*
X66227Y50863D01*
X64204Y54832D01*
X61586Y58436D01*
X58436Y61586D01*
X54832Y64204D01*
X50863Y66227D01*
X46627Y67603D01*
X42227Y68300D01*
D02*
G37*
%LPD*%
G36*
X298657Y551776D02*
X298609Y551773D01*
X298546Y551750D01*
X298468Y551707D01*
X298375Y551645D01*
X298267Y551563D01*
X298007Y551341D01*
X297506Y550861D01*
X296067Y552294D01*
X296227Y552456D01*
X296681Y552983D01*
X296749Y553084D01*
X296800Y553174D01*
X296831Y553251D01*
X296845Y553316D01*
X296840Y553368D01*
X298657Y551776D01*
D02*
G37*
G36*
X293155Y553316D02*
X293169Y553251D01*
X293200Y553174D01*
X293251Y553084D01*
X293319Y552983D01*
X293405Y552869D01*
X293633Y552606D01*
X293933Y552294D01*
X292494Y550861D01*
X292312Y551041D01*
X291625Y551645D01*
X291532Y551707D01*
X291454Y551750D01*
X291391Y551773D01*
X291343Y551776D01*
X293160Y553368D01*
X293155Y553316D01*
D02*
G37*
G36*
X137379Y482440D02*
X137353Y482451D01*
X137302Y482461D01*
X137226Y482470D01*
X136995Y482485D01*
X135969Y482500D01*
X135879Y485500D01*
X136136Y485501D01*
X137279Y485572D01*
X137309Y485589D01*
X137379Y482440D01*
D02*
G37*
G36*
X60201Y416080D02*
X59543Y415348D01*
X61026Y414096D01*
X58883Y411996D01*
X58701Y412175D01*
X58121Y412688D01*
X58013Y412765D01*
X57920Y412822D01*
X57841Y412859D01*
X57777Y412875D01*
X57728Y412871D01*
X58957Y415316D01*
X57023Y417250D01*
X57052Y417259D01*
X57098Y417288D01*
X57162Y417335D01*
X57339Y417487D01*
X57898Y418020D01*
X58080Y418201D01*
X60201Y416080D01*
D02*
G37*
G36*
X176978Y298250D02*
X174750Y296022D01*
X174741Y296052D01*
X174712Y296098D01*
X174665Y296162D01*
X174513Y296339D01*
X173980Y296898D01*
X173799Y297080D01*
X175920Y299201D01*
X176978Y298250D01*
D02*
G37*
G36*
X293036Y436500D02*
X292050Y436465D01*
X291094Y436359D01*
X290167Y436182D01*
X289270Y435934D01*
X288402Y435616D01*
X287563Y435227D01*
X286753Y434768D01*
X285973Y434237D01*
X285222Y433636D01*
X284500Y432965D01*
X277429D01*
X278051Y433636D01*
X278502Y434237D01*
X278782Y434768D01*
X278892Y435227D01*
X278831Y435616D01*
X278599Y435934D01*
X278196Y436182D01*
X277623Y436359D01*
X276879Y436465D01*
X275965Y436500D01*
X287000Y441500D01*
X293036Y436500D01*
D02*
G37*
G36*
X45561Y343366D02*
X45548Y343313D01*
X45537Y343234D01*
X45519Y343001D01*
X45501Y342230D01*
X45500Y341973D01*
X42500D01*
X42425Y343393D01*
X45575D01*
X45561Y343366D01*
D02*
G37*
G36*
X525561Y411366D02*
X525548Y411313D01*
X525537Y411235D01*
X525519Y411001D01*
X525501Y410230D01*
X525500Y409973D01*
X522500D01*
X522425Y411393D01*
X525575D01*
X525561Y411366D01*
D02*
G37*
G36*
X551393Y283425D02*
X551366Y283439D01*
X551313Y283452D01*
X551235Y283463D01*
X551001Y283481D01*
X550230Y283499D01*
X549973Y283500D01*
Y286500D01*
X551393Y286575D01*
Y283425D01*
D02*
G37*
G36*
X128584Y80611D02*
X128637Y80598D01*
X128715Y80587D01*
X128949Y80569D01*
X129720Y80551D01*
X129977Y80550D01*
Y77550D01*
X128557Y77475D01*
Y80625D01*
X128584Y80611D01*
D02*
G37*
G36*
X414106Y149389D02*
Y143027D01*
X346023Y74944D01*
X339661D01*
X339135Y76214D01*
X412836Y149915D01*
X414106Y149389D01*
D02*
G37*
G36*
X149584Y71611D02*
X149637Y71598D01*
X149715Y71587D01*
X149949Y71569D01*
X150720Y71551D01*
X150977Y71550D01*
Y68550D01*
X149557Y68475D01*
Y71625D01*
X149584Y71611D01*
D02*
G37*
G36*
X420525Y544481D02*
X420100Y544330D01*
X419725Y544080D01*
X419400Y543731D01*
X419125Y543280D01*
X418900Y542730D01*
X418725Y542080D01*
X418600Y541330D01*
X418525Y540480D01*
X418500Y539530D01*
X413500D01*
X413475Y540480D01*
X413400Y541330D01*
X413275Y542080D01*
X413100Y542730D01*
X412875Y543280D01*
X412600Y543731D01*
X412275Y544080D01*
X411900Y544330D01*
X411475Y544480D01*
X411000Y544530D01*
X421000D01*
X420525Y544481D01*
D02*
G37*
G36*
X292605Y290469D02*
X291612Y289442D01*
X290050Y287599D01*
X289482Y286785D01*
X289054Y286042D01*
X288768Y285371D01*
X288624Y284771D01*
X288621Y284242D01*
X288759Y283785D01*
X289039Y283398D01*
X281998Y290439D01*
X282385Y290159D01*
X282842Y290021D01*
X283371Y290024D01*
X283971Y290168D01*
X284643Y290454D01*
X285385Y290882D01*
X286199Y291450D01*
X287085Y292160D01*
X289069Y294005D01*
X292605Y290469D01*
D02*
G37*
D16*
X0Y0D02*
X600000D01*
X0Y600000D02*
X600000D01*
Y0D02*
Y600000D01*
X0Y0D02*
Y600000D01*
D67*
X512515Y304000D02*
X524000Y315485D01*
X443000Y304000D02*
X512515D01*
X410000Y271000D02*
X443000Y304000D01*
X44000Y90406D02*
Y345000D01*
Y90406D02*
X46000Y88406D01*
Y88000D02*
Y88406D01*
X524000Y315485D02*
Y413000D01*
X410000Y154000D02*
Y271000D01*
X335050Y79050D02*
X410000Y154000D01*
X126950Y79050D02*
X335050D01*
X419000Y260000D02*
X444000Y285000D01*
X553000D01*
X348050Y70050D02*
X419000Y141000D01*
Y260000D01*
X147950Y70050D02*
X348050D01*
X126000Y484000D02*
X139000D01*
X57000Y415000D02*
X126000Y484000D01*
X58287Y414713D02*
X177000Y296000D01*
X57287Y414713D02*
X58287D01*
X57000Y415000D02*
X57287Y414713D01*
D69*
X416000Y417400D02*
Y555000D01*
X283173Y284573D02*
X416000Y417400D01*
X208000Y92000D02*
X255000Y139000D01*
Y407000D02*
X287000Y439000D01*
X255000Y139000D02*
Y407000D01*
X146000Y439000D02*
X287000D01*
X333000D02*
X335000Y437000D01*
X287000Y439000D02*
X333000D01*
X111000Y92000D02*
X208000D01*
X97000Y78000D02*
X111000Y92000D01*
X36000Y78000D02*
X97000D01*
D71*
X299000Y553791D02*
Y554000D01*
X280000Y514668D02*
X281715Y516383D01*
Y531137D01*
X296785Y551576D02*
X299000Y553791D01*
X291000D02*
X293215Y551576D01*
Y542637D02*
Y551576D01*
X287000Y514000D02*
Y514668D01*
X291000Y553791D02*
Y554000D01*
X285285Y516383D02*
X287000Y514668D01*
X280000Y514000D02*
Y514668D01*
X285285Y529658D02*
X296785Y541158D01*
Y551576D01*
X281715Y531137D02*
X293215Y542637D01*
X285285Y516383D02*
Y529658D01*
D72*
X357800Y283000D02*
D03*
X332400D02*
D03*
X307000D02*
D03*
D73*
X281600D02*
D03*
D74*
X69300Y173475D02*
D03*
Y191825D02*
D03*
X78475Y164300D02*
D03*
Y182650D02*
D03*
Y201000D02*
D03*
X87650Y173475D02*
D03*
Y191825D02*
D03*
X96825Y164300D02*
D03*
Y182650D02*
D03*
Y201000D02*
D03*
X106000Y173475D02*
D03*
Y191825D02*
D03*
D75*
X560000Y40000D02*
D03*
X40000D02*
D03*
Y560000D02*
D03*
X560000D02*
D03*
D76*
X416000Y555000D02*
D03*
D77*
X466000D02*
D03*
D78*
X246750Y582750D02*
D03*
X333250D02*
D03*
D79*
X246750Y540749D02*
D03*
X333250D02*
D03*
D80*
X199000Y374000D02*
D03*
X394000Y253000D02*
D03*
X370000Y581000D02*
D03*
X216000Y579000D02*
D03*
X93000Y578000D02*
D03*
X220000Y456000D02*
D03*
X339000Y175000D02*
D03*
X527000Y190000D02*
D03*
X414000Y19000D02*
D03*
X214000Y23000D02*
D03*
X114000Y24000D02*
D03*
X324000Y352000D02*
D03*
X159000Y334000D02*
D03*
X9000Y66000D02*
D03*
X390000Y187000D02*
D03*
X438000Y149000D02*
D03*
X538000Y113000D02*
D03*
X573000D02*
D03*
X567000Y89000D02*
D03*
X462000Y270000D02*
D03*
X511000Y315000D02*
D03*
X574000Y311000D02*
D03*
X537000Y366000D02*
D03*
X549000Y439000D02*
D03*
X501000Y425000D02*
D03*
X537000Y462000D02*
D03*
X489000Y464000D02*
D03*
X374000Y531000D02*
D03*
X333000Y523000D02*
D03*
X253000Y525000D02*
D03*
X173000Y490000D02*
D03*
X116000Y488000D02*
D03*
X14000Y301000D02*
D03*
X206000Y135000D02*
D03*
X435000Y345000D02*
D03*
X417000Y395000D02*
D03*
X451000Y385000D02*
D03*
X307000Y464000D02*
D03*
X270000D02*
D03*
X335000Y437000D02*
D03*
X46000Y88000D02*
D03*
X36000Y78000D02*
D03*
X146000Y439000D02*
D03*
X44000Y345000D02*
D03*
X138950Y484050D02*
D03*
X299000Y554000D02*
D03*
X291000D02*
D03*
X524000Y413000D02*
D03*
X553000Y285000D02*
D03*
X177000Y296000D02*
D03*
X280000Y514000D02*
D03*
X287000Y514000D02*
D03*
X57000Y415000D02*
D03*
X147950Y70050D02*
D03*
X126950Y79050D02*
D03*
M02*
