G04*
G04 #@! TF.GenerationSoftware,Altium Limited,Altium Designer,21.6.4 (81)*
G04*
G04 Layer_Color=16711935*
%FSLAX44Y44*%
%MOMM*%
G71*
G04*
G04 #@! TF.SameCoordinates,24B6D4D6-EE3F-4001-9891-6B21F71F055C*
G04*
G04*
G04 #@! TF.FilePolarity,Negative*
G04*
G01*
G75*
%ADD16C,0.1000*%
%ADD57C,1.7032*%
%ADD58R,1.7032X1.7032*%
%ADD59C,0.6032*%
%ADD60C,3.4032*%
%ADD61R,2.3032X2.3032*%
%ADD62C,2.3032*%
%ADD63O,1.3000X1.9000*%
%ADD64O,1.2000X2.1000*%
D16*
Y0D02*
X600000D01*
X0Y600000D02*
X600000D01*
Y0D02*
Y600000D01*
X0Y0D02*
Y600000D01*
D57*
X357800Y283000D02*
D03*
X332400D02*
D03*
X307000D02*
D03*
D58*
X281600D02*
D03*
D59*
X69300Y173475D02*
D03*
Y191825D02*
D03*
X78475Y164300D02*
D03*
Y182650D02*
D03*
Y201000D02*
D03*
X87650Y173475D02*
D03*
Y191825D02*
D03*
X96825Y164300D02*
D03*
Y182650D02*
D03*
Y201000D02*
D03*
X106000Y173475D02*
D03*
Y191825D02*
D03*
D60*
X560000Y40000D02*
D03*
X40000D02*
D03*
Y560000D02*
D03*
X560000D02*
D03*
D61*
X416000Y555000D02*
D03*
D62*
X466000D02*
D03*
D63*
X246750Y582750D02*
D03*
X333250D02*
D03*
D64*
X246750Y540749D02*
D03*
X333250D02*
D03*
M02*
