G04*
G04 #@! TF.GenerationSoftware,Altium Limited,Altium Designer,21.6.4 (81)*
G04*
G04 Layer_Physical_Order=1*
G04 Layer_Color=255*
%FSLAX44Y44*%
%MOMM*%
G71*
G04*
G04 #@! TF.SameCoordinates,24B6D4D6-EE3F-4001-9891-6B21F71F055C*
G04*
G04*
G04 #@! TF.FilePolarity,Positive*
G04*
G01*
G75*
%ADD11C,0.2000*%
%ADD16C,0.1000*%
%ADD17R,1.0000X2.4500*%
%ADD18R,2.4500X1.0000*%
%ADD19R,0.9000X0.5000*%
%ADD20R,1.0000X0.7000*%
%ADD21R,1.0000X0.7000*%
%ADD22R,0.5000X0.9000*%
%ADD23R,0.8000X1.0000*%
G04:AMPARAMS|DCode=24|XSize=0.6mm|YSize=1.35mm|CornerRadius=0.045mm|HoleSize=0mm|Usage=FLASHONLY|Rotation=180.000|XOffset=0mm|YOffset=0mm|HoleType=Round|Shape=RoundedRectangle|*
%AMROUNDEDRECTD24*
21,1,0.6000,1.2600,0,0,180.0*
21,1,0.5100,1.3500,0,0,180.0*
1,1,0.0900,-0.2550,0.6300*
1,1,0.0900,0.2550,0.6300*
1,1,0.0900,0.2550,-0.6300*
1,1,0.0900,-0.2550,-0.6300*
%
%ADD24ROUNDEDRECTD24*%
%ADD25R,0.9000X2.0000*%
%ADD26R,2.0000X0.9000*%
%ADD27R,1.3300X1.3300*%
%ADD28R,2.3000X1.6500*%
%ADD29R,2.1500X0.9500*%
%ADD30R,2.1500X3.2500*%
%ADD31R,1.7900X1.2100*%
%ADD32R,0.8000X1.7000*%
G04:AMPARAMS|DCode=33|XSize=1.31mm|YSize=0.62mm|CornerRadius=0.0775mm|HoleSize=0mm|Usage=FLASHONLY|Rotation=90.000|XOffset=0mm|YOffset=0mm|HoleType=Round|Shape=RoundedRectangle|*
%AMROUNDEDRECTD33*
21,1,1.3100,0.4650,0,0,90.0*
21,1,1.1550,0.6200,0,0,90.0*
1,1,0.1550,0.2325,0.5775*
1,1,0.1550,0.2325,-0.5775*
1,1,0.1550,-0.2325,-0.5775*
1,1,0.1550,-0.2325,0.5775*
%
%ADD33ROUNDEDRECTD33*%
%ADD34R,2.4000X1.9000*%
%ADD35R,1.0000X0.8000*%
%ADD65R,0.5500X1.1000*%
%ADD66R,0.3000X1.1000*%
%ADD67C,0.3000*%
%ADD68C,1.0000*%
%ADD69C,0.5000*%
%ADD70C,0.2500*%
%ADD71C,0.2030*%
%ADD72C,1.5000*%
%ADD73R,1.5000X1.5000*%
%ADD74C,0.4000*%
%ADD75C,5.0000*%
%ADD76R,2.1000X2.1000*%
%ADD77C,2.1000*%
%ADD78O,1.2000X1.8000*%
%ADD79O,1.1000X2.0000*%
%ADD80C,0.4500*%
G36*
X595000Y5000D02*
X5000D01*
Y595000D01*
X241527D01*
X241793Y594438D01*
X241873Y593730D01*
X240117Y592383D01*
X238627Y590440D01*
X237689Y588178D01*
X237370Y585750D01*
Y579750D01*
X237689Y577323D01*
X238627Y575060D01*
X240117Y573117D01*
X242060Y571627D01*
X244322Y570690D01*
X246750Y570370D01*
X249178Y570690D01*
X251440Y571627D01*
X253383Y573117D01*
X254874Y575060D01*
X255811Y577323D01*
X256130Y579750D01*
Y585750D01*
X255811Y588178D01*
X254874Y590440D01*
X253383Y592383D01*
X251628Y593730D01*
X251707Y594438D01*
X251973Y595000D01*
X328027D01*
X328293Y594438D01*
X328372Y593730D01*
X326617Y592383D01*
X325126Y590440D01*
X324189Y588178D01*
X323870Y585750D01*
Y579750D01*
X324189Y577323D01*
X325126Y575060D01*
X326617Y573117D01*
X328560Y571627D01*
X330822Y570690D01*
X333250Y570370D01*
X335678Y570690D01*
X337940Y571627D01*
X339883Y573117D01*
X341373Y575060D01*
X342310Y577323D01*
X342630Y579750D01*
Y585750D01*
X342310Y588178D01*
X341373Y590440D01*
X339883Y592383D01*
X338127Y593730D01*
X338207Y594438D01*
X338473Y595000D01*
X595000D01*
Y5000D01*
D02*
G37*
%LPC*%
G36*
X306000Y571894D02*
X277757D01*
X275884Y571521D01*
X274297Y570461D01*
X272539Y568703D01*
X271479Y567116D01*
X271106Y565243D01*
Y553713D01*
X266491Y549099D01*
X265194Y549076D01*
X264213Y550040D01*
X263912Y550162D01*
X263682Y550389D01*
X262409Y550910D01*
X262085Y550909D01*
X261786Y551033D01*
X260410Y551033D01*
X260111Y550909D01*
X259788Y550910D01*
X258514Y550390D01*
X258284Y550162D01*
X257984Y550041D01*
X257002Y549076D01*
X256875Y548779D01*
X256643Y548553D01*
X256459Y548124D01*
X255080Y548133D01*
X254437Y549687D01*
X253026Y551525D01*
X251188Y552936D01*
X249047Y553822D01*
X246750Y554125D01*
X244453Y553822D01*
X242312Y552936D01*
X240474Y551525D01*
X239063Y549687D01*
X238177Y547546D01*
X237874Y545249D01*
Y536249D01*
X238177Y533952D01*
X239063Y531811D01*
X240474Y529973D01*
X242312Y528562D01*
X244453Y527675D01*
X246750Y527373D01*
X249047Y527675D01*
X251188Y528562D01*
X253026Y529973D01*
X254437Y531811D01*
X255324Y533952D01*
X255626Y536249D01*
Y542701D01*
X255705Y542752D01*
X256893Y543081D01*
X257002Y542825D01*
X257983Y541861D01*
X258284Y541740D01*
X258514Y541512D01*
X259787Y540991D01*
X259948Y540830D01*
Y526450D01*
X261104D01*
Y525025D01*
X258879Y522800D01*
X254200D01*
Y507200D01*
X265800D01*
Y515879D01*
X266940Y517019D01*
X268114Y516533D01*
Y491800D01*
X262200D01*
Y480200D01*
X277800D01*
Y491800D01*
X276882D01*
Y508141D01*
X277938Y508847D01*
X278896Y508450D01*
X281104D01*
X283144Y509295D01*
X283500Y509651D01*
X283856Y509295D01*
X285896Y508450D01*
X288104D01*
X288815Y507975D01*
Y429037D01*
X251748Y391969D01*
X237000D01*
X235316Y391635D01*
X233889Y390681D01*
X212804Y369596D01*
X211850Y368169D01*
X211516Y366485D01*
Y360430D01*
X209025D01*
X207435Y360114D01*
X206087Y359213D01*
X205764Y358729D01*
X204236D01*
X203913Y359213D01*
X202565Y360114D01*
X200975Y360430D01*
X196325D01*
X194735Y360114D01*
X193387Y359213D01*
X193064Y358729D01*
X191536D01*
X191213Y359213D01*
X189865Y360114D01*
X188401Y360405D01*
X187606Y361595D01*
X173100Y376100D01*
X171678Y377051D01*
X170000Y377384D01*
X117000D01*
X115322Y377051D01*
X113900Y376100D01*
X47900Y310100D01*
X46950Y308678D01*
X46616Y307000D01*
Y290950D01*
X17550D01*
Y264350D01*
X185550D01*
Y290950D01*
X181894D01*
Y293312D01*
X182550Y294896D01*
Y297104D01*
X181705Y299144D01*
X180144Y300705D01*
X178104Y301550D01*
X175896D01*
X173856Y300705D01*
X172295Y299144D01*
X171450Y297104D01*
Y294896D01*
X172106Y293312D01*
Y290950D01*
X117894D01*
Y299973D01*
X124027Y306106D01*
X184973D01*
X264539Y226539D01*
X266127Y225478D01*
X268000Y225106D01*
X337000D01*
X338873Y225478D01*
X340461Y226539D01*
X362461Y248539D01*
X363521Y250127D01*
X363894Y252000D01*
Y274048D01*
X364431Y274358D01*
X366442Y276369D01*
X367864Y278831D01*
X368600Y281578D01*
Y284422D01*
X367864Y287169D01*
X366442Y289631D01*
X364431Y291642D01*
X361969Y293064D01*
X359222Y293800D01*
X356378D01*
X353631Y293064D01*
X351169Y291642D01*
X349158Y289631D01*
X347736Y287169D01*
X347000Y284422D01*
Y281578D01*
X347736Y278831D01*
X349158Y276369D01*
X351169Y274358D01*
X353631Y272936D01*
X354106Y272809D01*
Y254027D01*
X334973Y234894D01*
X320417D01*
X320292Y236164D01*
X321873Y236479D01*
X323461Y237539D01*
X336229Y250308D01*
X337290Y251896D01*
X337663Y253769D01*
Y273568D01*
X339031Y274358D01*
X341042Y276369D01*
X342464Y278831D01*
X343200Y281578D01*
Y284422D01*
X342464Y287169D01*
X341042Y289631D01*
X339031Y291642D01*
X336569Y293064D01*
X333822Y293800D01*
X330978D01*
X328231Y293064D01*
X325769Y291642D01*
X323758Y289631D01*
X322336Y287169D01*
X321600Y284422D01*
Y281578D01*
X322336Y278831D01*
X323758Y276369D01*
X325769Y274358D01*
X327875Y273142D01*
Y255796D01*
X317973Y245894D01*
X274027D01*
X196461Y323461D01*
X194873Y324521D01*
X193000Y324894D01*
X113757D01*
X111884Y324521D01*
X110297Y323461D01*
X98089Y311253D01*
X97029Y309665D01*
X96656Y307793D01*
Y290950D01*
X68384D01*
Y300184D01*
X128816Y360616D01*
X164184D01*
X167061Y357738D01*
X166770Y356275D01*
Y344725D01*
X167086Y343135D01*
X167987Y341787D01*
X169335Y340886D01*
X170925Y340570D01*
X175575D01*
X177165Y340886D01*
X178513Y341787D01*
X178836Y342271D01*
X180364D01*
X180687Y341787D01*
X182035Y340886D01*
X183625Y340570D01*
X188275D01*
X189865Y340886D01*
X191213Y341787D01*
X191536Y342271D01*
X193064D01*
X193387Y341787D01*
X194735Y340886D01*
X196325Y340570D01*
X200975D01*
X202565Y340886D01*
X203913Y341787D01*
X204236Y342271D01*
X205764D01*
X206087Y341787D01*
X207435Y340886D01*
X209025Y340570D01*
X213675D01*
X215265Y340886D01*
X216613Y341787D01*
X216936Y342271D01*
X218464D01*
X218787Y341787D01*
X220135Y340886D01*
X221725Y340570D01*
X226375D01*
X227965Y340886D01*
X229313Y341787D01*
X229636Y342271D01*
X231164D01*
X231487Y341787D01*
X232835Y340886D01*
X234425Y340570D01*
X239075D01*
X240665Y340886D01*
X242013Y341787D01*
X242336Y342271D01*
X243864D01*
X244187Y341787D01*
X245535Y340886D01*
X247125Y340570D01*
X251775D01*
X253365Y340886D01*
X254030Y341331D01*
X263748D01*
X269700Y335379D01*
Y319700D01*
X300300D01*
Y328106D01*
X304200D01*
Y327200D01*
X319800D01*
Y338800D01*
X304200D01*
Y337894D01*
X300300D01*
Y345300D01*
X273621D01*
X269236Y349686D01*
X267648Y350746D01*
X265775Y351119D01*
X255930D01*
Y356275D01*
X255614Y357865D01*
X254713Y359213D01*
X253365Y360114D01*
X251919Y360401D01*
X251502Y361090D01*
X251299Y361578D01*
X255327Y365606D01*
X269700D01*
Y360700D01*
X300300D01*
Y366106D01*
X304200D01*
Y365200D01*
X319800D01*
Y376800D01*
X304200D01*
Y375894D01*
X300300D01*
Y386300D01*
X269700D01*
Y375394D01*
X253300D01*
X251427Y375022D01*
X249839Y373961D01*
X236309Y360430D01*
X234425D01*
X232835Y360114D01*
X231487Y359213D01*
X231164Y358729D01*
X229636D01*
X229313Y359213D01*
X227965Y360114D01*
X226375Y360430D01*
X223885D01*
Y363184D01*
X240301Y379600D01*
X255049D01*
X256732Y379935D01*
X258160Y380889D01*
X299896Y422625D01*
X300850Y424053D01*
X301185Y425736D01*
Y480200D01*
X313800D01*
Y491800D01*
X307137D01*
Y515259D01*
X308407Y515384D01*
X308536Y514738D01*
X309818Y512819D01*
X319747Y502890D01*
X319747Y502890D01*
X321666Y501608D01*
X323929Y501157D01*
X328071D01*
X328071Y501157D01*
X328342Y501211D01*
X407628D01*
Y467050D01*
X397950D01*
Y450950D01*
X409745D01*
X409833Y450914D01*
X412000Y450628D01*
X437000D01*
X439167Y450914D01*
X441186Y451750D01*
X442920Y453080D01*
X445489Y455650D01*
X458150D01*
Y474350D01*
X433650D01*
Y467489D01*
X433532Y467372D01*
X424372D01*
Y507125D01*
Y541200D01*
X429800D01*
Y542178D01*
X430973Y542663D01*
X485818Y487818D01*
X485818Y487818D01*
X487737Y486536D01*
X490000Y486086D01*
X490000Y486086D01*
X546550D01*
X553086Y479551D01*
Y470000D01*
X553200Y469429D01*
Y462200D01*
X553200D01*
Y461800D01*
X553200D01*
Y446200D01*
X553856D01*
Y433261D01*
X553246Y432854D01*
X552418Y431613D01*
X552127Y430150D01*
Y417550D01*
X552418Y416087D01*
X553246Y414846D01*
X554487Y414018D01*
X555950Y413727D01*
X561050D01*
X562513Y414018D01*
X563754Y414846D01*
X564582Y416087D01*
X564873Y417550D01*
Y430150D01*
X564582Y431613D01*
X563754Y432854D01*
X563644Y432927D01*
Y446200D01*
X564800D01*
Y461800D01*
X564800D01*
Y462200D01*
X564800D01*
Y469429D01*
X564914Y470000D01*
Y482000D01*
X564914Y482000D01*
X564464Y484263D01*
X563182Y486182D01*
X553182Y496182D01*
X551263Y497463D01*
X549000Y497914D01*
X549000Y497914D01*
X492449D01*
X435253Y555111D01*
X433334Y556392D01*
X431071Y556843D01*
X431071Y556843D01*
X429800D01*
Y568800D01*
X402200D01*
Y559914D01*
X375000D01*
X374429Y559800D01*
X367200D01*
Y548200D01*
X374429D01*
X375000Y548086D01*
X402200D01*
Y541200D01*
X407628D01*
Y513039D01*
X328125D01*
X328125Y513039D01*
X327854Y512985D01*
X326379D01*
X319913Y519450D01*
Y526450D01*
X320049D01*
Y540832D01*
X320209Y540991D01*
X321483Y541512D01*
X321712Y541740D01*
X322013Y541861D01*
X322994Y542825D01*
X323080Y543027D01*
X324291Y542757D01*
X324374Y542705D01*
Y536249D01*
X324676Y533952D01*
X325563Y531811D01*
X326974Y529973D01*
X328812Y528562D01*
X330953Y527675D01*
X333250Y527373D01*
X335547Y527675D01*
X337688Y528562D01*
X339526Y529973D01*
X340937Y531811D01*
X341823Y533952D01*
X342126Y536249D01*
Y545249D01*
X341823Y547546D01*
X340937Y549687D01*
X339526Y551525D01*
X337688Y552936D01*
X335547Y553822D01*
X333250Y554125D01*
X330953Y553822D01*
X328812Y552936D01*
X326974Y551525D01*
X325563Y549687D01*
X324918Y548129D01*
X323539Y548120D01*
X323353Y548553D01*
X323121Y548778D01*
X322995Y549076D01*
X322013Y550040D01*
X321713Y550162D01*
X321483Y550389D01*
X320209Y550910D01*
X319886Y550909D01*
X319586Y551033D01*
X318210Y551033D01*
X317911Y550909D01*
X317588Y550910D01*
X316314Y550390D01*
X316084Y550162D01*
X315784Y550041D01*
X314802Y549076D01*
X313505Y549099D01*
X313400Y549203D01*
Y564493D01*
X313028Y566366D01*
X311967Y567954D01*
X309461Y570461D01*
X307873Y571521D01*
X306000Y571894D01*
D02*
G37*
G36*
X562227Y588300D02*
X557773D01*
X553373Y587603D01*
X549137Y586227D01*
X545168Y584204D01*
X541564Y581586D01*
X538414Y578436D01*
X535796Y574832D01*
X533773Y570863D01*
X532397Y566627D01*
X531700Y562227D01*
Y557773D01*
X532397Y553373D01*
X533773Y549137D01*
X535796Y545168D01*
X538414Y541564D01*
X541564Y538414D01*
X545168Y535796D01*
X549137Y533773D01*
X553373Y532397D01*
X557773Y531700D01*
X562227D01*
X566627Y532397D01*
X570863Y533773D01*
X574832Y535796D01*
X578436Y538414D01*
X581586Y541564D01*
X584204Y545168D01*
X586227Y549137D01*
X587603Y553373D01*
X588300Y557773D01*
Y562227D01*
X587603Y566627D01*
X586227Y570863D01*
X584204Y574832D01*
X581586Y578436D01*
X578436Y581586D01*
X574832Y584204D01*
X570863Y586227D01*
X566627Y587603D01*
X562227Y588300D01*
D02*
G37*
G36*
X42227D02*
X37773D01*
X33373Y587603D01*
X29137Y586227D01*
X25168Y584204D01*
X21564Y581586D01*
X18414Y578436D01*
X15796Y574832D01*
X13773Y570863D01*
X12397Y566627D01*
X11700Y562227D01*
Y557773D01*
X12397Y553373D01*
X13773Y549137D01*
X15796Y545168D01*
X18414Y541564D01*
X21564Y538414D01*
X25168Y535796D01*
X29137Y533773D01*
X33373Y532397D01*
X37773Y531700D01*
X42227D01*
X46627Y532397D01*
X50863Y533773D01*
X54832Y535796D01*
X58436Y538414D01*
X61586Y541564D01*
X64204Y545168D01*
X66227Y549137D01*
X67603Y553373D01*
X68300Y557773D01*
Y562227D01*
X67603Y566627D01*
X66227Y570863D01*
X64204Y574832D01*
X61586Y578436D01*
X58436Y581586D01*
X54832Y584204D01*
X50863Y586227D01*
X46627Y587603D01*
X42227Y588300D01*
D02*
G37*
G36*
X95800Y541800D02*
X84200D01*
Y526200D01*
X84606D01*
Y520800D01*
X81700D01*
Y511894D01*
X47000D01*
X45127Y511521D01*
X43539Y510461D01*
X12539Y479461D01*
X11479Y477873D01*
X11106Y476000D01*
Y367000D01*
X11479Y365127D01*
X12539Y363539D01*
X18539Y357539D01*
X20127Y356479D01*
X22000Y356106D01*
X36700D01*
Y352700D01*
X39106D01*
Y347688D01*
X38450Y346104D01*
Y343896D01*
X39295Y341856D01*
X40856Y340295D01*
X42896Y339450D01*
X45104D01*
X47144Y340295D01*
X48705Y341856D01*
X49550Y343896D01*
Y346104D01*
X48894Y347688D01*
Y352700D01*
X51300D01*
Y369300D01*
X36700D01*
Y365894D01*
X24027D01*
X20894Y369027D01*
Y473973D01*
X49027Y502106D01*
X81700D01*
Y497200D01*
X85106D01*
Y484000D01*
X85200Y483527D01*
Y475200D01*
X96800D01*
Y490800D01*
X94894D01*
Y497200D01*
X96300D01*
Y520800D01*
X94394D01*
Y526200D01*
X95800D01*
Y541800D01*
D02*
G37*
G36*
X145000Y556894D02*
X122000D01*
X120127Y556521D01*
X118539Y555461D01*
X104966Y541887D01*
X104527Y541800D01*
X98200D01*
Y526200D01*
X109800D01*
Y533098D01*
X110461Y533539D01*
X124027Y547106D01*
X142973D01*
X147106Y542973D01*
X146620Y541800D01*
X140200D01*
Y526200D01*
X141106D01*
Y520800D01*
X138700D01*
Y497200D01*
X142106D01*
Y490125D01*
X140836Y489276D01*
X140054Y489600D01*
X137846D01*
X135806Y488755D01*
X134245Y487194D01*
X133400Y485154D01*
Y482946D01*
X134245Y480906D01*
X135806Y479345D01*
X137846Y478500D01*
X140054D01*
X140930Y478863D01*
X142200Y478059D01*
Y475200D01*
X153800D01*
Y490800D01*
X151894D01*
Y497200D01*
X153300D01*
Y520800D01*
X150894D01*
Y526200D01*
X151800D01*
Y536619D01*
X152973Y537105D01*
X154106Y535973D01*
Y535000D01*
X154200Y534527D01*
Y526200D01*
X165800D01*
Y528106D01*
X192973D01*
X201106Y519973D01*
Y486027D01*
X158973Y443894D01*
X148688D01*
X147104Y444550D01*
X144896D01*
X142856Y443705D01*
X141295Y442144D01*
X140450Y440104D01*
Y437896D01*
X141106Y436312D01*
Y434800D01*
X140200D01*
Y419200D01*
X141441D01*
X141685Y417970D01*
X142746Y416382D01*
X152309Y406819D01*
X153897Y405759D01*
X154070Y405724D01*
Y399725D01*
X154386Y398135D01*
X154708Y397654D01*
X154029Y396384D01*
X132816D01*
X118384Y410816D01*
Y435000D01*
X118050Y436678D01*
X117100Y438100D01*
X99100Y456100D01*
X97678Y457051D01*
X96000Y457384D01*
X47000D01*
X45322Y457051D01*
X43900Y456100D01*
X33900Y446100D01*
X32950Y444678D01*
X32616Y443000D01*
Y441800D01*
X31200D01*
Y433473D01*
X31106Y433000D01*
Y392300D01*
X27200D01*
Y375700D01*
X41800D01*
Y392300D01*
X40894D01*
Y426200D01*
X42800D01*
Y441800D01*
X42800Y441800D01*
X42800D01*
X43158Y442957D01*
X48816Y448616D01*
X94184D01*
X109616Y433184D01*
Y409000D01*
X109950Y407322D01*
X110900Y405900D01*
X126242Y390558D01*
X125756Y389384D01*
X119816D01*
X95384Y413816D01*
Y417700D01*
X99300D01*
Y432300D01*
X82700D01*
Y417700D01*
X86616D01*
Y412000D01*
X86950Y410322D01*
X87900Y408900D01*
X106242Y390558D01*
X105756Y389384D01*
X93800D01*
Y391800D01*
X82200D01*
Y376200D01*
X93800D01*
Y380616D01*
X181600D01*
X183278Y380950D01*
X184700Y381900D01*
X198370Y395570D01*
X200975D01*
X202565Y395886D01*
X203913Y396787D01*
X204236Y397271D01*
X205764D01*
X206087Y396787D01*
X207435Y395886D01*
X209025Y395570D01*
X213675D01*
X215265Y395886D01*
X216613Y396787D01*
X216936Y397271D01*
X218464D01*
X218787Y396787D01*
X220135Y395886D01*
X221725Y395570D01*
X226375D01*
X227965Y395886D01*
X229313Y396787D01*
X229636Y397271D01*
X231164D01*
X231487Y396787D01*
X232835Y395886D01*
X234425Y395570D01*
X239075D01*
X240665Y395886D01*
X242013Y396787D01*
X242336Y397271D01*
X243864D01*
X244187Y396787D01*
X245535Y395886D01*
X247125Y395570D01*
X251775D01*
X253365Y395886D01*
X254713Y396787D01*
X255614Y398135D01*
X255930Y399725D01*
Y411275D01*
X255614Y412865D01*
X254713Y414213D01*
X253365Y415114D01*
X251775Y415430D01*
X247125D01*
X245535Y415114D01*
X244187Y414213D01*
X243864Y413729D01*
X242336D01*
X242013Y414213D01*
X240665Y415114D01*
X239075Y415430D01*
X234425D01*
X232835Y415114D01*
X231487Y414213D01*
X231164Y413729D01*
X229636D01*
X229313Y414213D01*
X227965Y415114D01*
X226375Y415430D01*
X221725D01*
X220135Y415114D01*
X218787Y414213D01*
X218464Y413729D01*
X216936D01*
X216613Y414213D01*
X215265Y415114D01*
X213675Y415430D01*
X209025D01*
X207435Y415114D01*
X206087Y414213D01*
X205764Y413729D01*
X204236D01*
X203913Y414213D01*
X202565Y415114D01*
X200975Y415430D01*
X196325D01*
X194735Y415114D01*
X193387Y414213D01*
X193064Y413729D01*
X191536D01*
X191213Y414213D01*
X189865Y415114D01*
X188275Y415430D01*
X183625D01*
X182035Y415114D01*
X180687Y414213D01*
X180364Y413729D01*
X178836D01*
X178513Y414213D01*
X177165Y415114D01*
X175575Y415430D01*
X170925D01*
X169335Y415114D01*
X167987Y414213D01*
X167664Y413729D01*
X166136D01*
X165813Y414213D01*
X164465Y415114D01*
X162875Y415430D01*
X158225D01*
X157655Y415316D01*
X151800Y421171D01*
Y434106D01*
X161000D01*
X162873Y434478D01*
X164461Y435539D01*
X209461Y480539D01*
X210522Y482127D01*
X210894Y484000D01*
Y522000D01*
X210522Y523873D01*
X209461Y525461D01*
X198461Y536461D01*
X196873Y537522D01*
X195000Y537894D01*
X165800D01*
Y541800D01*
X162121D01*
X148461Y555461D01*
X146873Y556521D01*
X145000Y556894D01*
D02*
G37*
G36*
X368050Y455550D02*
X339950D01*
Y442467D01*
X338680Y441788D01*
X337669Y442463D01*
X335406Y442914D01*
X333143Y442463D01*
X332255Y441870D01*
X331856Y441705D01*
X331551Y441400D01*
X331224Y441182D01*
X331006Y440855D01*
X330295Y440144D01*
X329450Y438104D01*
Y435896D01*
X330295Y433856D01*
X331006Y433145D01*
X331224Y432818D01*
X334224Y429818D01*
X334224Y429818D01*
X336143Y428536D01*
X338406Y428086D01*
X338406Y428086D01*
X339950D01*
Y416450D01*
X348086D01*
Y392000D01*
X348086Y392000D01*
X348536Y389737D01*
X349818Y387818D01*
X387819Y349818D01*
X387819Y349818D01*
X389737Y348536D01*
X392000Y348086D01*
X410698D01*
Y347200D01*
X427298D01*
Y360800D01*
X410698D01*
Y359913D01*
X394450D01*
X359914Y394450D01*
Y416450D01*
X368050D01*
Y427628D01*
X410351D01*
X412250Y427378D01*
X435200D01*
Y421950D01*
X464800D01*
Y445050D01*
X435200D01*
Y444122D01*
X413899D01*
X412000Y444372D01*
X368050D01*
Y455550D01*
D02*
G37*
G36*
X76300Y441800D02*
X59700D01*
Y439394D01*
X56800D01*
Y441800D01*
X45200D01*
Y426200D01*
X56800D01*
Y429606D01*
X59700D01*
Y427200D01*
X76300D01*
Y441800D01*
D02*
G37*
G36*
X542050Y433973D02*
X536950D01*
X535487Y433682D01*
X534246Y432854D01*
X533418Y431613D01*
X533126Y430150D01*
Y428744D01*
X529800D01*
Y432800D01*
X518200D01*
Y417200D01*
X519106D01*
Y415688D01*
X518450Y414104D01*
Y411896D01*
X519295Y409856D01*
X520856Y408295D01*
X522896Y407450D01*
X525104D01*
X527144Y408295D01*
X528705Y409856D01*
X529550Y411896D01*
Y414104D01*
X528894Y415688D01*
Y417200D01*
X529800D01*
Y418956D01*
X533126D01*
Y417550D01*
X533418Y416087D01*
X534246Y414846D01*
X535487Y414018D01*
X536950Y413727D01*
X542050D01*
X543513Y414018D01*
X544754Y414846D01*
X545582Y416087D01*
X545873Y417550D01*
Y430150D01*
X545582Y431613D01*
X544754Y432854D01*
X543513Y433682D01*
X542050Y433973D01*
D02*
G37*
G36*
X76300Y422800D02*
X59700D01*
Y420394D01*
X58481D01*
X58104Y420550D01*
X55896D01*
X53856Y419705D01*
X52295Y418144D01*
X51450Y416104D01*
Y413896D01*
X52295Y411856D01*
X53856Y410295D01*
X55896Y409450D01*
X58104D01*
X58644Y409674D01*
X59700Y408968D01*
Y408200D01*
X76300D01*
Y422800D01*
D02*
G37*
G36*
X542050Y410273D02*
X536950D01*
X535487Y409982D01*
X534246Y409154D01*
X533418Y407913D01*
X533126Y406450D01*
Y393850D01*
X533418Y392387D01*
X534246Y391146D01*
X535487Y390318D01*
X536950Y390027D01*
X542050D01*
X543513Y390318D01*
X544754Y391146D01*
X545582Y392387D01*
X545873Y393850D01*
Y406450D01*
X545582Y407913D01*
X544754Y409154D01*
X543513Y409982D01*
X542050Y410273D01*
D02*
G37*
G36*
X60800Y392300D02*
X46200D01*
Y375700D01*
X60800D01*
Y379106D01*
X68200D01*
Y376200D01*
X79800D01*
Y391800D01*
X68200D01*
Y388894D01*
X60800D01*
Y392300D01*
D02*
G37*
G36*
X427298Y376800D02*
X410698D01*
Y363200D01*
X417428D01*
X417999Y363086D01*
X418569Y363200D01*
X427298D01*
Y364086D01*
X435000D01*
X435571Y364200D01*
X442800D01*
Y375800D01*
X435571D01*
X435000Y375914D01*
X427298D01*
Y376800D01*
D02*
G37*
G36*
X561050Y410273D02*
X555950D01*
X554487Y409982D01*
X553246Y409154D01*
X552418Y407913D01*
X552127Y406450D01*
Y393850D01*
X552418Y392387D01*
X553246Y391146D01*
X553356Y391073D01*
Y382800D01*
X552200D01*
Y367200D01*
X553106D01*
Y364800D01*
X552200D01*
Y357571D01*
X552086Y357000D01*
Y324450D01*
X523550Y295914D01*
X510500D01*
X510500Y295914D01*
X510500Y295914D01*
X503000D01*
X502429Y295800D01*
X495200D01*
Y294894D01*
X446000D01*
X444127Y294522D01*
X442539Y293461D01*
X430539Y281461D01*
X429478Y279873D01*
X429106Y278000D01*
Y216027D01*
X418186Y205108D01*
X417037Y205754D01*
X417037Y206522D01*
Y218999D01*
X400437D01*
Y216494D01*
X398800D01*
Y216800D01*
X383200D01*
Y205200D01*
X398800D01*
Y206706D01*
X400437D01*
Y205399D01*
X415824D01*
X416682Y205399D01*
X417329Y204250D01*
X416078Y202999D01*
X400437D01*
Y189399D01*
X417037D01*
Y191697D01*
X418353Y191958D01*
X419940Y193019D01*
X437461Y210539D01*
X438521Y212127D01*
X438894Y214000D01*
Y275973D01*
X448027Y285106D01*
X495200D01*
Y284200D01*
X502429D01*
X503000Y284086D01*
X505086D01*
Y276550D01*
X488700D01*
Y245450D01*
X589300D01*
Y276550D01*
X586894D01*
Y283200D01*
X589800D01*
Y294800D01*
X559200D01*
Y287853D01*
X557930Y287601D01*
X557705Y288144D01*
X556144Y289705D01*
X554104Y290550D01*
X551896D01*
X549856Y289705D01*
X548295Y288144D01*
X547450Y286104D01*
Y283896D01*
X548106Y282312D01*
Y276550D01*
X516914D01*
Y284086D01*
X526000D01*
X526000Y284086D01*
X528263Y284536D01*
X530182Y285818D01*
X562182Y317818D01*
X562182Y317818D01*
X563464Y319737D01*
X563914Y322000D01*
X563914Y322000D01*
Y357000D01*
X563800Y357571D01*
Y364800D01*
X562894D01*
Y367200D01*
X563800D01*
Y382800D01*
X563144D01*
Y390739D01*
X563754Y391146D01*
X564582Y392387D01*
X564873Y393850D01*
Y406450D01*
X564582Y407913D01*
X563754Y409154D01*
X562513Y409982D01*
X561050Y410273D01*
D02*
G37*
G36*
X292400Y293800D02*
X270800D01*
Y272200D01*
X292400D01*
Y293800D01*
D02*
G37*
G36*
X475600Y254300D02*
X444500D01*
Y237700D01*
Y223700D01*
Y209700D01*
Y195700D01*
Y181700D01*
Y167700D01*
Y153700D01*
X475600D01*
Y167700D01*
Y181700D01*
Y195700D01*
Y209700D01*
Y223700D01*
Y237700D01*
Y254300D01*
D02*
G37*
G36*
X201050Y257600D02*
X174450D01*
Y242000D01*
Y229300D01*
Y216600D01*
Y203900D01*
Y191200D01*
Y178500D01*
Y165800D01*
Y153100D01*
Y140400D01*
X201050D01*
Y143306D01*
X282773D01*
X338539Y87539D01*
X340127Y86479D01*
X342000Y86106D01*
X483000D01*
X484873Y86479D01*
X486461Y87539D01*
X499461Y100539D01*
X500522Y102127D01*
X500894Y104000D01*
Y117450D01*
X506106D01*
Y89027D01*
X500973Y83894D01*
X332027D01*
X304811Y111111D01*
X303223Y112171D01*
X301350Y112544D01*
X185550D01*
Y120950D01*
X17550D01*
Y94350D01*
X20086D01*
Y78000D01*
X20200Y77429D01*
Y72200D01*
X25429D01*
X26000Y72086D01*
X36000D01*
X38263Y72537D01*
X40182Y73818D01*
X41463Y75737D01*
X41914Y78000D01*
X41463Y80263D01*
X40182Y82182D01*
X39710Y82497D01*
X40206Y83693D01*
X41713Y83393D01*
X42758D01*
X42856Y83295D01*
X44896Y82450D01*
X47104D01*
X49144Y83295D01*
X50705Y84856D01*
X51550Y86896D01*
Y89104D01*
X50705Y91144D01*
X49144Y92705D01*
X48239Y93080D01*
X48491Y94350D01*
X122056D01*
Y81738D01*
X121400Y80154D01*
Y77946D01*
X122245Y75906D01*
X123806Y74345D01*
X125846Y73500D01*
X128054D01*
X130094Y74345D01*
X131655Y75906D01*
X132500Y77946D01*
Y80154D01*
X131844Y81738D01*
Y94350D01*
X134756D01*
Y78350D01*
X135128Y76477D01*
X136189Y74889D01*
X142589Y68490D01*
X143245Y66906D01*
X144806Y65345D01*
X146846Y64500D01*
X149054D01*
X151094Y65345D01*
X152655Y66906D01*
X153500Y68946D01*
Y71154D01*
X152655Y73194D01*
X151094Y74755D01*
X149510Y75411D01*
X144544Y80377D01*
Y94350D01*
X147456D01*
Y89650D01*
X147829Y87777D01*
X148889Y86189D01*
X179539Y55539D01*
X181127Y54479D01*
X183000Y54106D01*
X522000D01*
X523873Y54479D01*
X525461Y55539D01*
X556461Y86539D01*
X557522Y88127D01*
X557894Y90000D01*
Y95200D01*
X558800D01*
Y110800D01*
X557894D01*
Y117450D01*
X561300D01*
Y148550D01*
X544700D01*
Y117450D01*
X548106D01*
Y110800D01*
X547200D01*
Y95200D01*
X548106D01*
Y92027D01*
X519973Y63894D01*
X517611D01*
X517085Y65164D01*
X528461Y76539D01*
X529521Y78127D01*
X529894Y80000D01*
Y117450D01*
X533300D01*
Y148550D01*
X474700D01*
Y117450D01*
X477106D01*
Y111027D01*
X472973Y106894D01*
X357027D01*
X226361Y237561D01*
X224773Y238621D01*
X222900Y238994D01*
X201050D01*
Y242000D01*
Y257600D01*
D02*
G37*
G36*
X562227Y68300D02*
X557773D01*
X553373Y67603D01*
X549137Y66227D01*
X545168Y64204D01*
X541564Y61586D01*
X538414Y58436D01*
X535796Y54832D01*
X533773Y50863D01*
X532397Y46627D01*
X531700Y42227D01*
Y37773D01*
X532397Y33373D01*
X533773Y29137D01*
X535796Y25168D01*
X538414Y21564D01*
X541564Y18414D01*
X545168Y15796D01*
X549137Y13773D01*
X553373Y12397D01*
X557773Y11700D01*
X562227D01*
X566627Y12397D01*
X570863Y13773D01*
X574832Y15796D01*
X578436Y18414D01*
X581586Y21564D01*
X584204Y25168D01*
X586227Y29137D01*
X587603Y33373D01*
X588300Y37773D01*
Y42227D01*
X587603Y46627D01*
X586227Y50863D01*
X584204Y54832D01*
X581586Y58436D01*
X578436Y61586D01*
X574832Y64204D01*
X570863Y66227D01*
X566627Y67603D01*
X562227Y68300D01*
D02*
G37*
G36*
X42227D02*
X37773D01*
X33373Y67603D01*
X29137Y66227D01*
X25168Y64204D01*
X21564Y61586D01*
X18414Y58436D01*
X15796Y54832D01*
X13773Y50863D01*
X12397Y46627D01*
X11700Y42227D01*
Y37773D01*
X12397Y33373D01*
X13773Y29137D01*
X15796Y25168D01*
X18414Y21564D01*
X21564Y18414D01*
X25168Y15796D01*
X29137Y13773D01*
X33373Y12397D01*
X37773Y11700D01*
X42227D01*
X46627Y12397D01*
X50863Y13773D01*
X54832Y15796D01*
X58436Y18414D01*
X61586Y21564D01*
X64204Y25168D01*
X66227Y29137D01*
X67603Y33373D01*
X68300Y37773D01*
Y42227D01*
X67603Y46627D01*
X66227Y50863D01*
X64204Y54832D01*
X61586Y58436D01*
X58436Y61586D01*
X54832Y64204D01*
X50863Y66227D01*
X46627Y67603D01*
X42227Y68300D01*
D02*
G37*
%LPD*%
G36*
X298657Y551776D02*
X298609Y551773D01*
X298546Y551750D01*
X298468Y551707D01*
X298375Y551645D01*
X298267Y551563D01*
X298007Y551341D01*
X297506Y550861D01*
X296067Y552294D01*
X296227Y552456D01*
X296681Y552983D01*
X296749Y553084D01*
X296800Y553174D01*
X296831Y553251D01*
X296845Y553316D01*
X296840Y553368D01*
X298657Y551776D01*
D02*
G37*
G36*
X293155Y553316D02*
X293169Y553251D01*
X293200Y553174D01*
X293251Y553084D01*
X293319Y552983D01*
X293405Y552869D01*
X293633Y552606D01*
X293933Y552294D01*
X292494Y550861D01*
X292312Y551041D01*
X291625Y551645D01*
X291532Y551707D01*
X291454Y551750D01*
X291391Y551773D01*
X291343Y551776D01*
X293160Y553368D01*
X293155Y553316D01*
D02*
G37*
G36*
X421022Y555043D02*
X421206Y554009D01*
X421287Y553720D01*
X421378Y553460D01*
X421479Y553227D01*
X421589Y553022D01*
X421709Y552845D01*
X421839Y552697D01*
X418303Y549161D01*
X418155Y549291D01*
X417978Y549411D01*
X417773Y549521D01*
X417540Y549622D01*
X417280Y549713D01*
X416991Y549794D01*
X416329Y549926D01*
X415957Y549978D01*
X415556Y550020D01*
X420980Y555444D01*
X421022Y555043D01*
D02*
G37*
G36*
X405561Y549000D02*
X405511Y549475D01*
X405360Y549900D01*
X405108Y550275D01*
X404756Y550600D01*
X404303Y550875D01*
X403750Y551100D01*
X403096Y551275D01*
X402341Y551400D01*
X401486Y551475D01*
X400531Y551500D01*
Y556500D01*
X401486Y556525D01*
X402341Y556600D01*
X403096Y556725D01*
X403750Y556900D01*
X404303Y557125D01*
X404756Y557400D01*
X405108Y557725D01*
X405360Y558100D01*
X405511Y558525D01*
X405561Y559000D01*
Y549000D01*
D02*
G37*
G36*
X426485Y555131D02*
X426624Y554774D01*
X426856Y554459D01*
X427180Y554185D01*
X427597Y553954D01*
X428107Y553765D01*
X428709Y553618D01*
X429403Y553513D01*
X430191Y553450D01*
X431071Y553429D01*
Y548429D01*
X430191Y548408D01*
X429403Y548345D01*
X428709Y548240D01*
X428107Y548093D01*
X427597Y547904D01*
X427180Y547672D01*
X426856Y547399D01*
X426624Y547084D01*
X426485Y546727D01*
X426439Y546327D01*
Y555531D01*
X426485Y555131D01*
D02*
G37*
G36*
X425050Y544431D02*
X424200Y544131D01*
X423450Y543630D01*
X422800Y542930D01*
X422250Y542030D01*
X421800Y540930D01*
X421450Y539631D01*
X421200Y538130D01*
X421050Y536430D01*
X421000Y534530D01*
X411000D01*
X410950Y536430D01*
X410800Y538130D01*
X410550Y539631D01*
X410200Y540930D01*
X409750Y542030D01*
X409200Y542930D01*
X408550Y543630D01*
X407800Y544131D01*
X406950Y544431D01*
X406000Y544530D01*
X426000D01*
X425050Y544431D01*
D02*
G37*
G36*
X421000Y507125D02*
X411000Y494625D01*
X410950Y496525D01*
X410800Y498225D01*
X410550Y499725D01*
X410200Y501025D01*
X409750Y502125D01*
X409200Y503025D01*
X408550Y503725D01*
X407800Y504225D01*
X407036Y504495D01*
X403534Y504615D01*
X401670Y504625D01*
Y509625D01*
X403534Y509635D01*
X407426Y509893D01*
X407800Y510025D01*
X408550Y510525D01*
X409200Y511225D01*
X409750Y512125D01*
X410200Y513225D01*
X410550Y514525D01*
X410800Y516025D01*
X410950Y517725D01*
X411000Y519625D01*
X421000Y507125D01*
D02*
G37*
G36*
X178561Y294366D02*
X178548Y294313D01*
X178537Y294235D01*
X178519Y294001D01*
X178501Y293230D01*
X178500Y292973D01*
X175500D01*
X175425Y294393D01*
X178575D01*
X178561Y294366D01*
D02*
G37*
G36*
X123146Y367346D02*
X60900Y305100D01*
X59949Y303678D01*
X59616Y302000D01*
Y290950D01*
X55384D01*
Y305184D01*
X118816Y368616D01*
X122619D01*
X123146Y367346D01*
D02*
G37*
G36*
X337216Y277133D02*
X336051Y275655D01*
X335578Y274952D01*
X335178Y274273D01*
X334851Y273618D01*
X334596Y272987D01*
X334414Y272379D01*
X334305Y271796D01*
X334269Y271236D01*
X331269Y271086D01*
X331230Y271669D01*
X331115Y272262D01*
X330922Y272866D01*
X330653Y273481D01*
X330306Y274107D01*
X329883Y274742D01*
X329383Y275389D01*
X328805Y276046D01*
X328151Y276714D01*
X327420Y277392D01*
X337907Y277908D01*
X337216Y277133D01*
D02*
G37*
G36*
X363205Y277666D02*
X361702Y275248D01*
X361335Y274523D01*
X361034Y273838D01*
X360801Y273194D01*
X360634Y272590D01*
X360533Y272026D01*
X360500Y271503D01*
X357500Y271006D01*
X357460Y271609D01*
X357339Y272209D01*
X357138Y272805D01*
X356856Y273397D01*
X356494Y273985D01*
X356051Y274570D01*
X355528Y275151D01*
X354924Y275729D01*
X354239Y276303D01*
X353475Y276873D01*
X363839Y278553D01*
X363205Y277666D01*
D02*
G37*
G36*
X45575Y346607D02*
X42425D01*
X42439Y346634D01*
X42452Y346687D01*
X42463Y346766D01*
X42481Y346999D01*
X42499Y347770D01*
X42500Y348027D01*
X45500D01*
X45575Y346607D01*
D02*
G37*
G36*
X140584Y485611D02*
X140637Y485598D01*
X140715Y485587D01*
X140949Y485569D01*
X141720Y485551D01*
X141977Y485550D01*
Y482550D01*
X140557Y482475D01*
Y485625D01*
X140584Y485611D01*
D02*
G37*
G36*
X147634Y440561D02*
X147687Y440548D01*
X147766Y440537D01*
X147999Y440519D01*
X148770Y440501D01*
X149027Y440500D01*
Y437500D01*
X147607Y437425D01*
Y440575D01*
X147634Y440561D01*
D02*
G37*
G36*
X147561Y437366D02*
X147548Y437313D01*
X147537Y437234D01*
X147519Y437001D01*
X147501Y436230D01*
X147500Y435973D01*
X144500Y435973D01*
X144425Y437393D01*
X147575Y437393D01*
X147561Y437366D01*
D02*
G37*
G36*
X38061Y435060D02*
X35939D01*
X35950Y435102D01*
X35961Y435202D01*
X35978Y435579D01*
X36000Y438118D01*
X38000D01*
X38061Y435060D01*
D02*
G37*
G36*
X117289Y387146D02*
X117589Y386905D01*
X117901Y386693D01*
X118225Y386509D01*
X118561Y386353D01*
X118908Y386226D01*
X119267Y386127D01*
X119638Y386057D01*
X120020Y386014D01*
X120414Y386000D01*
X118000Y384000D01*
X113586Y386000D01*
X113952Y386014D01*
X114249Y386057D01*
X114479Y386127D01*
X114640Y386226D01*
X114732Y386353D01*
X114757Y386509D01*
X114713Y386693D01*
X114601Y386905D01*
X114420Y387146D01*
X114172Y387414D01*
X117000D01*
X117289Y387146D01*
D02*
G37*
G36*
X90102Y386050D02*
X90202Y386039D01*
X90579Y386022D01*
X93118Y386000D01*
Y384000D01*
X90060Y383939D01*
Y386061D01*
X90102Y386050D01*
D02*
G37*
G36*
X355061Y434939D02*
X354962Y434835D01*
X354873Y434728D01*
X354793Y434619D01*
X354722Y434508D01*
X354660Y434394D01*
X354608Y434278D01*
X354565Y434160D01*
X354531Y434039D01*
X354507Y433916D01*
X354491Y433791D01*
X351791Y436491D01*
X351917Y436507D01*
X352039Y436531D01*
X352160Y436565D01*
X352278Y436608D01*
X352394Y436660D01*
X352508Y436722D01*
X352619Y436792D01*
X352728Y436873D01*
X352835Y436962D01*
X352939Y437061D01*
X355061Y434939D01*
D02*
G37*
G36*
X354209Y433509D02*
X354084Y433493D01*
X353961Y433469D01*
X353840Y433435D01*
X353722Y433392D01*
X353606Y433340D01*
X353492Y433278D01*
X353381Y433208D01*
X353272Y433127D01*
X353165Y433038D01*
X353061Y432939D01*
X350939Y435061D01*
X351038Y435165D01*
X351127Y435272D01*
X351208Y435381D01*
X351278Y435492D01*
X351340Y435606D01*
X351392Y435722D01*
X351435Y435840D01*
X351469Y435961D01*
X351493Y436084D01*
X351509Y436209D01*
X354209Y433509D01*
D02*
G37*
G36*
X357341Y432172D02*
X357164Y431702D01*
X357009Y431059D01*
X356874Y430240D01*
X356666Y428081D01*
X356510Y423534D01*
X356500Y421670D01*
X351500D01*
X351490Y423534D01*
X350992Y431059D01*
X350836Y431702D01*
X350659Y432172D01*
X350462Y432467D01*
X357538D01*
X357341Y432172D01*
D02*
G37*
G36*
X525575Y414607D02*
X522425D01*
X522439Y414634D01*
X522452Y414687D01*
X522463Y414766D01*
X522481Y414999D01*
X522499Y415770D01*
X522500Y416027D01*
X525500D01*
X525575Y414607D01*
D02*
G37*
G36*
X60366Y414000D02*
X60110Y413998D01*
X59201Y413936D01*
X59093Y413913D01*
X59010Y413886D01*
X58951Y413855D01*
X58917Y413821D01*
X58217Y416893D01*
X59381Y417000D01*
X60366Y414000D01*
D02*
G37*
G36*
X559769Y358767D02*
X556231D01*
X556282Y358867D01*
X556328Y359062D01*
X556368Y359351D01*
X556433Y360210D01*
X556500Y364000D01*
X559500D01*
X559769Y358767D01*
D02*
G37*
G36*
X501233Y288231D02*
X501133Y288282D01*
X500938Y288328D01*
X500649Y288368D01*
X499790Y288433D01*
X496000Y288500D01*
Y291500D01*
X501233Y291769D01*
Y288231D01*
D02*
G37*
G36*
X554561Y283366D02*
X554548Y283313D01*
X554537Y283235D01*
X554519Y283001D01*
X554501Y282230D01*
X554500Y281973D01*
X551500D01*
X551425Y283393D01*
X554575D01*
X554561Y283366D01*
D02*
G37*
G36*
X351539Y98539D02*
X353127Y97479D01*
X354708Y97164D01*
X354583Y95894D01*
X344027D01*
X288261Y151661D01*
X286673Y152722D01*
X284800Y153094D01*
X201050D01*
Y165800D01*
Y178500D01*
Y191200D01*
Y203900D01*
Y216600D01*
Y229206D01*
X220873D01*
X351539Y98539D01*
D02*
G37*
G36*
X44607Y89767D02*
X44205Y86643D01*
X44171Y86670D01*
X44113Y86695D01*
X44029Y86716D01*
X43921Y86735D01*
X43788Y86751D01*
X43242Y86781D01*
X42755Y86787D01*
X43283Y89787D01*
X44607Y89767D01*
D02*
G37*
G36*
X128525Y80657D02*
X125375D01*
X125389Y80684D01*
X125402Y80737D01*
X125413Y80815D01*
X125431Y81049D01*
X125449Y81820D01*
X125450Y82077D01*
X128450D01*
X128525Y80657D01*
D02*
G37*
G36*
X520106Y82027D02*
X510973Y72894D01*
X503417D01*
X503292Y74164D01*
X504873Y74479D01*
X506461Y75539D01*
X514461Y83539D01*
X515522Y85127D01*
X515894Y87000D01*
Y117450D01*
X520106D01*
Y82027D01*
D02*
G37*
G36*
X326539Y75539D02*
X328127Y74479D01*
X329708Y74164D01*
X329583Y72894D01*
X189027D01*
X169944Y91977D01*
Y94350D01*
X185550D01*
Y102756D01*
X299323D01*
X326539Y75539D01*
D02*
G37*
G36*
X147928Y72300D02*
X145700Y70073D01*
X145691Y70102D01*
X145662Y70149D01*
X145615Y70212D01*
X145463Y70389D01*
X144930Y70948D01*
X144749Y71130D01*
X146870Y73251D01*
X147928Y72300D01*
D02*
G37*
D11*
X64000Y278200D02*
Y302000D01*
X127000Y365000D01*
X166000D01*
X89000Y385000D02*
X118000D01*
X272498Y486502D02*
Y535250D01*
Y486502D02*
X273000Y486000D01*
X175900Y392000D02*
X185950Y402050D01*
X114000Y409000D02*
X131000Y392000D01*
X175900D01*
X91000Y412000D02*
X118000Y385000D01*
X181600D02*
X198650Y402050D01*
X118000Y385000D02*
X181600D01*
X51000Y307000D02*
X117000Y373000D01*
X170000D02*
X184506Y358494D01*
X117000Y373000D02*
X170000D01*
X184506Y351944D02*
Y358494D01*
Y351944D02*
X185950Y350500D01*
X172156Y351594D02*
Y358844D01*
X166000Y365000D02*
X172156Y358844D01*
Y351594D02*
X173250Y350500D01*
X37000Y443000D02*
X47000Y453000D01*
X96000D02*
X114000Y435000D01*
X47000Y453000D02*
X96000D01*
X114000Y409000D02*
Y435000D01*
X91000Y412000D02*
Y425000D01*
X198650Y402050D02*
Y405500D01*
X37000Y434000D02*
Y443000D01*
X185950Y402050D02*
Y405500D01*
X50750Y277650D02*
X51000Y277900D01*
Y307000D01*
X63450Y277650D02*
X64000Y278200D01*
D16*
X0Y0D02*
X600000D01*
X0Y600000D02*
X600000D01*
Y0D02*
Y600000D01*
X0Y0D02*
Y600000D01*
D17*
X581000Y133000D02*
D03*
X567000D02*
D03*
X553000D02*
D03*
X539000D02*
D03*
X525000D02*
D03*
X511000D02*
D03*
X497000D02*
D03*
X483000D02*
D03*
Y261000D02*
D03*
X497000D02*
D03*
X511000D02*
D03*
X525000D02*
D03*
X539000D02*
D03*
X553000D02*
D03*
X567000D02*
D03*
X581000D02*
D03*
D18*
X460050Y148000D02*
D03*
Y162000D02*
D03*
Y176000D02*
D03*
Y190000D02*
D03*
Y204000D02*
D03*
Y218000D02*
D03*
Y232000D02*
D03*
Y246000D02*
D03*
D19*
X435000Y356000D02*
D03*
Y370000D02*
D03*
X270000Y472000D02*
D03*
Y486000D02*
D03*
X391000Y211000D02*
D03*
Y197000D02*
D03*
X518000Y304000D02*
D03*
Y290000D02*
D03*
X503000Y304000D02*
D03*
Y290000D02*
D03*
X567000Y289000D02*
D03*
Y303000D02*
D03*
X582000D02*
D03*
Y289000D02*
D03*
X375000Y554000D02*
D03*
Y540000D02*
D03*
X312000Y371000D02*
D03*
Y357000D02*
D03*
Y333000D02*
D03*
Y347000D02*
D03*
X306000Y486000D02*
D03*
Y472000D02*
D03*
D20*
X418998Y370000D02*
D03*
X408737Y212199D02*
D03*
D21*
X418998Y354000D02*
D03*
X408737Y196199D02*
D03*
D22*
X160000Y427000D02*
D03*
X146000D02*
D03*
X553000Y103000D02*
D03*
X567000D02*
D03*
X26000Y80000D02*
D03*
X12000D02*
D03*
X260000Y515000D02*
D03*
X246000D02*
D03*
X558000Y357000D02*
D03*
X544000D02*
D03*
X558000Y375000D02*
D03*
X544000D02*
D03*
X510000Y425000D02*
D03*
X524000D02*
D03*
X559000Y454000D02*
D03*
X545000D02*
D03*
X559000Y470000D02*
D03*
X545000D02*
D03*
X90000Y534000D02*
D03*
X104000D02*
D03*
X146000Y534000D02*
D03*
X160000D02*
D03*
X148000Y483000D02*
D03*
X162000D02*
D03*
X91000Y483000D02*
D03*
X105000D02*
D03*
X74000Y384000D02*
D03*
X88000D02*
D03*
X51000Y434000D02*
D03*
X37000D02*
D03*
D23*
X53500Y384000D02*
D03*
X34500D02*
D03*
X44000Y361000D02*
D03*
D24*
X558500Y400150D02*
D03*
X539500D02*
D03*
Y423850D02*
D03*
X549000D02*
D03*
X558500D02*
D03*
D25*
X12650Y107650D02*
D03*
X25350D02*
D03*
X38050D02*
D03*
X50750D02*
D03*
X63450D02*
D03*
X76150D02*
D03*
X88850D02*
D03*
X101550D02*
D03*
X114250D02*
D03*
X126950D02*
D03*
X139650D02*
D03*
X152350D02*
D03*
X165050D02*
D03*
X177750D02*
D03*
Y277650D02*
D03*
X165050D02*
D03*
X152350D02*
D03*
X139650D02*
D03*
X126950D02*
D03*
X114250D02*
D03*
X101550D02*
D03*
X88850D02*
D03*
X76150D02*
D03*
X63450D02*
D03*
X50750D02*
D03*
X38050D02*
D03*
X25350D02*
D03*
X12650D02*
D03*
D26*
X187750Y135500D02*
D03*
Y148200D02*
D03*
Y160900D02*
D03*
Y173600D02*
D03*
Y186300D02*
D03*
Y199000D02*
D03*
Y211700D02*
D03*
Y224400D02*
D03*
Y237100D02*
D03*
Y249800D02*
D03*
D27*
X69300Y164300D02*
D03*
Y182650D02*
D03*
Y201000D02*
D03*
X87650Y164300D02*
D03*
Y182650D02*
D03*
Y201000D02*
D03*
X106000Y164300D02*
D03*
Y182650D02*
D03*
Y201000D02*
D03*
D28*
X450000Y433500D02*
D03*
Y402500D02*
D03*
D29*
X412000Y413000D02*
D03*
Y436000D02*
D03*
Y459000D02*
D03*
D30*
X354000Y436000D02*
D03*
D31*
X445900Y465000D02*
D03*
X472100D02*
D03*
D32*
X146000Y509000D02*
D03*
X180000D02*
D03*
X89000D02*
D03*
X123000D02*
D03*
D33*
X160550Y405500D02*
D03*
X173250D02*
D03*
X249450Y350500D02*
D03*
X236750Y405500D02*
D03*
Y350500D02*
D03*
X211350D02*
D03*
X249450Y405500D02*
D03*
X224050Y350500D02*
D03*
Y405500D02*
D03*
X211350D02*
D03*
X185950D02*
D03*
X198650Y350500D02*
D03*
X185950D02*
D03*
X160550D02*
D03*
X198650Y405500D02*
D03*
X173250Y350500D02*
D03*
D34*
X285000Y332500D02*
D03*
Y373500D02*
D03*
D35*
X91000Y425000D02*
D03*
X68000Y415500D02*
D03*
Y434500D02*
D03*
D65*
X258000Y535250D02*
D03*
X265998D02*
D03*
X313999D02*
D03*
X322000D02*
D03*
D66*
X272498D02*
D03*
X277499D02*
D03*
X292501D02*
D03*
X297499D02*
D03*
X302498D02*
D03*
X307499D02*
D03*
X287499D02*
D03*
X282501D02*
D03*
D67*
X337000Y230000D02*
X359000Y252000D01*
Y281638D01*
X332769Y253769D02*
Y278782D01*
X320000Y241000D02*
X332769Y253769D01*
X272000Y241000D02*
X320000D01*
X558750Y424100D02*
Y454000D01*
Y469750D01*
X335000Y437000D02*
X335406D01*
X352000Y434000D02*
X354000Y436000D01*
X160000Y534000D02*
X161000Y533000D01*
X195000D01*
X206000Y522000D01*
Y484000D02*
Y522000D01*
X161000Y439000D02*
X206000Y484000D01*
X146000Y439000D02*
X161000D01*
X145000Y552000D02*
X159000Y538000D01*
Y535000D02*
Y538000D01*
Y535000D02*
X160000Y534000D01*
X107000Y537000D02*
X122000Y552000D01*
X145000D01*
X104000Y534000D02*
Y536000D01*
X105000Y537000D01*
X107000D01*
X45713Y88287D02*
X46000Y88000D01*
X41713Y88287D02*
X45713D01*
X38050Y91950D02*
X41713Y88287D01*
X38050Y91950D02*
Y107650D01*
X524000Y413000D02*
Y424850D01*
X146000Y427000D02*
Y439000D01*
Y427000D02*
X146207Y426793D01*
X146000Y439000D02*
X146000Y439000D01*
X44000Y345000D02*
Y361000D01*
X553000Y261000D02*
X553000Y261000D01*
Y285000D01*
X139650Y78350D02*
X148000Y70000D01*
X147000Y484050D02*
Y510000D01*
X148000Y483000D02*
Y483050D01*
X147000Y484050D02*
X148000Y483050D01*
X138950Y484050D02*
X147000D01*
X25350Y107650D02*
X26000Y107000D01*
X187000Y311000D02*
X268000Y230000D01*
X113000Y302000D02*
X122000Y311000D01*
X187000D01*
X101550Y307793D02*
X113757Y320000D01*
X193000D02*
X272000Y241000D01*
X113757Y320000D02*
X193000D01*
X113000Y278900D02*
X114250Y277650D01*
X113000Y278900D02*
Y302000D01*
X101550Y277650D02*
Y307793D01*
X268000Y230000D02*
X337000D01*
X177000Y278400D02*
Y296000D01*
X306000Y567000D02*
X308507Y564493D01*
Y547176D02*
Y564493D01*
Y547176D02*
X312749Y542934D01*
Y536500D02*
Y542934D01*
Y536500D02*
X313999Y535250D01*
X277757Y567000D02*
X306000D01*
X276000Y551686D02*
Y565243D01*
X277757Y567000D01*
X267248Y536500D02*
Y542935D01*
X276000Y551686D01*
X265998Y535250D02*
X267248Y536500D01*
X260000Y515000D02*
Y517000D01*
X265998Y522998D01*
Y535250D01*
X558750Y469750D02*
X559000Y470000D01*
X558500Y423850D02*
X558750Y424100D01*
X177000Y278400D02*
X177750Y277650D01*
X409018Y196480D02*
X416480D01*
X434000Y214000D02*
Y278000D01*
X408737Y196199D02*
X409018Y196480D01*
X416480D02*
X434000Y214000D01*
Y278000D02*
X446000Y290000D01*
X503000D01*
X391600Y211600D02*
X408138D01*
X408737Y212199D01*
X391000Y211000D02*
X391600Y211600D01*
X525000Y423850D02*
X539500D01*
X524000Y424850D02*
X525000Y423850D01*
X558250Y375250D02*
Y399900D01*
X558000Y375000D02*
X558250Y375250D01*
Y399900D02*
X558500Y400150D01*
X558000Y357000D02*
Y375000D01*
X57000Y415000D02*
X57406D01*
X57906Y415500D02*
X68000D01*
X57406Y415000D02*
X57906Y415500D01*
X53500Y384000D02*
X74000D01*
X88000D02*
X89000Y385000D01*
X47000Y507000D02*
X87000D01*
X89000Y509000D01*
X16000Y367000D02*
Y476000D01*
X47000Y507000D01*
X22000Y361000D02*
X44000D01*
X16000Y367000D02*
X22000Y361000D01*
X36000Y385500D02*
Y433000D01*
X37000Y434000D01*
X34500Y384000D02*
X36000Y385500D01*
X51500Y434500D02*
X68000D01*
X51000Y434000D02*
X51500Y434500D01*
X160550Y405500D02*
Y408680D01*
X146207Y419843D02*
X155770Y410280D01*
X158950D01*
X160550Y408680D01*
X146207Y419843D02*
Y426793D01*
X146000Y511000D02*
Y534000D01*
Y511000D02*
X147000Y510000D01*
X89500Y509500D02*
Y533500D01*
X90000Y534000D01*
X89000Y509000D02*
X89500Y509500D01*
X90000Y484000D02*
Y508000D01*
X89000Y509000D02*
X90000Y508000D01*
Y484000D02*
X91000Y483000D01*
X581000Y261000D02*
X582000Y262000D01*
Y289000D01*
X567000Y261000D02*
Y289000D01*
X285000Y329500D02*
X285500Y330000D01*
Y333000D02*
X312000D01*
X285000Y370500D02*
X287500Y368000D01*
Y371000D02*
X312000D01*
X236750Y353950D02*
X253300Y370500D01*
X236750Y350500D02*
Y353950D01*
X253300Y370500D02*
X285000D01*
X249450Y347825D02*
Y350500D01*
Y347825D02*
X251050Y346225D01*
X265775D01*
X282500Y329500D01*
X285000D01*
X482000Y109000D02*
Y129000D01*
X355000Y102000D02*
X475000D01*
X482000Y109000D01*
X513000Y68000D02*
X525000Y80000D01*
Y133000D01*
X511000Y87000D02*
Y133000D01*
X503000Y79000D02*
X511000Y87000D01*
X553000Y133000D02*
X553000Y133000D01*
Y103000D02*
Y133000D01*
Y90000D02*
Y103000D01*
X522000Y59000D02*
X553000Y90000D01*
X496000Y104000D02*
Y132000D01*
X497000Y133000D01*
X301350Y107650D02*
X330000Y79000D01*
X503000D01*
X165050Y89950D02*
X187000Y68000D01*
X513000D01*
X152350Y89650D02*
X183000Y59000D01*
X152350Y89650D02*
Y107650D01*
X165050Y89950D02*
Y107650D01*
X177750D02*
X301350D01*
X187750Y148200D02*
X284800D01*
X342000Y91000D01*
X222900Y234100D02*
X355000Y102000D01*
X190750Y234100D02*
X222900D01*
X187750Y237100D02*
X190750Y234100D01*
X183000Y59000D02*
X522000D01*
X483000Y91000D02*
X496000Y104000D01*
X342000Y91000D02*
X483000D01*
X126950Y79050D02*
Y107650D01*
Y79050D02*
X127000Y79000D01*
X139650Y78350D02*
Y107650D01*
D68*
X416000Y507125D02*
Y551000D01*
Y555000D01*
Y459250D02*
Y507125D01*
X415750Y459000D02*
X437000D01*
X415750D02*
X416000Y459250D01*
X412000Y459000D02*
X415750D01*
X354000Y436000D02*
X412000D01*
X412250Y435750D02*
X447750D01*
X412000Y436000D02*
X412250Y435750D01*
X447750D02*
X450000Y433500D01*
X437000Y459000D02*
X443000Y465000D01*
D69*
X420071Y550929D02*
X431071D01*
X416000Y555000D02*
X420071Y550929D01*
X431071D02*
X490000Y492000D01*
X549000D01*
X354000Y392000D02*
X392000Y354000D01*
X354000Y392000D02*
Y436000D01*
X392000Y354000D02*
X418998D01*
X418998Y370000D02*
X435000D01*
X418998Y370000D02*
X418998Y370000D01*
X417999Y369000D02*
X418998Y370000D01*
X338406Y434000D02*
X352000D01*
X335406Y437000D02*
X338406Y434000D01*
X26000Y78000D02*
X36000D01*
X26000D02*
Y80000D01*
Y107000D01*
X415000Y554000D02*
X416000Y555000D01*
X375000Y554000D02*
X415000D01*
X328071Y507071D02*
X328125Y507125D01*
X313999Y517001D02*
X323929Y507071D01*
X328071D01*
X328125Y507125D02*
X416000D01*
X313999Y517001D02*
Y535250D01*
X518000Y290000D02*
X526000D01*
X526000Y290000D01*
X558000Y322000D02*
Y357000D01*
X526000Y290000D02*
X558000Y322000D01*
X510500Y290000D02*
X518000D01*
X503000D02*
X510500D01*
X511000Y261000D02*
Y289500D01*
X510500Y290000D02*
X511000Y289500D01*
Y261000D02*
X525000D01*
X497000D02*
X511000D01*
X443000Y465000D02*
X444000Y466000D01*
X549000Y492000D02*
X559000Y482000D01*
Y470000D02*
Y482000D01*
D70*
X302498Y487250D02*
X303748Y486000D01*
X302498Y487250D02*
Y535250D01*
X303748Y486000D02*
X306000D01*
D71*
X293215Y548727D02*
Y551576D01*
X293215Y548727D02*
X293215Y548727D01*
X291000Y553791D02*
X293215Y551576D01*
X293215Y542272D02*
Y548727D01*
X292986Y542042D02*
X293215Y542272D01*
X291000Y553791D02*
Y554000D01*
X292986Y535735D02*
Y542042D01*
X292501Y535250D02*
X292986Y535735D01*
X292501Y535250D02*
X292986Y534765D01*
Y528457D02*
Y534765D01*
X293215Y427215D02*
Y528228D01*
X292986Y528457D02*
X293215Y528228D01*
X237000Y387570D02*
X253570D01*
X293215Y427215D01*
X215915Y366485D02*
X237000Y387570D01*
X215915Y357224D02*
Y366485D01*
X214726Y356035D02*
X215915Y357224D01*
X211350Y353950D02*
X213435Y356035D01*
X214726D01*
X211350Y350500D02*
Y353950D01*
X282986Y528457D02*
Y534765D01*
X282501Y535250D02*
X282986Y534765D01*
X283215Y524751D02*
Y528228D01*
X282986Y528457D02*
X283215Y528228D01*
X281715Y523251D02*
X283215Y524751D01*
X281715Y516383D02*
Y523251D01*
X280000Y514668D02*
X281715Y516383D01*
X280000Y514000D02*
Y514668D01*
X299000Y553791D02*
Y554000D01*
X296785Y551576D02*
X299000Y553791D01*
X297014Y535735D02*
X297499Y535250D01*
X297014Y535735D02*
Y542042D01*
X296785Y547248D02*
Y551576D01*
X296785Y547248D02*
X296785Y547248D01*
X296785Y542272D02*
X297014Y542042D01*
X296785Y542272D02*
Y547248D01*
X297014Y534765D02*
X297499Y535250D01*
X297014Y528457D02*
Y534765D01*
X296785Y425736D02*
Y528228D01*
X297014Y528457D01*
X238479Y384000D02*
X255049D01*
X296785Y425736D01*
X219485Y365006D02*
X238479Y384000D01*
X224050Y350500D02*
Y353950D01*
X219485Y357224D02*
X220674Y356035D01*
X219485Y357224D02*
Y365006D01*
X221965Y356035D02*
X224050Y353950D01*
X220674Y356035D02*
X221965D01*
X287014Y534765D02*
X287499Y535250D01*
X287014Y528457D02*
Y534765D01*
X286785Y528228D02*
X287014Y528457D01*
X285285Y516383D02*
X287000Y514668D01*
Y514000D02*
Y514668D01*
X286785Y523272D02*
Y528228D01*
X285285Y521772D02*
X286785Y523272D01*
X285285Y516383D02*
Y521772D01*
D72*
X357800Y283000D02*
D03*
X332400D02*
D03*
X307000D02*
D03*
D73*
X281600D02*
D03*
D74*
X69300Y173475D02*
D03*
Y191825D02*
D03*
X78475Y164300D02*
D03*
Y182650D02*
D03*
Y201000D02*
D03*
X87650Y173475D02*
D03*
Y191825D02*
D03*
X96825Y164300D02*
D03*
Y182650D02*
D03*
Y201000D02*
D03*
X106000Y173475D02*
D03*
Y191825D02*
D03*
D75*
X560000Y40000D02*
D03*
X40000D02*
D03*
Y560000D02*
D03*
X560000D02*
D03*
D76*
X416000Y555000D02*
D03*
D77*
X466000D02*
D03*
D78*
X246750Y582750D02*
D03*
X333250D02*
D03*
D79*
X246750Y540749D02*
D03*
X333250D02*
D03*
D80*
X199000Y374000D02*
D03*
X394000Y253000D02*
D03*
X370000Y581000D02*
D03*
X216000Y579000D02*
D03*
X93000Y578000D02*
D03*
X220000Y456000D02*
D03*
X339000Y175000D02*
D03*
X527000Y190000D02*
D03*
X414000Y19000D02*
D03*
X214000Y23000D02*
D03*
X114000Y24000D02*
D03*
X324000Y352000D02*
D03*
X159000Y334000D02*
D03*
X9000Y66000D02*
D03*
X390000Y187000D02*
D03*
X438000Y149000D02*
D03*
X538000Y113000D02*
D03*
X573000D02*
D03*
X567000Y89000D02*
D03*
X462000Y270000D02*
D03*
X511000Y315000D02*
D03*
X574000Y311000D02*
D03*
X537000Y366000D02*
D03*
X549000Y439000D02*
D03*
X501000Y425000D02*
D03*
X537000Y462000D02*
D03*
X489000Y464000D02*
D03*
X374000Y531000D02*
D03*
X333000Y523000D02*
D03*
X253000Y525000D02*
D03*
X173000Y490000D02*
D03*
X116000Y488000D02*
D03*
X14000Y301000D02*
D03*
X206000Y135000D02*
D03*
X435000Y345000D02*
D03*
X417000Y395000D02*
D03*
X451000Y385000D02*
D03*
X307000Y464000D02*
D03*
X270000D02*
D03*
X335000Y437000D02*
D03*
X46000Y88000D02*
D03*
X36000Y78000D02*
D03*
X146000Y439000D02*
D03*
X44000Y345000D02*
D03*
X138950Y484050D02*
D03*
X299000Y554000D02*
D03*
X291000D02*
D03*
X524000Y413000D02*
D03*
X553000Y285000D02*
D03*
X177000Y296000D02*
D03*
X280000Y514000D02*
D03*
X287000Y514000D02*
D03*
X57000Y415000D02*
D03*
X147950Y70050D02*
D03*
X126950Y79050D02*
D03*
M02*
